<?xml version="1.0" encoding="UTF-8" standalone="no"?>
<svg
   width="800"
   height="305"
   viewBox="0 0 800 305"
   version="1.1"
   id="svg4"
   sodipodi:docname="celtic.svg"
   inkscape:version="1.3 (0e150ed6c4, 2023-07-21)"
   xmlns:inkscape="http://www.inkscape.org/namespaces/inkscape"
   xmlns:sodipodi="http://sodipodi.sourceforge.net/DTD/sodipodi-0.dtd"
   xmlns:xlink="http://www.w3.org/1999/xlink"
   xmlns="http://www.w3.org/2000/svg"
   xmlns:svg="http://www.w3.org/2000/svg">
  <sodipodi:namedview
     id="namedview4"
     pagecolor="#ffffff"
     bordercolor="#111111"
     borderopacity="1"
     inkscape:showpageshadow="0"
     inkscape:pageopacity="0"
     inkscape:pagecheckerboard="1"
     inkscape:deskcolor="#d1d1d1"
     showgrid="false"
     inkscape:zoom="1.2798633"
     inkscape:cx="387.15073"
     inkscape:cy="187.12936"
     inkscape:window-width="2494"
     inkscape:window-height="1057"
     inkscape:window-x="58"
     inkscape:window-y="-8"
     inkscape:window-maximized="1"
     inkscape:current-layer="svg4" />
  <title
     id="title1">One very basic form of Celtic or pseudo-Celtic linear knotwork.  By AnonMoos (public domain)</title>
  <defs
     id="defs1">
    <path
       id="Knotpath"
       d="M381.604,19.493C376.666,18.17,371.575,17.5,366.463,17.5C350.948,17.5,336.068,23.664,325.097,34.634L242.366,117.366C231.395,128.336,216.515,134.5,201,134.5C185.485,134.5,170.605,128.336,159.634,117.366L76.903,34.634C65.932,23.664,51.052,17.5,35.537,17.5C30.425,17.5,25.334,18.17,20.396,19.493C19.073,24.431,18.403,29.522,18.403,34.634C18.403,50.149,24.566,65.029,35.537,76L76.903,117.366C87.8735,128.336,102.754,134.5,118.269,134.5C133.784,134.5,148.664,128.336,159.634,117.366L242.366,34.634C253.336,23.664,268.216,17.5,283.731,17.5C299.246,17.5,314.126,23.664,325.097,34.634L366.463,76C377.434,86.971,383.597,101.851,383.597,117.366C383.597,122.478,382.927,127.569,381.604,132.507C376.666,133.83,371.575,134.5,366.463,134.5C350.948,134.5,336.068,128.336,325.097,117.366L242.366,34.634C231.395,23.664,216.515,17.5,201,17.5C185.485,17.5,170.605,23.664,159.634,34.634L76.903,117.366C65.932,128.336,51.052,134.5,35.537,134.5C30.425,134.5,25.334,133.83,20.396,132.507C19.073,127.569,18.403,122.478,18.403,117.366C18.403,101.851,24.566,86.971,35.537,76L76.903,34.634C87.8735,23.664,102.754,17.5,118.269,17.5C133.784,17.5,148.664,23.664,159.634,34.634L242.366,117.366C253.336,128.336,268.216,134.5,283.731,134.5C299.246,134.5,314.126,128.336,325.097,117.366L366.463,76C377.434,65.029,383.597,50.149,383.597,34.634C383.597,29.522,382.927,24.431,381.604,19.493Z" />
  </defs>
  <g
     id="g5"
     style="display:none;fill:none"
     sodipodi:insensitive="true">
    <use
       xlink:href="#Knotpath"
       id="use2"
       transform="matrix(2,0,0,2,-2,1)"
       style="fill:none;stroke:#000000;stroke-width:23.4;stroke-linejoin:round" />
    <use
       stroke-width="14.04"
       stroke="#ffffff"
       xlink:href="#Knotpath"
       id="use3"
       transform="matrix(2,0,0,2,-2,1)"
       style="fill:none;stroke-linejoin:round" />
    <path
       d="m 397.958,269.982 c -30.318,-0.53 -59.248,-12.81 -80.69,-34.25 l -35.1,-35.1 m 100.282,-30.082 35.1,-35.1 M 402.042,36.018 c 30.318,0.53 59.248,12.81 80.69,34.25 l 35.1,35.1 M 232.496,269.982 c -30.32,-0.53 -59.249,-12.81 -80.69,-34.25 l -35.1,-35.1 m 100.282,-30.082 35.098,-35.1 M 236.58,36.018 c 30.318,0.53 59.248,12.81 80.688,34.25 l 35.1,35.1 M 563.42,269.982 c -30.318,-0.53 -59.248,-12.81 -80.688,-34.25 l -35.1,-35.1 m 100.28,-30.082 35.1,-35.1 M 567.504,36.018 c 30.32,0.53 59.248,12.81 80.69,34.25 l 35.1,35.1 M 71.116,36.018 c 30.318,0.53 59.248,12.81 80.69,34.25 l 35.1,35.1 m 541.978,164.614 c -30.318,-0.53 -59.248,-12.81 -80.69,-34.25 l -35.1,-35.1 m -573.756,2.85 C 44.808,184.404 55.042,167.032 69.074,153 l 35.1,-35.1 m 656.488,-15.382 c -5.47,19.078 -15.704,36.45 -29.736,50.482 l -35.1,35.1"
       id="path3"
       style="fill:none;stroke:#000000;stroke-width:46.8;stroke-linejoin:round" />
    <path
       stroke-width="28.08"
       stroke="#ffffff"
       d="m 400,270 c -31.03,0 -60.79,-12.328 -82.732,-34.268 L 281,199.462 M 381.28,171.72 418.72,134.28 M 400,36 c 31.03,0 60.79,12.328 82.732,34.268 L 519,106.538 M 234.538,270 c -31.03,0 -60.791,-12.328 -82.732,-34.268 l -36.27,-36.27 m 100.282,-27.742 37.44,-37.44 M 234.538,36 c 31.03,0 60.79,12.328 82.73,34.268 l 36.27,36.27 M 565.462,270 c -31.03,0 -60.79,-12.328 -82.73,-34.268 l -36.27,-36.27 m 100.28,-27.742 37.44,-37.44 M 565.462,36 c 31.03,0 60.79,12.328 82.732,34.268 l 36.27,36.27 M 69.074,36 c 31.03,0 60.79,12.328 82.732,34.268 l 36.27,36.27 M 730.926,270 c -31.03,0 -60.79,-12.328 -82.732,-34.268 l -36.27,-36.27 M 38.792,205.45 C 44.108,185.612 54.552,167.522 69.074,153 l 36.27,-36.27 m 655.864,-16.18 c -5.316,19.838 -15.76,37.928 -30.282,52.45 l -36.27,36.27"
       id="path4"
       style="fill:none;stroke-linejoin:round" />
  </g>
  <g
     id="g19-7-6-2"
     transform="matrix(0.46148142,0,0,0.46148142,433.68156,150.41117)">
    <path
       style="fill:#1a1a1a;fill-opacity:0.807069;stroke:none;stroke-width:25.2616;stroke-linecap:round;stroke-linejoin:round;stroke-dasharray:none;stroke-dashoffset:0;stroke-opacity:0.2"
       d="M 507.93677,109.65372 C 488.04424,89.739053 469.83084,71.86837 467.46258,69.941097 435.09316,43.5992 389.56191,38.559738 352.47704,57.214338 c -3.54318,1.782305 -6.94878,3.595061 -7.56798,4.028344 -1.03918,0.727162 -1.67983,0.245405 -8.32483,-6.260044 -3.95945,-3.876307 -8.82605,-8.522402 -10.81465,-10.324654 l -3.61567,-3.276822 4.76392,-3.086333 c 16.5245,-10.705521 36.33173,-17.789395 57.29645,-20.491546 6.81432,-0.878301 25.08617,-0.886978 31.57694,-0.01499 26.50401,3.560603 49.4808,13.219277 69.75633,29.323222 2.52616,2.006412 21.4527,20.455772 42.05897,40.998574 l 37.46595,37.350551 -10.18897,10.20078 c -5.60395,5.61044 -10.32163,10.20079 -10.48374,10.20079 -0.16211,0 -16.57046,-16.29383 -36.46299,-36.20849 z"
       id="path7-3-9-7" />
    <path
       style="fill:#1a1a1a;fill-opacity:0.807069;stroke:none;stroke-width:25.2616;stroke-linecap:round;stroke-linejoin:round;stroke-dasharray:none;stroke-dashoffset:0;stroke-opacity:0.2"
       d="m 166.33338,228.01056 c -2.21038,-1.85368 -6.9878,-6.37109 -10.61649,-10.03869 l -6.59761,-6.66835 68.33073,-68.33073 68.33072,-68.330727 3.71727,3.066562 c 5.32949,4.396566 17.20924,15.918934 17.20924,16.691536 0,0.359528 -30.67987,31.327269 -68.17748,68.817209 l -68.1775,68.16352 z"
       id="path8-9-1-03" />
    <path
       style="fill:#1a1a1a;fill-opacity:0.807069;stroke:none;stroke-width:25.2616;stroke-linecap:round;stroke-linejoin:round;stroke-dasharray:none;stroke-dashoffset:0;stroke-opacity:0.2"
       d="M 335.41355,108.89195 C 305.94266,79.487065 297.09976,70.997281 292.09979,67.307788 266.99046,48.779508 236.62861,42.066962 206.08534,48.291286 195.86283,50.3745 182.33085,55.541831 174.53306,60.339863 l -2.85992,1.759722 -10.42058,-10.214126 c -5.73132,-5.61777 -10.48404,-10.346237 -10.56159,-10.507704 -0.30793,-0.64109 9.77199,-6.647609 17.36479,-10.347512 20.14461,-9.816264 37.58108,-13.837934 59.9962,-13.837934 13.27066,0 21.99349,1.048043 33.93773,4.077604 17.64783,4.476227 36.03692,13.595221 50.74411,25.163575 3.73316,2.936424 25.60378,24.445978 64.15668,63.097512 l 15.92831,15.96907 -10.18705,10.17004 -10.18705,10.17003 z"
       id="path9-9-2-8" />
    <path
       style="fill:#1a1a1a;fill-opacity:0.807069;stroke:none;stroke-width:25.2616;stroke-linecap:round;stroke-linejoin:round;stroke-dasharray:none;stroke-dashoffset:0;stroke-opacity:0.2"
       d="m 566.49934,288.96841 c -29.35927,-1.17858 -59.48781,-12.82831 -81.81298,-31.63447 -2.99981,-2.52696 -21.72891,-20.89015 -41.62021,-40.80709 l -36.16603,-36.21262 10.03866,-10.05097 c 5.52127,-5.52804 10.22554,-9.98569 10.45394,-9.90591 0.2284,0.0798 17.02367,16.68672 37.32283,36.90428 37.64749,37.49619 41.68951,41.17025 52.40365,47.63322 15.60447,9.4129 36.52279,15.21847 54.83434,15.21847 17.42029,0 38.40659,-5.57332 52.84052,-14.03281 l 3.54484,-2.07758 10.41731,10.18031 c 5.72952,5.59917 10.48447,10.32974 10.56655,10.51237 0.28039,0.62383 -10.4716,6.99756 -17.96006,10.64664 -19.45362,9.47961 -43.3106,14.49135 -64.86336,13.62616 z"
       id="path10-1-5-4" />
    <path
       style="fill:#1a1a1a;fill-opacity:0.807069;stroke:none;stroke-width:25.2616;stroke-linecap:round;stroke-linejoin:round;stroke-dasharray:none;stroke-dashoffset:0;stroke-opacity:0.2"
       d="m 335.98768,226.00997 c -2.99981,-2.64575 -7.58421,-6.97437 -10.18755,-9.61917 l -4.73336,-4.80872 68.02464,-68.02311 c 37.41354,-37.41273 68.29406,-68.112944 68.62338,-68.222716 0.91725,-0.305749 5.25903,3.396071 13.63645,11.626482 l 7.62047,7.486757 -68.18988,68.191697 c -37.50445,37.50543 -68.44866,68.18889 -68.76492,68.18546 -0.31627,-0.003 -3.02942,-2.17094 -6.02923,-4.81668 z"
       id="path11-0-6-3" />
    <path
       style="fill:#1a1a1a;fill-opacity:0.807069;stroke:none;stroke-width:25.2616;stroke-linecap:round;stroke-linejoin:round;stroke-dasharray:none;stroke-dashoffset:0;stroke-opacity:0.2"
       d="m 510.23498,228.01056 c -2.21038,-1.85368 -6.98781,-6.37109 -10.6165,-10.03869 l -6.5976,-6.66835 68.33072,-68.33073 68.33073,-68.330727 3.71727,3.082503 c 5.49382,4.555688 17.20923,15.90164 17.20923,16.666518 0,0.36452 -30.67987,31.336346 -68.17748,68.826286 l -68.17749,68.16352 z"
       id="path12-2-0-90" />
    <path
       style="fill:#1a1a1a;fill-opacity:0.807069;stroke:none;stroke-width:25.2616;stroke-linecap:round;stroke-linejoin:round;stroke-dasharray:none;stroke-dashoffset:0;stroke-opacity:0.2"
       d="M 678.74101,108.37815 C 639.13321,68.928927 636.85675,66.887462 624.7381,59.950091 598.74351,45.069362 566.73617,41.940175 538.19506,51.489238 c -6.63755,2.220742 -15.26726,6.085959 -19.76041,8.850625 l -2.85991,1.759722 -10.42059,-10.214126 c -5.73131,-5.61777 -10.48403,-10.346237 -10.56158,-10.507704 -0.30793,-0.64109 9.77197,-6.647609 17.36479,-10.347512 20.14459,-9.816264 37.58108,-13.837934 59.99618,-13.837934 13.27068,0 21.9935,1.048043 33.93775,4.077604 17.64782,4.476227 36.0369,13.595221 50.7441,25.163575 3.73263,2.936005 26.11664,24.950568 63.85446,62.800572 l 15.6261,15.67254 -3.36454,4.01888 c -1.8505,2.21039 -6.29868,6.91879 -9.88484,10.46313 l -6.52029,6.44423 z"
       id="path13-4-5-20" />
    <path
       style="fill:#1a1a1a;fill-opacity:0.807069;stroke:none;stroke-width:25.2616;stroke-linecap:round;stroke-linejoin:round;stroke-dasharray:none;stroke-dashoffset:0;stroke-opacity:0.2"
       d="m 680.46339,226.57489 c -2.68403,-2.32695 -7.2643,-6.6483 -10.17837,-9.60302 l -5.2983,-5.37221 36.63181,-36.74408 c 20.4457,-20.50834 38.30419,-38.91031 40.41664,-41.64661 14.30402,-18.52815 21.77207,-38.973878 22.64842,-62.00589 0.32825,-8.626921 -0.51861,-21.279935 -1.53423,-22.923245 -0.61284,-0.991609 -11.05495,-2.288085 -18.54999,-2.303142 -11.99194,-0.02409 -23.32853,1.828381 -34.93289,5.708253 -6.05906,2.025821 -17.74578,7.381495 -20.85526,9.557344 -1.03792,0.726283 -1.66177,0.262947 -8.03777,-5.969731 -3.80188,-3.71642 -8.63946,-8.339869 -10.75019,-10.274333 -4.53073,-4.152388 -4.90176,-3.419842 4.60902,-9.09966 29.9481,-17.884945 66.98338,-23.410976 101.32929,-15.119332 6.63144,1.600932 9.86508,3.745309 12.00526,7.961229 1.68489,3.319042 3.84979,12.610681 5.08319,21.816796 0.95064,7.095664 0.95644,25.771589 0.0104,32.725193 -3.4307,25.209638 -11.91382,46.061778 -26.96773,66.288688 -3.17039,4.25982 -14.11357,15.6158 -41.93121,43.51295 -20.70266,20.76184 -37.90593,37.74267 -38.22948,37.7352 -0.32356,-0.007 -2.78431,-1.91746 -5.46836,-4.2444 z"
       id="path14-5-2-3" />
    <path
       style="fill:#1a1a1a;fill-opacity:0.807069;stroke:none;stroke-width:25.2616;stroke-linecap:round;stroke-linejoin:round;stroke-dasharray:none;stroke-dashoffset:0;stroke-opacity:0.2"
       d="m 738.45014,288.98123 c -28.9177,-1.19704 -57.12414,-11.85139 -80.37767,-30.36085 -2.68403,-2.13646 -21.61326,-20.56029 -42.06492,-40.94185 l -37.18487,-37.05738 10.34037,-10.34036 10.34036,-10.34036 37.46583,37.36718 c 20.60621,20.55195 39.01597,38.53411 40.91058,39.96035 17.38589,13.08785 35.60083,20.2422 56.8385,22.32469 10.02542,0.98305 27.41862,-0.15677 28.47501,-1.86605 0.71048,-1.14958 1.66661,-12.07005 1.66661,-19.03512 0,-17.05202 -3.79895,-32.65235 -11.78595,-48.39883 l -4.10959,-8.10211 10.32531,-10.41238 c 9.36815,-9.44717 10.39708,-10.31935 11.09957,-9.40875 2.05644,2.66568 7.5155,12.32632 10.53536,18.64394 5.85871,12.25661 10.09788,26.84802 12.13861,41.78177 1.07935,7.89849 0.9274,26.3425 -0.28379,34.44757 -2.35004,15.72613 -4.70705,22.14736 -9.25036,25.20088 -5.45045,3.66319 -29.66914,7.17556 -45.07896,6.53766 z"
       id="path15-9-1-19" />
    <path
       style="fill:#1a1a1a;fill-opacity:0.807069;stroke:none;stroke-width:25.2616;stroke-linecap:round;stroke-linejoin:round;stroke-dasharray:none;stroke-dashoffset:0;stroke-opacity:0.2"
       d="m 394.54855,288.98476 c -28.98232,-1.23203 -57.14395,-11.87068 -80.37767,-30.36438 -2.68404,-2.13646 -21.61325,-20.56029 -42.06493,-40.94185 l -37.18485,-37.05738 10.3383,-10.33831 10.33831,-10.33831 37.46788,37.3614 c 20.60734,20.54878 39.01803,38.53001 40.91265,39.9583 22.12382,16.67846 48.17673,24.56349 73.9647,22.38574 15.23976,-1.28698 27.17719,-4.64125 40.55254,-11.39475 l 8.30389,-4.19283 10.35521,10.169 c 5.69536,5.59294 10.45144,10.22642 10.56906,10.2966 0.5062,0.30206 -9.40851,6.24756 -16.00232,9.59605 -11.89138,6.0387 -22.77387,9.83556 -35.30877,12.31909 -9.38645,1.85973 -22.77768,2.92788 -31.864,2.54163 z"
       id="path16-6-6-5" />
    <path
       style="fill:#1a1a1a;fill-opacity:0.807069;stroke:none;stroke-width:25.2616;stroke-linecap:round;stroke-linejoin:round;stroke-dasharray:none;stroke-dashoffset:0;stroke-opacity:0.2"
       d="m 222.59776,288.96841 c -22.67543,-0.91027 -47.62962,-8.61027 -66.54812,-20.53442 -11.94611,-7.52954 -15.21794,-10.50918 -54.18337,-49.34446 l -38.057308,-37.93021 3.089704,-3.72599 c 4.516621,-5.44678 15.97341,-17.28958 16.53936,-17.09661 0.267322,0.0911 16.702924,16.32966 36.523554,36.08561 36.17327,36.05519 40.53205,40.11401 49.53656,46.12756 16.1331,10.77428 38.76708,17.56343 58.55382,17.56343 17.42027,0 38.40657,-5.57332 52.84051,-14.03281 l 3.54484,-2.07758 10.41731,10.18031 c 5.72952,5.59917 10.48447,10.32974 10.56655,10.51237 0.28039,0.62383 -10.4716,6.99756 -17.96006,10.64664 -19.45362,9.47961 -43.31061,14.49135 -64.86335,13.62616 z"
       id="path17-6-4-84" />
    <path
       style="fill:#1a1a1a;fill-opacity:0.807069;stroke:none;stroke-width:25.2616;stroke-linecap:round;stroke-linejoin:round;stroke-dasharray:none;stroke-dashoffset:0;stroke-opacity:0.2"
       d="M 164.03517,109.65372 C 144.14264,89.739053 125.92926,71.866551 123.56098,69.937051 104.59572,54.485495 80.250603,45.926785 55.406126,45.976693 c -7.400248,0.01487 -17.936506,1.310503 -18.535234,2.279267 -0.751271,1.21558 -1.725501,11.87609 -1.720632,18.828005 0.01282,18.30847 4.853255,37.041115 13.383417,51.794315 l 2.489659,4.30594 -6.939585,7.17658 c -3.81677,3.94712 -8.459834,8.81106 -10.317919,10.80876 -1.858084,1.9977 -3.534967,3.40598 -3.726408,3.12952 C 8.3200821,112.934 0.71712487,71.631317 9.8887432,34.83154 12.089594,26.000948 15.308409,22.825279 24.152329,20.759141 66.972103,10.755488 110.46372,21.018395 143.94246,49.02654 c 1.89462,1.585027 20.04423,19.432969 40.33248,39.662097 l 36.88771,36.780223 -10.18487,10.19668 c -5.60167,5.60816 -10.31749,10.19667 -10.47961,10.19667 -0.16211,0 -16.57046,-16.29383 -36.463,-36.20849 z"
       id="path18-2-8-7" />
    <path
       style="fill:#1a1a1a;fill-opacity:0.807069;stroke:none;stroke-width:25.2616;stroke-linecap:round;stroke-linejoin:round;stroke-dasharray:none;stroke-dashoffset:0;stroke-opacity:0.2"
       d="m 38.303244,287.96319 c -3.157694,-0.44288 -8.81717,-1.5179 -12.576611,-2.38894 C 14.747744,283.0305 12.155972,280.51667 9.6681517,269.99864 7.0592601,258.96874 6.2322806,251.55211 6.2292774,239.15771 6.2262638,226.87426 7.0482429,219.26972 9.6013394,207.95965 13.75487,189.55976 23.921992,168.69798 36.087566,153.61291 c 3.874852,-4.80474 77.025074,-78.368224 77.927984,-78.368224 0.97132,0 8.094,6.23355 14.56834,12.749777 l 6.4582,6.499996 -33.64166,33.578111 c -18.50291,18.46796 -35.964574,36.16167 -38.803691,39.31937 -17.693071,19.67839 -27.451189,45.02334 -27.451189,71.29954 0,6.96507 0.956143,17.88554 1.66662,19.03512 1.055431,1.70772 18.444272,2.84861 28.475004,1.86827 14.786093,-1.44511 26.191906,-4.73787 39.306706,-11.34748 l 8.30389,-4.185 10.35521,10.169 c 5.69536,5.59294 10.45145,10.22642 10.56906,10.2966 0.57472,0.34294 -9.75831,6.45192 -17.15057,10.13957 -12.59859,6.28485 -23.136697,9.77763 -37.753793,12.51323 -8.201301,1.53489 -31.982884,1.99301 -40.614433,0.7824 z"
       id="path19-2-6-3" />
  </g>
  <g
     id="g19-7-6-9-5"
     transform="matrix(0.46148142,0,0,0.46148142,-2.8019318,152.12162)">
    <path
       style="fill:#1a1a1a;fill-opacity:0.807069;stroke:none;stroke-width:25.2616;stroke-linecap:round;stroke-linejoin:round;stroke-dasharray:none;stroke-dashoffset:0;stroke-opacity:0.2"
       d="M 507.93677,109.65372 C 488.04424,89.739053 469.83084,71.86837 467.46258,69.941097 435.09316,43.5992 389.56191,38.559738 352.47704,57.214338 c -3.54318,1.782305 -6.94878,3.595061 -7.56798,4.028344 -1.03918,0.727162 -1.67983,0.245405 -8.32483,-6.260044 -3.95945,-3.876307 -8.82605,-8.522402 -10.81465,-10.324654 l -3.61567,-3.276822 4.76392,-3.086333 c 16.5245,-10.705521 36.33173,-17.789395 57.29645,-20.491546 6.81432,-0.878301 25.08617,-0.886978 31.57694,-0.01499 26.50401,3.560603 49.4808,13.219277 69.75633,29.323222 2.52616,2.006412 21.4527,20.455772 42.05897,40.998574 l 37.46595,37.350551 -10.18897,10.20078 c -5.60395,5.61044 -10.32163,10.20079 -10.48374,10.20079 -0.16211,0 -16.57046,-16.29383 -36.46299,-36.20849 z"
       id="path7-3-9-1-7" />
    <path
       style="fill:#1a1a1a;fill-opacity:0.807069;stroke:none;stroke-width:25.2616;stroke-linecap:round;stroke-linejoin:round;stroke-dasharray:none;stroke-dashoffset:0;stroke-opacity:0.2"
       d="m 166.33338,228.01056 c -2.21038,-1.85368 -6.9878,-6.37109 -10.61649,-10.03869 l -6.59761,-6.66835 68.33073,-68.33073 68.33072,-68.330727 3.71727,3.066562 c 5.32949,4.396566 17.20924,15.918934 17.20924,16.691536 0,0.359528 -30.67987,31.327269 -68.17748,68.817209 l -68.1775,68.16352 z"
       id="path8-9-1-0-8" />
    <path
       style="fill:#1a1a1a;fill-opacity:0.807069;stroke:none;stroke-width:25.2616;stroke-linecap:round;stroke-linejoin:round;stroke-dasharray:none;stroke-dashoffset:0;stroke-opacity:0.2"
       d="M 335.41355,108.89195 C 305.94266,79.487065 297.09976,70.997281 292.09979,67.307788 266.99046,48.779508 236.62861,42.066962 206.08534,48.291286 195.86283,50.3745 182.33085,55.541831 174.53306,60.339863 l -2.85992,1.759722 -10.42058,-10.214126 c -5.73132,-5.61777 -10.48404,-10.346237 -10.56159,-10.507704 -0.30793,-0.64109 9.77199,-6.647609 17.36479,-10.347512 20.14461,-9.816264 37.58108,-13.837934 59.9962,-13.837934 13.27066,0 21.99349,1.048043 33.93773,4.077604 17.64783,4.476227 36.03692,13.595221 50.74411,25.163575 3.73316,2.936424 25.60378,24.445978 64.15668,63.097512 l 15.92831,15.96907 -10.18705,10.17004 -10.18705,10.17003 z"
       id="path9-9-2-6-5" />
    <path
       style="fill:#1a1a1a;fill-opacity:0.807069;stroke:none;stroke-width:25.2616;stroke-linecap:round;stroke-linejoin:round;stroke-dasharray:none;stroke-dashoffset:0;stroke-opacity:0.2"
       d="m 566.49934,288.96841 c -29.35927,-1.17858 -59.48781,-12.82831 -81.81298,-31.63447 -2.99981,-2.52696 -21.72891,-20.89015 -41.62021,-40.80709 l -36.16603,-36.21262 10.03866,-10.05097 c 5.52127,-5.52804 10.22554,-9.98569 10.45394,-9.90591 0.2284,0.0798 17.02367,16.68672 37.32283,36.90428 37.64749,37.49619 41.68951,41.17025 52.40365,47.63322 15.60447,9.4129 36.52279,15.21847 54.83434,15.21847 17.42029,0 38.40659,-5.57332 52.84052,-14.03281 l 3.54484,-2.07758 10.41731,10.18031 c 5.72952,5.59917 10.48447,10.32974 10.56655,10.51237 0.28039,0.62383 -10.4716,6.99756 -17.96006,10.64664 -19.45362,9.47961 -43.3106,14.49135 -64.86336,13.62616 z"
       id="path10-1-5-9-9" />
    <path
       style="fill:#1a1a1a;fill-opacity:0.807069;stroke:none;stroke-width:25.2616;stroke-linecap:round;stroke-linejoin:round;stroke-dasharray:none;stroke-dashoffset:0;stroke-opacity:0.2"
       d="m 335.98768,226.00997 c -2.99981,-2.64575 -7.58421,-6.97437 -10.18755,-9.61917 l -4.73336,-4.80872 68.02464,-68.02311 c 37.41354,-37.41273 68.29406,-68.112944 68.62338,-68.222716 0.91725,-0.305749 5.25903,3.396071 13.63645,11.626482 l 7.62047,7.486757 -68.18988,68.191697 c -37.50445,37.50543 -68.44866,68.18889 -68.76492,68.18546 -0.31627,-0.003 -3.02942,-2.17094 -6.02923,-4.81668 z"
       id="path11-0-6-0-1" />
    <path
       style="fill:#1a1a1a;fill-opacity:0.807069;stroke:none;stroke-width:25.2616;stroke-linecap:round;stroke-linejoin:round;stroke-dasharray:none;stroke-dashoffset:0;stroke-opacity:0.2"
       d="m 510.23498,228.01056 c -2.21038,-1.85368 -6.98781,-6.37109 -10.6165,-10.03869 l -6.5976,-6.66835 68.33072,-68.33073 68.33073,-68.330727 3.71727,3.082503 c 5.49382,4.555688 17.20923,15.90164 17.20923,16.666518 0,0.36452 -30.67987,31.336346 -68.17748,68.826286 l -68.17749,68.16352 z"
       id="path12-2-0-9-3" />
    <path
       style="fill:#1a1a1a;fill-opacity:0.807069;stroke:none;stroke-width:25.2616;stroke-linecap:round;stroke-linejoin:round;stroke-dasharray:none;stroke-dashoffset:0;stroke-opacity:0.2"
       d="M 678.74101,108.37815 C 639.13321,68.928927 636.85675,66.887462 624.7381,59.950091 598.74351,45.069362 566.73617,41.940175 538.19506,51.489238 c -6.63755,2.220742 -15.26726,6.085959 -19.76041,8.850625 l -2.85991,1.759722 -10.42059,-10.214126 c -5.73131,-5.61777 -10.48403,-10.346237 -10.56158,-10.507704 -0.30793,-0.64109 9.77197,-6.647609 17.36479,-10.347512 20.14459,-9.816264 37.58108,-13.837934 59.99618,-13.837934 13.27068,0 21.9935,1.048043 33.93775,4.077604 17.64782,4.476227 36.0369,13.595221 50.7441,25.163575 3.73263,2.936005 26.11664,24.950568 63.85446,62.800572 l 15.6261,15.67254 -3.36454,4.01888 c -1.8505,2.21039 -6.29868,6.91879 -9.88484,10.46313 l -6.52029,6.44423 z"
       id="path13-4-5-2-7" />
    <path
       style="fill:#1a1a1a;fill-opacity:0.807069;stroke:none;stroke-width:25.2616;stroke-linecap:round;stroke-linejoin:round;stroke-dasharray:none;stroke-dashoffset:0;stroke-opacity:0.2"
       d="m 680.46339,226.57489 c -2.68403,-2.32695 -7.2643,-6.6483 -10.17837,-9.60302 l -5.2983,-5.37221 36.63181,-36.74408 c 20.4457,-20.50834 38.30419,-38.91031 40.41664,-41.64661 14.30402,-18.52815 21.77207,-38.973878 22.64842,-62.00589 0.32825,-8.626921 -0.51861,-21.279935 -1.53423,-22.923245 -0.61284,-0.991609 -11.05495,-2.288085 -18.54999,-2.303142 -11.99194,-0.02409 -23.32853,1.828381 -34.93289,5.708253 -6.05906,2.025821 -17.74578,7.381495 -20.85526,9.557344 -1.03792,0.726283 -1.66177,0.262947 -8.03777,-5.969731 -3.80188,-3.71642 -8.63946,-8.339869 -10.75019,-10.274333 -4.53073,-4.152388 -4.90176,-3.419842 4.60902,-9.09966 29.9481,-17.884945 66.98338,-23.410976 101.32929,-15.119332 6.63144,1.600932 9.86508,3.745309 12.00526,7.961229 1.68489,3.319042 3.84979,12.610681 5.08319,21.816796 0.95064,7.095664 0.95644,25.771589 0.0104,32.725193 -3.4307,25.209638 -11.91382,46.061778 -26.96773,66.288688 -3.17039,4.25982 -14.11357,15.6158 -41.93121,43.51295 -20.70266,20.76184 -37.90593,37.74267 -38.22948,37.7352 -0.32356,-0.007 -2.78431,-1.91746 -5.46836,-4.2444 z"
       id="path14-5-2-4-6" />
    <path
       style="fill:#1a1a1a;fill-opacity:0.807069;stroke:none;stroke-width:25.2616;stroke-linecap:round;stroke-linejoin:round;stroke-dasharray:none;stroke-dashoffset:0;stroke-opacity:0.2"
       d="m 738.45014,288.98123 c -28.9177,-1.19704 -57.12414,-11.85139 -80.37767,-30.36085 -2.68403,-2.13646 -21.61326,-20.56029 -42.06492,-40.94185 l -37.18487,-37.05738 10.34037,-10.34036 10.34036,-10.34036 37.46583,37.36718 c 20.60621,20.55195 39.01597,38.53411 40.91058,39.96035 17.38589,13.08785 35.60083,20.2422 56.8385,22.32469 10.02542,0.98305 27.41862,-0.15677 28.47501,-1.86605 0.71048,-1.14958 1.66661,-12.07005 1.66661,-19.03512 0,-17.05202 -3.79895,-32.65235 -11.78595,-48.39883 l -4.10959,-8.10211 10.32531,-10.41238 c 9.36815,-9.44717 10.39708,-10.31935 11.09957,-9.40875 2.05644,2.66568 7.5155,12.32632 10.53536,18.64394 5.85871,12.25661 10.09788,26.84802 12.13861,41.78177 1.07935,7.89849 0.9274,26.3425 -0.28379,34.44757 -2.35004,15.72613 -4.70705,22.14736 -9.25036,25.20088 -5.45045,3.66319 -29.66914,7.17556 -45.07896,6.53766 z"
       id="path15-9-1-1-1" />
    <path
       style="fill:#1a1a1a;fill-opacity:0.807069;stroke:none;stroke-width:25.2616;stroke-linecap:round;stroke-linejoin:round;stroke-dasharray:none;stroke-dashoffset:0;stroke-opacity:0.2"
       d="m 394.54855,288.98476 c -28.98232,-1.23203 -57.14395,-11.87068 -80.37767,-30.36438 -2.68404,-2.13646 -21.61325,-20.56029 -42.06493,-40.94185 l -37.18485,-37.05738 10.3383,-10.33831 10.33831,-10.33831 37.46788,37.3614 c 20.60734,20.54878 39.01803,38.53001 40.91265,39.9583 22.12382,16.67846 48.17673,24.56349 73.9647,22.38574 15.23976,-1.28698 27.17719,-4.64125 40.55254,-11.39475 l 8.30389,-4.19283 10.35521,10.169 c 5.69536,5.59294 10.45144,10.22642 10.56906,10.2966 0.5062,0.30206 -9.40851,6.24756 -16.00232,9.59605 -11.89138,6.0387 -22.77387,9.83556 -35.30877,12.31909 -9.38645,1.85973 -22.77768,2.92788 -31.864,2.54163 z"
       id="path16-6-6-3-8" />
    <path
       style="fill:#1a1a1a;fill-opacity:0.807069;stroke:none;stroke-width:25.2616;stroke-linecap:round;stroke-linejoin:round;stroke-dasharray:none;stroke-dashoffset:0;stroke-opacity:0.2"
       d="m 222.59776,288.96841 c -22.67543,-0.91027 -47.62962,-8.61027 -66.54812,-20.53442 -11.94611,-7.52954 -15.21794,-10.50918 -54.18337,-49.34446 l -38.057308,-37.93021 3.089704,-3.72599 c 4.516621,-5.44678 15.97341,-17.28958 16.53936,-17.09661 0.267322,0.0911 16.702924,16.32966 36.523554,36.08561 36.17327,36.05519 40.53205,40.11401 49.53656,46.12756 16.1331,10.77428 38.76708,17.56343 58.55382,17.56343 17.42027,0 38.40657,-5.57332 52.84051,-14.03281 l 3.54484,-2.07758 10.41731,10.18031 c 5.72952,5.59917 10.48447,10.32974 10.56655,10.51237 0.28039,0.62383 -10.4716,6.99756 -17.96006,10.64664 -19.45362,9.47961 -43.31061,14.49135 -64.86335,13.62616 z"
       id="path17-6-4-8-9" />
    <path
       style="fill:#1a1a1a;fill-opacity:0.807069;stroke:none;stroke-width:25.2616;stroke-linecap:round;stroke-linejoin:round;stroke-dasharray:none;stroke-dashoffset:0;stroke-opacity:0.2"
       d="M 164.03517,109.65372 C 144.14264,89.739053 125.92926,71.866551 123.56098,69.937051 104.59572,54.485495 80.250603,45.926785 55.406126,45.976693 c -7.400248,0.01487 -17.936506,1.310503 -18.535234,2.279267 -0.751271,1.21558 -1.725501,11.87609 -1.720632,18.828005 0.01282,18.30847 4.853255,37.041115 13.383417,51.794315 l 2.489659,4.30594 -6.939585,7.17658 c -3.81677,3.94712 -8.459834,8.81106 -10.317919,10.80876 -1.858084,1.9977 -3.534967,3.40598 -3.726408,3.12952 C 8.3200821,112.934 0.71712487,71.631317 9.8887432,34.83154 12.089594,26.000948 15.308409,22.825279 24.152329,20.759141 66.972103,10.755488 110.46372,21.018395 143.94246,49.02654 c 1.89462,1.585027 20.04423,19.432969 40.33248,39.662097 l 36.88771,36.780223 -10.18487,10.19668 c -5.60167,5.60816 -10.31749,10.19667 -10.47961,10.19667 -0.16211,0 -16.57046,-16.29383 -36.463,-36.20849 z"
       id="path18-2-8-6-2" />
    <path
       style="fill:#1a1a1a;fill-opacity:0.807069;stroke:none;stroke-width:25.2616;stroke-linecap:round;stroke-linejoin:round;stroke-dasharray:none;stroke-dashoffset:0;stroke-opacity:0.2"
       d="m 38.303244,287.96319 c -3.157694,-0.44288 -8.81717,-1.5179 -12.576611,-2.38894 C 14.747744,283.0305 12.155972,280.51667 9.6681517,269.99864 7.0592601,258.96874 6.2322806,251.55211 6.2292774,239.15771 6.2262638,226.87426 7.0482429,219.26972 9.6013394,207.95965 13.75487,189.55976 23.921992,168.69798 36.087566,153.61291 c 3.874852,-4.80474 77.025074,-78.368224 77.927984,-78.368224 0.97132,0 8.094,6.23355 14.56834,12.749777 l 6.4582,6.499996 -33.64166,33.578111 c -18.50291,18.46796 -35.964574,36.16167 -38.803691,39.31937 -17.693071,19.67839 -27.451189,45.02334 -27.451189,71.29954 0,6.96507 0.956143,17.88554 1.66662,19.03512 1.055431,1.70772 18.444272,2.84861 28.475004,1.86827 14.786093,-1.44511 26.191906,-4.73787 39.306706,-11.34748 l 8.30389,-4.185 10.35521,10.169 c 5.69536,5.59294 10.45145,10.22642 10.56906,10.2966 0.57472,0.34294 -9.75831,6.45192 -17.15057,10.13957 -12.59859,6.28485 -23.136697,9.77763 -37.753793,12.51323 -8.201301,1.53489 -31.982884,1.99301 -40.614433,0.7824 z"
       id="path19-2-6-0-9" />
  </g>
  <g
     id="g19-7-6-2-0"
     transform="matrix(0.46148142,0,0,0.46148142,433.68156,5.8010414)">
    <path
       style="fill:#1a1a1a;fill-opacity:0.807069;stroke:none;stroke-width:25.2616;stroke-linecap:round;stroke-linejoin:round;stroke-dasharray:none;stroke-dashoffset:0;stroke-opacity:0.2"
       d="M 507.93677,109.65372 C 488.04424,89.739053 469.83084,71.86837 467.46258,69.941097 435.09316,43.5992 389.56191,38.559738 352.47704,57.214338 c -3.54318,1.782305 -6.94878,3.595061 -7.56798,4.028344 -1.03918,0.727162 -1.67983,0.245405 -8.32483,-6.260044 -3.95945,-3.876307 -8.82605,-8.522402 -10.81465,-10.324654 l -3.61567,-3.276822 4.76392,-3.086333 c 16.5245,-10.705521 36.33173,-17.789395 57.29645,-20.491546 6.81432,-0.878301 25.08617,-0.886978 31.57694,-0.01499 26.50401,3.560603 49.4808,13.219277 69.75633,29.323222 2.52616,2.006412 21.4527,20.455772 42.05897,40.998574 l 37.46595,37.350551 -10.18897,10.20078 c -5.60395,5.61044 -10.32163,10.20079 -10.48374,10.20079 -0.16211,0 -16.57046,-16.29383 -36.46299,-36.20849 z"
       id="path7-3-9-7-8" />
    <path
       style="fill:#1a1a1a;fill-opacity:0.807069;stroke:none;stroke-width:25.2616;stroke-linecap:round;stroke-linejoin:round;stroke-dasharray:none;stroke-dashoffset:0;stroke-opacity:0.2"
       d="m 166.33338,228.01056 c -2.21038,-1.85368 -6.9878,-6.37109 -10.61649,-10.03869 l -6.59761,-6.66835 68.33073,-68.33073 68.33072,-68.330727 3.71727,3.066562 c 5.32949,4.396566 17.20924,15.918934 17.20924,16.691536 0,0.359528 -30.67987,31.327269 -68.17748,68.817209 l -68.1775,68.16352 z"
       id="path8-9-1-03-2" />
    <path
       style="fill:#1a1a1a;fill-opacity:0.807069;stroke:none;stroke-width:25.2616;stroke-linecap:round;stroke-linejoin:round;stroke-dasharray:none;stroke-dashoffset:0;stroke-opacity:0.2"
       d="M 335.41355,108.89195 C 305.94266,79.487065 297.09976,70.997281 292.09979,67.307788 266.99046,48.779508 236.62861,42.066962 206.08534,48.291286 195.86283,50.3745 182.33085,55.541831 174.53306,60.339863 l -2.85992,1.759722 -10.42058,-10.214126 c -5.73132,-5.61777 -10.48404,-10.346237 -10.56159,-10.507704 -0.30793,-0.64109 9.77199,-6.647609 17.36479,-10.347512 20.14461,-9.816264 37.58108,-13.837934 59.9962,-13.837934 13.27066,0 21.99349,1.048043 33.93773,4.077604 17.64783,4.476227 36.03692,13.595221 50.74411,25.163575 3.73316,2.936424 25.60378,24.445978 64.15668,63.097512 l 15.92831,15.96907 -10.18705,10.17004 -10.18705,10.17003 z"
       id="path9-9-2-8-8" />
    <path
       style="fill:#1a1a1a;fill-opacity:0.807069;stroke:none;stroke-width:25.2616;stroke-linecap:round;stroke-linejoin:round;stroke-dasharray:none;stroke-dashoffset:0;stroke-opacity:0.2"
       d="m 566.49934,288.96841 c -29.35927,-1.17858 -59.48781,-12.82831 -81.81298,-31.63447 -2.99981,-2.52696 -21.72891,-20.89015 -41.62021,-40.80709 l -36.16603,-36.21262 10.03866,-10.05097 c 5.52127,-5.52804 10.22554,-9.98569 10.45394,-9.90591 0.2284,0.0798 17.02367,16.68672 37.32283,36.90428 37.64749,37.49619 41.68951,41.17025 52.40365,47.63322 15.60447,9.4129 36.52279,15.21847 54.83434,15.21847 17.42029,0 38.40659,-5.57332 52.84052,-14.03281 l 3.54484,-2.07758 10.41731,10.18031 c 5.72952,5.59917 10.48447,10.32974 10.56655,10.51237 0.28039,0.62383 -10.4716,6.99756 -17.96006,10.64664 -19.45362,9.47961 -43.3106,14.49135 -64.86336,13.62616 z"
       id="path10-1-5-4-9" />
    <path
       style="fill:#1a1a1a;fill-opacity:0.807069;stroke:none;stroke-width:25.2616;stroke-linecap:round;stroke-linejoin:round;stroke-dasharray:none;stroke-dashoffset:0;stroke-opacity:0.2"
       d="m 335.98768,226.00997 c -2.99981,-2.64575 -7.58421,-6.97437 -10.18755,-9.61917 l -4.73336,-4.80872 68.02464,-68.02311 c 37.41354,-37.41273 68.29406,-68.112944 68.62338,-68.222716 0.91725,-0.305749 5.25903,3.396071 13.63645,11.626482 l 7.62047,7.486757 -68.18988,68.191697 c -37.50445,37.50543 -68.44866,68.18889 -68.76492,68.18546 -0.31627,-0.003 -3.02942,-2.17094 -6.02923,-4.81668 z"
       id="path11-0-6-3-1" />
    <path
       style="fill:#1a1a1a;fill-opacity:0.807069;stroke:none;stroke-width:25.2616;stroke-linecap:round;stroke-linejoin:round;stroke-dasharray:none;stroke-dashoffset:0;stroke-opacity:0.2"
       d="m 510.23498,228.01056 c -2.21038,-1.85368 -6.98781,-6.37109 -10.6165,-10.03869 l -6.5976,-6.66835 68.33072,-68.33073 68.33073,-68.330727 3.71727,3.082503 c 5.49382,4.555688 17.20923,15.90164 17.20923,16.666518 0,0.36452 -30.67987,31.336346 -68.17748,68.826286 l -68.17749,68.16352 z"
       id="path12-2-0-90-3" />
    <path
       style="fill:#1a1a1a;fill-opacity:0.807069;stroke:none;stroke-width:25.2616;stroke-linecap:round;stroke-linejoin:round;stroke-dasharray:none;stroke-dashoffset:0;stroke-opacity:0.2"
       d="M 678.74101,108.37815 C 639.13321,68.928927 636.85675,66.887462 624.7381,59.950091 598.74351,45.069362 566.73617,41.940175 538.19506,51.489238 c -6.63755,2.220742 -15.26726,6.085959 -19.76041,8.850625 l -2.85991,1.759722 -10.42059,-10.214126 c -5.73131,-5.61777 -10.48403,-10.346237 -10.56158,-10.507704 -0.30793,-0.64109 9.77197,-6.647609 17.36479,-10.347512 20.14459,-9.816264 37.58108,-13.837934 59.99618,-13.837934 13.27068,0 21.9935,1.048043 33.93775,4.077604 17.64782,4.476227 36.0369,13.595221 50.7441,25.163575 3.73263,2.936005 26.11664,24.950568 63.85446,62.800572 l 15.6261,15.67254 -3.36454,4.01888 c -1.8505,2.21039 -6.29868,6.91879 -9.88484,10.46313 l -6.52029,6.44423 z"
       id="path13-4-5-20-3" />
    <path
       style="fill:#1a1a1a;fill-opacity:0.807069;stroke:none;stroke-width:25.2616;stroke-linecap:round;stroke-linejoin:round;stroke-dasharray:none;stroke-dashoffset:0;stroke-opacity:0.2"
       d="m 680.46339,226.57489 c -2.68403,-2.32695 -7.2643,-6.6483 -10.17837,-9.60302 l -5.2983,-5.37221 36.63181,-36.74408 c 20.4457,-20.50834 38.30419,-38.91031 40.41664,-41.64661 14.30402,-18.52815 21.77207,-38.973878 22.64842,-62.00589 0.32825,-8.626921 -0.51861,-21.279935 -1.53423,-22.923245 -0.61284,-0.991609 -11.05495,-2.288085 -18.54999,-2.303142 -11.99194,-0.02409 -23.32853,1.828381 -34.93289,5.708253 -6.05906,2.025821 -17.74578,7.381495 -20.85526,9.557344 -1.03792,0.726283 -1.66177,0.262947 -8.03777,-5.969731 -3.80188,-3.71642 -8.63946,-8.339869 -10.75019,-10.274333 -4.53073,-4.152388 -4.90176,-3.419842 4.60902,-9.09966 29.9481,-17.884945 66.98338,-23.410976 101.32929,-15.119332 6.63144,1.600932 9.86508,3.745309 12.00526,7.961229 1.68489,3.319042 3.84979,12.610681 5.08319,21.816796 0.95064,7.095664 0.95644,25.771589 0.0104,32.725193 -3.4307,25.209638 -11.91382,46.061778 -26.96773,66.288688 -3.17039,4.25982 -14.11357,15.6158 -41.93121,43.51295 -20.70266,20.76184 -37.90593,37.74267 -38.22948,37.7352 -0.32356,-0.007 -2.78431,-1.91746 -5.46836,-4.2444 z"
       id="path14-5-2-3-6" />
    <path
       style="fill:#1a1a1a;fill-opacity:0.807069;stroke:none;stroke-width:25.2616;stroke-linecap:round;stroke-linejoin:round;stroke-dasharray:none;stroke-dashoffset:0;stroke-opacity:0.2"
       d="m 738.45014,288.98123 c -28.9177,-1.19704 -57.12414,-11.85139 -80.37767,-30.36085 -2.68403,-2.13646 -21.61326,-20.56029 -42.06492,-40.94185 l -37.18487,-37.05738 10.34037,-10.34036 10.34036,-10.34036 37.46583,37.36718 c 20.60621,20.55195 39.01597,38.53411 40.91058,39.96035 17.38589,13.08785 35.60083,20.2422 56.8385,22.32469 10.02542,0.98305 27.41862,-0.15677 28.47501,-1.86605 0.71048,-1.14958 1.66661,-12.07005 1.66661,-19.03512 0,-17.05202 -3.79895,-32.65235 -11.78595,-48.39883 l -4.10959,-8.10211 10.32531,-10.41238 c 9.36815,-9.44717 10.39708,-10.31935 11.09957,-9.40875 2.05644,2.66568 7.5155,12.32632 10.53536,18.64394 5.85871,12.25661 10.09788,26.84802 12.13861,41.78177 1.07935,7.89849 0.9274,26.3425 -0.28379,34.44757 -2.35004,15.72613 -4.70705,22.14736 -9.25036,25.20088 -5.45045,3.66319 -29.66914,7.17556 -45.07896,6.53766 z"
       id="path15-9-1-19-8" />
    <path
       style="fill:#1a1a1a;fill-opacity:0.807069;stroke:none;stroke-width:25.2616;stroke-linecap:round;stroke-linejoin:round;stroke-dasharray:none;stroke-dashoffset:0;stroke-opacity:0.2"
       d="m 394.54855,288.98476 c -28.98232,-1.23203 -57.14395,-11.87068 -80.37767,-30.36438 -2.68404,-2.13646 -21.61325,-20.56029 -42.06493,-40.94185 l -37.18485,-37.05738 10.3383,-10.33831 10.33831,-10.33831 37.46788,37.3614 c 20.60734,20.54878 39.01803,38.53001 40.91265,39.9583 22.12382,16.67846 48.17673,24.56349 73.9647,22.38574 15.23976,-1.28698 27.17719,-4.64125 40.55254,-11.39475 l 8.30389,-4.19283 10.35521,10.169 c 5.69536,5.59294 10.45144,10.22642 10.56906,10.2966 0.5062,0.30206 -9.40851,6.24756 -16.00232,9.59605 -11.89138,6.0387 -22.77387,9.83556 -35.30877,12.31909 -9.38645,1.85973 -22.77768,2.92788 -31.864,2.54163 z"
       id="path16-6-6-5-7" />
    <path
       style="fill:#1a1a1a;fill-opacity:0.807069;stroke:none;stroke-width:25.2616;stroke-linecap:round;stroke-linejoin:round;stroke-dasharray:none;stroke-dashoffset:0;stroke-opacity:0.2"
       d="m 222.59776,288.96841 c -22.67543,-0.91027 -47.62962,-8.61027 -66.54812,-20.53442 -11.94611,-7.52954 -15.21794,-10.50918 -54.18337,-49.34446 l -38.057308,-37.93021 3.089704,-3.72599 c 4.516621,-5.44678 15.97341,-17.28958 16.53936,-17.09661 0.267322,0.0911 16.702924,16.32966 36.523554,36.08561 36.17327,36.05519 40.53205,40.11401 49.53656,46.12756 16.1331,10.77428 38.76708,17.56343 58.55382,17.56343 17.42027,0 38.40657,-5.57332 52.84051,-14.03281 l 3.54484,-2.07758 10.41731,10.18031 c 5.72952,5.59917 10.48447,10.32974 10.56655,10.51237 0.28039,0.62383 -10.4716,6.99756 -17.96006,10.64664 -19.45362,9.47961 -43.31061,14.49135 -64.86335,13.62616 z"
       id="path17-6-4-84-6" />
    <path
       style="fill:#1a1a1a;fill-opacity:0.807069;stroke:none;stroke-width:25.2616;stroke-linecap:round;stroke-linejoin:round;stroke-dasharray:none;stroke-dashoffset:0;stroke-opacity:0.2"
       d="M 164.03517,109.65372 C 144.14264,89.739053 125.92926,71.866551 123.56098,69.937051 104.59572,54.485495 80.250603,45.926785 55.406126,45.976693 c -7.400248,0.01487 -17.936506,1.310503 -18.535234,2.279267 -0.751271,1.21558 -1.725501,11.87609 -1.720632,18.828005 0.01282,18.30847 4.853255,37.041115 13.383417,51.794315 l 2.489659,4.30594 -6.939585,7.17658 c -3.81677,3.94712 -8.459834,8.81106 -10.317919,10.80876 -1.858084,1.9977 -3.534967,3.40598 -3.726408,3.12952 C 8.3200821,112.934 0.71712487,71.631317 9.8887432,34.83154 12.089594,26.000948 15.308409,22.825279 24.152329,20.759141 66.972103,10.755488 110.46372,21.018395 143.94246,49.02654 c 1.89462,1.585027 20.04423,19.432969 40.33248,39.662097 l 36.88771,36.780223 -10.18487,10.19668 c -5.60167,5.60816 -10.31749,10.19667 -10.47961,10.19667 -0.16211,0 -16.57046,-16.29383 -36.463,-36.20849 z"
       id="path18-2-8-7-4" />
    <path
       style="fill:#1a1a1a;fill-opacity:0.807069;stroke:none;stroke-width:25.2616;stroke-linecap:round;stroke-linejoin:round;stroke-dasharray:none;stroke-dashoffset:0;stroke-opacity:0.2"
       d="m 38.303244,287.96319 c -3.157694,-0.44288 -8.81717,-1.5179 -12.576611,-2.38894 C 14.747744,283.0305 12.155972,280.51667 9.6681517,269.99864 7.0592601,258.96874 6.2322806,251.55211 6.2292774,239.15771 6.2262638,226.87426 7.0482429,219.26972 9.6013394,207.95965 13.75487,189.55976 23.921992,168.69798 36.087566,153.61291 c 3.874852,-4.80474 77.025074,-78.368224 77.927984,-78.368224 0.97132,0 8.094,6.23355 14.56834,12.749777 l 6.4582,6.499996 -33.64166,33.578111 c -18.50291,18.46796 -35.964574,36.16167 -38.803691,39.31937 -17.693071,19.67839 -27.451189,45.02334 -27.451189,71.29954 0,6.96507 0.956143,17.88554 1.66662,19.03512 1.055431,1.70772 18.444272,2.84861 28.475004,1.86827 14.786093,-1.44511 26.191906,-4.73787 39.306706,-11.34748 l 8.30389,-4.185 10.35521,10.169 c 5.69536,5.59294 10.45145,10.22642 10.56906,10.2966 0.57472,0.34294 -9.75831,6.45192 -17.15057,10.13957 -12.59859,6.28485 -23.136697,9.77763 -37.753793,12.51323 -8.201301,1.53489 -31.982884,1.99301 -40.614433,0.7824 z"
       id="path19-2-6-3-7" />
  </g>
  <g
     id="g19-7-6-9-5-1"
     transform="matrix(0.46148142,0,0,0.46148142,-2.8019318,7.5114873)">
    <path
       style="fill:#1a1a1a;fill-opacity:0.807069;stroke:none;stroke-width:25.2616;stroke-linecap:round;stroke-linejoin:round;stroke-dasharray:none;stroke-dashoffset:0;stroke-opacity:0.2"
       d="M 507.93677,109.65372 C 488.04424,89.739053 469.83084,71.86837 467.46258,69.941097 435.09316,43.5992 389.56191,38.559738 352.47704,57.214338 c -3.54318,1.782305 -6.94878,3.595061 -7.56798,4.028344 -1.03918,0.727162 -1.67983,0.245405 -8.32483,-6.260044 -3.95945,-3.876307 -8.82605,-8.522402 -10.81465,-10.324654 l -3.61567,-3.276822 4.76392,-3.086333 c 16.5245,-10.705521 36.33173,-17.789395 57.29645,-20.491546 6.81432,-0.878301 25.08617,-0.886978 31.57694,-0.01499 26.50401,3.560603 49.4808,13.219277 69.75633,29.323222 2.52616,2.006412 21.4527,20.455772 42.05897,40.998574 l 37.46595,37.350551 -10.18897,10.20078 c -5.60395,5.61044 -10.32163,10.20079 -10.48374,10.20079 -0.16211,0 -16.57046,-16.29383 -36.46299,-36.20849 z"
       id="path7-3-9-1-7-3" />
    <path
       style="fill:#1a1a1a;fill-opacity:0.807069;stroke:none;stroke-width:25.2616;stroke-linecap:round;stroke-linejoin:round;stroke-dasharray:none;stroke-dashoffset:0;stroke-opacity:0.2"
       d="m 166.33338,228.01056 c -2.21038,-1.85368 -6.9878,-6.37109 -10.61649,-10.03869 l -6.59761,-6.66835 68.33073,-68.33073 68.33072,-68.330727 3.71727,3.066562 c 5.32949,4.396566 17.20924,15.918934 17.20924,16.691536 0,0.359528 -30.67987,31.327269 -68.17748,68.817209 l -68.1775,68.16352 z"
       id="path8-9-1-0-8-7" />
    <path
       style="fill:#1a1a1a;fill-opacity:0.807069;stroke:none;stroke-width:25.2616;stroke-linecap:round;stroke-linejoin:round;stroke-dasharray:none;stroke-dashoffset:0;stroke-opacity:0.2"
       d="M 335.41355,108.89195 C 305.94266,79.487065 297.09976,70.997281 292.09979,67.307788 266.99046,48.779508 236.62861,42.066962 206.08534,48.291286 195.86283,50.3745 182.33085,55.541831 174.53306,60.339863 l -2.85992,1.759722 -10.42058,-10.214126 c -5.73132,-5.61777 -10.48404,-10.346237 -10.56159,-10.507704 -0.30793,-0.64109 9.77199,-6.647609 17.36479,-10.347512 20.14461,-9.816264 37.58108,-13.837934 59.9962,-13.837934 13.27066,0 21.99349,1.048043 33.93773,4.077604 17.64783,4.476227 36.03692,13.595221 50.74411,25.163575 3.73316,2.936424 25.60378,24.445978 64.15668,63.097512 l 15.92831,15.96907 -10.18705,10.17004 -10.18705,10.17003 z"
       id="path9-9-2-6-5-8" />
    <path
       style="fill:#1a1a1a;fill-opacity:0.807069;stroke:none;stroke-width:25.2616;stroke-linecap:round;stroke-linejoin:round;stroke-dasharray:none;stroke-dashoffset:0;stroke-opacity:0.2"
       d="m 566.49934,288.96841 c -29.35927,-1.17858 -59.48781,-12.82831 -81.81298,-31.63447 -2.99981,-2.52696 -21.72891,-20.89015 -41.62021,-40.80709 l -36.16603,-36.21262 10.03866,-10.05097 c 5.52127,-5.52804 10.22554,-9.98569 10.45394,-9.90591 0.2284,0.0798 17.02367,16.68672 37.32283,36.90428 37.64749,37.49619 41.68951,41.17025 52.40365,47.63322 15.60447,9.4129 36.52279,15.21847 54.83434,15.21847 17.42029,0 38.40659,-5.57332 52.84052,-14.03281 l 3.54484,-2.07758 10.41731,10.18031 c 5.72952,5.59917 10.48447,10.32974 10.56655,10.51237 0.28039,0.62383 -10.4716,6.99756 -17.96006,10.64664 -19.45362,9.47961 -43.3106,14.49135 -64.86336,13.62616 z"
       id="path10-1-5-9-9-3" />
    <path
       style="fill:#1a1a1a;fill-opacity:0.807069;stroke:none;stroke-width:25.2616;stroke-linecap:round;stroke-linejoin:round;stroke-dasharray:none;stroke-dashoffset:0;stroke-opacity:0.2"
       d="m 335.98768,226.00997 c -2.99981,-2.64575 -7.58421,-6.97437 -10.18755,-9.61917 l -4.73336,-4.80872 68.02464,-68.02311 c 37.41354,-37.41273 68.29406,-68.112944 68.62338,-68.222716 0.91725,-0.305749 5.25903,3.396071 13.63645,11.626482 l 7.62047,7.486757 -68.18988,68.191697 c -37.50445,37.50543 -68.44866,68.18889 -68.76492,68.18546 -0.31627,-0.003 -3.02942,-2.17094 -6.02923,-4.81668 z"
       id="path11-0-6-0-1-5" />
    <path
       style="fill:#1a1a1a;fill-opacity:0.807069;stroke:none;stroke-width:25.2616;stroke-linecap:round;stroke-linejoin:round;stroke-dasharray:none;stroke-dashoffset:0;stroke-opacity:0.2"
       d="m 510.23498,228.01056 c -2.21038,-1.85368 -6.98781,-6.37109 -10.6165,-10.03869 l -6.5976,-6.66835 68.33072,-68.33073 68.33073,-68.330727 3.71727,3.082503 c 5.49382,4.555688 17.20923,15.90164 17.20923,16.666518 0,0.36452 -30.67987,31.336346 -68.17748,68.826286 l -68.17749,68.16352 z"
       id="path12-2-0-9-3-8" />
    <path
       style="fill:#1a1a1a;fill-opacity:0.807069;stroke:none;stroke-width:25.2616;stroke-linecap:round;stroke-linejoin:round;stroke-dasharray:none;stroke-dashoffset:0;stroke-opacity:0.2"
       d="M 678.74101,108.37815 C 639.13321,68.928927 636.85675,66.887462 624.7381,59.950091 598.74351,45.069362 566.73617,41.940175 538.19506,51.489238 c -6.63755,2.220742 -15.26726,6.085959 -19.76041,8.850625 l -2.85991,1.759722 -10.42059,-10.214126 c -5.73131,-5.61777 -10.48403,-10.346237 -10.56158,-10.507704 -0.30793,-0.64109 9.77197,-6.647609 17.36479,-10.347512 20.14459,-9.816264 37.58108,-13.837934 59.99618,-13.837934 13.27068,0 21.9935,1.048043 33.93775,4.077604 17.64782,4.476227 36.0369,13.595221 50.7441,25.163575 3.73263,2.936005 26.11664,24.950568 63.85446,62.800572 l 15.6261,15.67254 -3.36454,4.01888 c -1.8505,2.21039 -6.29868,6.91879 -9.88484,10.46313 l -6.52029,6.44423 z"
       id="path13-4-5-2-7-9" />
    <path
       style="fill:#1a1a1a;fill-opacity:0.807069;stroke:none;stroke-width:25.2616;stroke-linecap:round;stroke-linejoin:round;stroke-dasharray:none;stroke-dashoffset:0;stroke-opacity:0.2"
       d="m 680.46339,226.57489 c -2.68403,-2.32695 -7.2643,-6.6483 -10.17837,-9.60302 l -5.2983,-5.37221 36.63181,-36.74408 c 20.4457,-20.50834 38.30419,-38.91031 40.41664,-41.64661 14.30402,-18.52815 21.77207,-38.973878 22.64842,-62.00589 0.32825,-8.626921 -0.51861,-21.279935 -1.53423,-22.923245 -0.61284,-0.991609 -11.05495,-2.288085 -18.54999,-2.303142 -11.99194,-0.02409 -23.32853,1.828381 -34.93289,5.708253 -6.05906,2.025821 -17.74578,7.381495 -20.85526,9.557344 -1.03792,0.726283 -1.66177,0.262947 -8.03777,-5.969731 -3.80188,-3.71642 -8.63946,-8.339869 -10.75019,-10.274333 -4.53073,-4.152388 -4.90176,-3.419842 4.60902,-9.09966 29.9481,-17.884945 66.98338,-23.410976 101.32929,-15.119332 6.63144,1.600932 9.86508,3.745309 12.00526,7.961229 1.68489,3.319042 3.84979,12.610681 5.08319,21.816796 0.95064,7.095664 0.95644,25.771589 0.0104,32.725193 -3.4307,25.209638 -11.91382,46.061778 -26.96773,66.288688 -3.17039,4.25982 -14.11357,15.6158 -41.93121,43.51295 -20.70266,20.76184 -37.90593,37.74267 -38.22948,37.7352 -0.32356,-0.007 -2.78431,-1.91746 -5.46836,-4.2444 z"
       id="path14-5-2-4-6-0" />
    <path
       style="fill:#1a1a1a;fill-opacity:0.807069;stroke:none;stroke-width:25.2616;stroke-linecap:round;stroke-linejoin:round;stroke-dasharray:none;stroke-dashoffset:0;stroke-opacity:0.2"
       d="m 738.45014,288.98123 c -28.9177,-1.19704 -57.12414,-11.85139 -80.37767,-30.36085 -2.68403,-2.13646 -21.61326,-20.56029 -42.06492,-40.94185 l -37.18487,-37.05738 10.34037,-10.34036 10.34036,-10.34036 37.46583,37.36718 c 20.60621,20.55195 39.01597,38.53411 40.91058,39.96035 17.38589,13.08785 35.60083,20.2422 56.8385,22.32469 10.02542,0.98305 27.41862,-0.15677 28.47501,-1.86605 0.71048,-1.14958 1.66661,-12.07005 1.66661,-19.03512 0,-17.05202 -3.79895,-32.65235 -11.78595,-48.39883 l -4.10959,-8.10211 10.32531,-10.41238 c 9.36815,-9.44717 10.39708,-10.31935 11.09957,-9.40875 2.05644,2.66568 7.5155,12.32632 10.53536,18.64394 5.85871,12.25661 10.09788,26.84802 12.13861,41.78177 1.07935,7.89849 0.9274,26.3425 -0.28379,34.44757 -2.35004,15.72613 -4.70705,22.14736 -9.25036,25.20088 -5.45045,3.66319 -29.66914,7.17556 -45.07896,6.53766 z"
       id="path15-9-1-1-1-9" />
    <path
       style="fill:#1a1a1a;fill-opacity:0.807069;stroke:none;stroke-width:25.2616;stroke-linecap:round;stroke-linejoin:round;stroke-dasharray:none;stroke-dashoffset:0;stroke-opacity:0.2"
       d="m 394.54855,288.98476 c -28.98232,-1.23203 -57.14395,-11.87068 -80.37767,-30.36438 -2.68404,-2.13646 -21.61325,-20.56029 -42.06493,-40.94185 l -37.18485,-37.05738 10.3383,-10.33831 10.33831,-10.33831 37.46788,37.3614 c 20.60734,20.54878 39.01803,38.53001 40.91265,39.9583 22.12382,16.67846 48.17673,24.56349 73.9647,22.38574 15.23976,-1.28698 27.17719,-4.64125 40.55254,-11.39475 l 8.30389,-4.19283 10.35521,10.169 c 5.69536,5.59294 10.45144,10.22642 10.56906,10.2966 0.5062,0.30206 -9.40851,6.24756 -16.00232,9.59605 -11.89138,6.0387 -22.77387,9.83556 -35.30877,12.31909 -9.38645,1.85973 -22.77768,2.92788 -31.864,2.54163 z"
       id="path16-6-6-3-8-2" />
    <path
       style="fill:#1a1a1a;fill-opacity:0.807069;stroke:none;stroke-width:25.2616;stroke-linecap:round;stroke-linejoin:round;stroke-dasharray:none;stroke-dashoffset:0;stroke-opacity:0.2"
       d="m 222.59776,288.96841 c -22.67543,-0.91027 -47.62962,-8.61027 -66.54812,-20.53442 -11.94611,-7.52954 -15.21794,-10.50918 -54.18337,-49.34446 l -38.057308,-37.93021 3.089704,-3.72599 c 4.516621,-5.44678 15.97341,-17.28958 16.53936,-17.09661 0.267322,0.0911 16.702924,16.32966 36.523554,36.08561 36.17327,36.05519 40.53205,40.11401 49.53656,46.12756 16.1331,10.77428 38.76708,17.56343 58.55382,17.56343 17.42027,0 38.40657,-5.57332 52.84051,-14.03281 l 3.54484,-2.07758 10.41731,10.18031 c 5.72952,5.59917 10.48447,10.32974 10.56655,10.51237 0.28039,0.62383 -10.4716,6.99756 -17.96006,10.64664 -19.45362,9.47961 -43.31061,14.49135 -64.86335,13.62616 z"
       id="path17-6-4-8-9-7" />
    <path
       style="fill:#1a1a1a;fill-opacity:0.807069;stroke:none;stroke-width:25.2616;stroke-linecap:round;stroke-linejoin:round;stroke-dasharray:none;stroke-dashoffset:0;stroke-opacity:0.2"
       d="M 164.03517,109.65372 C 144.14264,89.739053 125.92926,71.866551 123.56098,69.937051 104.59572,54.485495 80.250603,45.926785 55.406126,45.976693 c -7.400248,0.01487 -17.936506,1.310503 -18.535234,2.279267 -0.751271,1.21558 -1.725501,11.87609 -1.720632,18.828005 0.01282,18.30847 4.853255,37.041115 13.383417,51.794315 l 2.489659,4.30594 -6.939585,7.17658 c -3.81677,3.94712 -8.459834,8.81106 -10.317919,10.80876 -1.858084,1.9977 -3.534967,3.40598 -3.726408,3.12952 C 8.3200821,112.934 0.71712487,71.631317 9.8887432,34.83154 12.089594,26.000948 15.308409,22.825279 24.152329,20.759141 66.972103,10.755488 110.46372,21.018395 143.94246,49.02654 c 1.89462,1.585027 20.04423,19.432969 40.33248,39.662097 l 36.88771,36.780223 -10.18487,10.19668 c -5.60167,5.60816 -10.31749,10.19667 -10.47961,10.19667 -0.16211,0 -16.57046,-16.29383 -36.463,-36.20849 z"
       id="path18-2-8-6-2-5" />
    <path
       style="fill:#1a1a1a;fill-opacity:0.807069;stroke:none;stroke-width:25.2616;stroke-linecap:round;stroke-linejoin:round;stroke-dasharray:none;stroke-dashoffset:0;stroke-opacity:0.2"
       d="m 38.303244,287.96319 c -3.157694,-0.44288 -8.81717,-1.5179 -12.576611,-2.38894 C 14.747744,283.0305 12.155972,280.51667 9.6681517,269.99864 7.0592601,258.96874 6.2322806,251.55211 6.2292774,239.15771 6.2262638,226.87426 7.0482429,219.26972 9.6013394,207.95965 13.75487,189.55976 23.921992,168.69798 36.087566,153.61291 c 3.874852,-4.80474 77.025074,-78.368224 77.927984,-78.368224 0.97132,0 8.094,6.23355 14.56834,12.749777 l 6.4582,6.499996 -33.64166,33.578111 c -18.50291,18.46796 -35.964574,36.16167 -38.803691,39.31937 -17.693071,19.67839 -27.451189,45.02334 -27.451189,71.29954 0,6.96507 0.956143,17.88554 1.66662,19.03512 1.055431,1.70772 18.444272,2.84861 28.475004,1.86827 14.786093,-1.44511 26.191906,-4.73787 39.306706,-11.34748 l 8.30389,-4.185 10.35521,10.169 c 5.69536,5.59294 10.45145,10.22642 10.56906,10.2966 0.57472,0.34294 -9.75831,6.45192 -17.15057,10.13957 -12.59859,6.28485 -23.136697,9.77763 -37.753793,12.51323 -8.201301,1.53489 -31.982884,1.99301 -40.614433,0.7824 z"
       id="path19-2-6-0-9-8" />
  </g>
  <rect
     style="fill:#1a1a1a;fill-opacity:0.807069;stroke:none;stroke-width:25.1714;stroke-linecap:round;stroke-linejoin:round;stroke-dasharray:none;stroke-dashoffset:0;stroke-opacity:0.2"
     id="rect19"
     width="14.064001"
     height="410.98141"
     x="382.77133"
     y="-32.816006" />
  <rect
     style="fill:#1a1a1a;fill-opacity:0.807069;stroke:none;stroke-width:25.1714;stroke-linecap:round;stroke-linejoin:round;stroke-dasharray:none;stroke-dashoffset:0;stroke-opacity:0.2"
     id="rect19-9"
     width="14.064001"
     height="410.98141"
     x="403.16467"
     y="-29.344" />
</svg>
