<?xml version="1.0" encoding="UTF-8" standalone="no"?>
<svg xmlns:xlink="http://www.w3.org/1999/xlink" xmlns="http://www.w3.org/2000/svg" width="800" height="305" viewBox="0 0 800 305">
<title>One very basic form of Celtic or pseudo-Celtic linear knotwork.  By AnonMoos (public domain)</title>
<defs><path id="Knotpath" d="M381.604,19.493C376.666,18.17,371.575,17.5,366.463,17.5C350.948,17.5,336.068,23.664,325.097,34.634L242.366,117.366C231.395,128.336,216.515,134.5,201,134.5C185.485,134.5,170.605,128.336,159.634,117.366L76.903,34.634C65.932,23.664,51.052,17.5,35.537,17.5C30.425,17.5,25.334,18.17,20.396,19.493C19.073,24.431,18.403,29.522,18.403,34.634C18.403,50.149,24.566,65.029,35.537,76L76.903,117.366C87.8735,128.336,102.754,134.5,118.269,134.5C133.784,134.5,148.664,128.336,159.634,117.366L242.366,34.634C253.336,23.664,268.216,17.5,283.731,17.5C299.246,17.5,314.126,23.664,325.097,34.634L366.463,76C377.434,86.971,383.597,101.851,383.597,117.366C383.597,122.478,382.927,127.569,381.604,132.507C376.666,133.83,371.575,134.5,366.463,134.5C350.948,134.5,336.068,128.336,325.097,117.366L242.366,34.634C231.395,23.664,216.515,17.5,201,17.5C185.485,17.5,170.605,23.664,159.634,34.634L76.903,117.366C65.932,128.336,51.052,134.5,35.537,134.5C30.425,134.5,25.334,133.83,20.396,132.507C19.073,127.569,18.403,122.478,18.403,117.366C18.403,101.851,24.566,86.971,35.537,76L76.903,34.634C87.8735,23.664,102.754,17.5,118.269,17.5C133.784,17.5,148.664,23.664,159.634,34.634L242.366,117.366C253.336,128.336,268.216,134.5,283.731,134.5C299.246,134.5,314.126,128.336,325.097,117.366L366.463,76C377.434,65.029,383.597,50.149,383.597,34.634C383.597,29.522,382.927,24.431,381.604,19.493Z"/></defs>
<g transform="translate(-2,1)scale(2,2)" stroke-width="23.4" stroke-linejoin="round" stroke="#000000" fill="none">
<use stroke-width="32.76" stroke="#ffffff" xlink:href="#Knotpath"/><use xlink:href="#Knotpath"/>
<use stroke-width="14.04" stroke="#ffffff" xlink:href="#Knotpath"/>
<path d="M199.979,134.491C184.82,134.226,170.355,128.086,159.634,117.366L142.084,99.816 M192.225,84.775L209.775,67.225 M202.021,17.509C217.18,17.774,231.645,23.914,242.366,34.634L259.916,52.184 M117.248,134.491C102.088,134.226,87.6235,128.086,76.903,117.366L59.353,99.816 M109.494,84.775L127.043,67.225 M119.29,17.509C134.449,17.774,148.914,23.914,159.634,34.634L177.184,52.184 M282.71,134.491C267.551,134.226,253.086,128.086,242.366,117.366L224.816,99.816 M274.956,84.775L292.506,67.225 M284.752,17.509C299.912,17.774,314.376,23.914,325.097,34.634L342.647,52.184 M36.558,17.509C51.717,17.774,66.182,23.914,76.903,34.634L94.453,52.184 M365.442,134.491C350.283,134.226,335.818,128.086,325.097,117.366L307.547,99.816 M20.669,101.241C23.404,91.702,28.521,83.016,35.537,76L53.087,58.45 M381.331,50.759C378.596,60.298,373.479,68.984,366.463,76L348.913,93.55"/>
<path stroke-width="14.04" stroke="#ffffff" d="M201,134.5C185.485,134.5,170.605,128.336,159.634,117.366L141.5,99.231 M191.64,85.36L210.36,66.64 M201,17.5C216.515,17.5,231.395,23.664,242.366,34.634L260.5,52.769 M118.269,134.5C102.754,134.5,87.8735,128.336,76.903,117.366L58.768,99.231 M108.909,85.36L127.629,66.64 M118.269,17.5C133.784,17.5,148.664,23.664,159.634,34.634L177.769,52.769 M283.731,134.5C268.216,134.5,253.336,128.336,242.366,117.366L224.231,99.231 M274.371,85.36L293.091,66.64 M283.731,17.5C299.246,17.5,314.126,23.664,325.097,34.634L343.232,52.769 M35.537,17.5C51.052,17.5,65.932,23.664,76.903,34.634L95.038,52.769 M366.463,134.5C350.948,134.5,336.068,128.336,325.097,117.366L306.962,99.231 M20.396,102.225C23.054,92.306,28.276,83.261,35.537,76L53.672,57.865 M381.604,49.775C378.946,59.694,373.724,68.739,366.463,76L348.328,94.135"/></g></svg>