<?xml version="1.0" standalone="no"?>
<!DOCTYPE svg PUBLIC "-//W3C//DTD SVG 20010904//EN"
 "http://www.w3.org/TR/2001/REC-SVG-20010904/DTD/svg10.dtd">
<svg version="1.0" xmlns="http://www.w3.org/2000/svg"
 width="1024.000000pt" height="1024.000000pt" viewBox="0 0 1024.000000 1024.000000"
 preserveAspectRatio="xMidYMid meet">

<g transform="translate(0.000000,1024.000000) scale(0.100000,-0.100000)"
fill="#000000" stroke="none">
<path d="M2713 9159 c-130 -12 -258 -104 -316 -227 l-32 -67 -3 -3975 c-2
-3601 -1 -3980 14 -4029 33 -114 136 -230 242 -273 l57 -23 2390 0 2390 0 66
31 c116 55 200 151 233 265 15 49 16 430 14 4029 l-3 3975 -32 62 c-18 34 -48
79 -65 99 -42 48 -134 108 -190 123 -32 8 -633 12 -2373 14 -1282 1 -2358 -1
-2392 -4z m4691 -69 c32 -5 78 -19 102 -31 61 -29 132 -103 163 -169 l26 -55
0 -3970 0 -3970 -33 -67 c-37 -77 -90 -128 -172 -167 l-55 -26 -2375 0 -2375
0 -50 25 c-67 33 -140 108 -173 178 l-27 57 0 3975 0 3975 28 56 c46 95 147
172 246 189 69 11 4624 12 4695 0z"/>
<path d="M2760 8899 c-63 -7 -105 -33 -138 -81 l-27 -42 -3 -3916 -2 -3917 23
-44 c17 -34 35 -50 77 -72 l54 -27 2315 0 c2240 0 2317 1 2357 19 23 10 54 36
70 57 l29 37 3 3916 c1 2154 0 3930 -3 3948 -7 39 -46 88 -87 109 -25 13 -301
15 -2326 17 -1263 1 -2317 0 -2342 -4z m4654 -48 c16 -9 38 -29 50 -44 l21
-28 0 -3924 0 -3924 -21 -28 c-11 -15 -40 -38 -64 -51 l-44 -22 -2306 2 -2305
3 -40 21 c-26 13 -49 37 -65 65 l-25 44 -6 535 c-9 836 1 7167 12 7225 10 55
30 88 73 119 l27 21 2277 5 c1252 3 2302 4 2332 2 30 -2 68 -12 84 -21z"/>
<path d="M2841 8790 c-50 -12 -83 -40 -111 -96 l-25 -49 -3 -3768 c-2 -3393
-1 -3774 14 -3822 19 -66 57 -109 110 -124 28 -8 679 -11 2246 -11 2434 0
2262 -5 2308 60 20 29 20 41 20 3864 0 2247 -4 3844 -9 3858 -14 37 -65 79
-107 89 -48 11 -4396 10 -4443 -1z m77 -46 c21 -14 219 -16 2152 -15 1962 0
2131 1 2155 17 30 20 63 13 101 -20 25 -21 28 -30 26 -82 -1 -54 -5 -2355 -10
-5940 l-2 -1462 -33 -48 c-52 -78 -95 -105 -169 -111 -65 -6 -107 7 -150 44
-15 13 -18 12 -27 -6 -22 -39 -63 -42 -606 -39 -502 3 -519 4 -488 21 29 15
74 17 525 17 472 0 494 1 525 20 46 27 50 58 21 143 -22 65 -27 72 -57 78 -46
10 -50 19 -8 19 45 0 47 13 12 88 -66 143 -249 239 -320 167 -32 -31 -34 -91
-4 -129 27 -34 17 -46 -18 -20 -40 30 -64 82 -61 134 3 39 8 48 48 78 40 31
49 34 91 29 106 -13 237 -114 289 -221 16 -35 43 -118 60 -186 17 -67 38 -133
47 -147 38 -57 117 -69 179 -27 46 32 60 48 81 94 14 32 16 379 19 3625 2
1975 6 3614 9 3643 3 30 12 67 20 82 8 16 15 36 15 45 0 13 -6 11 -31 -7 -26
-19 -31 -20 -39 -8 -11 17 10 37 48 47 12 3 22 11 22 18 0 22 -36 27 -75 10
-33 -13 -272 -15 -2193 -15 -1964 0 -2160 1 -2199 16 -42 16 -73 14 -73 -6 0
-6 10 -14 23 -19 13 -5 29 -16 37 -26 21 -25 -6 -38 -37 -18 -31 20 -38 12
-24 -28 8 -23 11 -1016 11 -3660 0 -3295 1 -3633 16 -3676 39 -118 168 -179
259 -123 34 21 65 73 65 108 0 36 50 214 76 268 50 106 200 209 304 209 87 -1
130 -43 130 -128 0 -46 -34 -108 -70 -127 -26 -14 -25 -5 2 46 25 48 20 84
-19 120 -90 83 -306 -59 -347 -228 -6 -24 -3 -28 26 -33 67 -12 198 61 198
111 0 32 18 31 26 -2 12 -49 -93 -143 -163 -146 -15 0 -44 3 -64 7 l-37 7 -11
-51 c-20 -96 -12 -138 32 -163 17 -10 145 -14 532 -18 281 -3 518 -9 528 -14
9 -4 17 -12 17 -17 0 -6 -215 -9 -544 -7 l-545 3 -34 33 c-28 28 -35 31 -41
17 -8 -22 -83 -55 -127 -55 -51 0 -138 28 -163 53 -12 12 -31 36 -43 52 l-22
30 -1 -78 c0 -70 3 -81 25 -102 l24 -25 2240 0 2240 0 15 22 c9 12 16 38 16
58 0 26 3 31 10 20 14 -22 12 -67 -5 -100 -11 -20 -27 -32 -54 -40 -27 -7
-738 -9 -2258 -8 -1956 3 -2222 5 -2238 18 -47 39 -45 -164 -45 3889 l0 3809
27 32 c42 50 90 63 131 34z m229 -178 c56 -60 53 -133 -8 -178 -33 -25 -77
-16 -85 19 -8 31 4 43 20 20 15 -20 47 -22 64 -5 18 18 15 92 -6 118 -24 30
-97 38 -141 16 -57 -30 -71 -66 -71 -191 l0 -110 19 30 c72 120 231 63 231
-83 0 -91 -24 -116 -26 -27 -2 70 -19 112 -55 130 -89 47 -175 -32 -161 -148
6 -50 24 -56 64 -22 47 40 47 13 -1 -49 -49 -63 -71 -122 -71 -188 0 -72 29
-117 76 -118 26 0 46 22 72 83 12 26 28 47 36 47 12 0 10 -11 -10 -57 -45
-105 -111 -133 -169 -73 -25 26 -30 40 -33 96 -5 69 11 146 35 165 11 10 10
16 -8 35 -19 21 -23 41 -32 174 -12 199 -6 250 40 301 41 45 80 60 143 54 35
-4 52 -12 77 -39z m478 24 c-3 -5 -28 -21 -54 -34 -47 -24 -82 -55 -65 -57 5
-1 14 -2 19 -4 6 -1 15 -3 22 -3 15 -2 53 -82 53 -110 0 -30 -59 -91 -90 -94
-37 -4 -30 17 18 51 48 35 55 69 22 99 -50 43 -58 49 -73 55 -21 8 -22 30 -2
47 17 14 148 69 154 64 1 -1 0 -8 -4 -14z m410 11 c-26 -11 -381 -24 -371 -14
4 4 31 10 59 14 76 9 335 9 312 0z m425 -6 c1 -5 -12 -11 -27 -13 -117 -11
-338 -70 -438 -116 -101 -47 -378 -277 -422 -351 -11 -19 -12 -18 -12 10 0 17
5 40 12 52 17 30 170 186 240 245 101 84 268 154 425 177 75 12 222 9 222 -4z
m470 6 c0 -5 -39 -18 -86 -30 -99 -25 -144 -46 -231 -107 -112 -80 -221 -237
-259 -374 -25 -89 -30 -300 -10 -400 26 -130 100 -274 187 -360 145 -145 303
-219 467 -220 60 0 62 -1 62 -26 l0 -27 -72 6 c-103 8 -179 30 -283 81 -219
108 -364 300 -411 544 -27 140 -12 379 30 484 113 280 305 432 549 437 31 0
57 -3 57 -8z m450 -1 c131 -21 277 -118 360 -240 88 -130 128 -261 137 -450
12 -262 -49 -448 -200 -607 -134 -142 -349 -243 -519 -243 -57 0 -58 1 -58 28
l0 28 65 -4 c36 -2 86 1 113 8 179 44 380 197 462 352 63 118 82 191 87 339
10 267 -49 438 -206 597 -82 83 -170 130 -303 164 -49 13 -88 26 -88 30 0 11
73 10 150 -2z m625 -20 c151 -38 306 -129 438 -258 99 -97 147 -165 147 -207
0 -29 -1 -28 -31 15 -38 53 -237 227 -344 299 -83 57 -259 116 -415 141 -102
16 -108 18 -90 31 22 15 203 3 295 -21z m481 7 c16 -9 39 -21 52 -28 33 -18
39 -3 11 28 -13 15 -17 23 -9 17 8 -6 41 -21 73 -34 59 -23 83 -49 72 -77 -4
-13 -8 -14 -17 -5 -7 7 -15 12 -20 12 -10 0 -48 -88 -48 -110 0 -18 53 -70 71
-70 5 0 9 -7 9 -15 0 -17 -32 -20 -61 -5 -28 16 -49 63 -49 112 1 47 12 68 49
87 21 12 22 15 8 28 -8 8 -25 15 -38 15 -207 -5 -341 -2 -356 7 -13 8 22 10
132 11 107 0 146 3 138 11 -6 6 -85 14 -197 18 -102 4 -189 11 -193 15 -4 5
71 6 168 4 134 -4 183 -9 205 -21z m639 12 c83 -23 126 -88 128 -193 3 -109
-14 -288 -29 -318 -12 -22 -11 -32 2 -63 21 -51 29 -154 15 -197 -25 -77 -99
-106 -146 -57 -30 31 -61 129 -40 129 8 0 19 -18 26 -42 21 -80 65 -100 110
-52 21 22 24 35 23 97 0 81 -21 131 -79 196 -50 55 -45 89 5 36 27 -28 55 -32
64 -9 12 32 6 115 -10 140 -33 49 -92 66 -143 40 -37 -19 -51 -55 -51 -128 0
-50 -2 -59 -12 -50 -8 8 -13 39 -13 77 0 59 2 66 34 99 59 61 132 58 187 -7
l26 -31 -3 111 c-4 108 -5 113 -33 142 -78 81 -196 54 -196 -45 0 -50 16 -66
59 -58 27 6 31 4 31 -14 0 -30 -54 -40 -82 -15 -32 28 -50 72 -43 102 14 62
29 84 69 102 48 22 50 22 101 8z m-3771 -14 c3 -10 -1 -15 -14 -15 -21 0 -50
-35 -50 -62 0 -26 28 -48 61 -48 31 0 39 -14 13 -24 -31 -12 -55 -6 -79 20
-30 32 -32 68 -5 112 21 35 63 44 74 17z m3518 -26 c21 -42 17 -75 -13 -108
-33 -35 -99 -23 -99 18 0 12 3 12 12 3 7 -7 25 -12 40 -12 54 0 65 93 13 106
-25 6 -31 15 -18 28 16 16 47 -1 65 -35z m-1677 -10 c78 -5 245 -52 245 -70 0
-4 -21 -17 -47 -29 -89 -39 -99 -66 -65 -177 27 -90 22 -97 -46 -62 -31 16
-78 34 -104 40 l-47 12 -3 89 -3 88 37 0 c27 0 41 6 52 22 23 33 20 52 -4 28
-29 -29 -57 -25 -80 13 -26 42 -27 71 -2 58 9 -5 40 -11 67 -12z m-1261 1 c-6
-6 -77 -13 -160 -16 -82 -3 -153 -11 -159 -16 -7 -7 27 -9 105 -4 121 6 169
-4 109 -22 -19 -6 -74 -13 -124 -16 -88 -5 -90 -5 -109 20 -25 35 -11 46 71
54 111 12 278 11 267 0z m1116 1 c0 -4 -5 -22 -11 -40 -12 -35 -50 -51 -74
-31 -20 17 -29 7 -16 -18 12 -22 51 -35 77 -25 15 5 16 2 11 -27 -4 -18 -7
-59 -7 -90 l0 -58 -52 -17 c-29 -10 -73 -28 -98 -42 l-45 -24 -17 21 c-16 20
-16 23 8 73 43 94 30 139 -53 181 -48 24 -43 -2 7 -37 45 -32 48 -49 24 -120
-16 -48 -48 -79 -109 -109 -28 -13 -33 -12 -60 4 -69 42 -49 5 24 -45 25 -17
49 -35 53 -41 4 -6 11 -7 15 -2 4 4 -5 19 -22 32 l-30 24 25 0 c14 0 36 -9 49
-19 l24 -19 -36 -55 c-20 -30 -37 -64 -37 -74 0 -10 -5 -35 -11 -55 l-10 -38
-68 0 c-47 0 -83 6 -114 20 -46 20 -86 17 -102 -9 -3 -6 -11 -11 -17 -11 -26
0 25 224 69 298 13 24 68 91 121 148 83 89 108 110 171 140 68 32 164 58 251
67 19 2 41 5 48 5 6 1 12 -2 12 -7z m-550 -19 c0 -4 -26 -13 -57 -20 -32 -8
-93 -22 -137 -33 -43 -10 -100 -19 -125 -19 -42 1 -44 2 -27 15 23 17 133 42
236 54 105 12 110 12 110 3z m1451 -38 c32 -9 56 -20 53 -25 -10 -17 -82 -9
-185 21 -57 16 -113 30 -124 30 -14 0 -16 3 -7 9 16 10 182 -12 263 -35z m607
9 c-3 -16 -17 -18 -103 -21 -63 -2 -115 2 -140 10 l-40 13 80 6 c173 12 207
11 203 -8z m-1464 -19 c3 -9 6 -63 6 -120 0 -81 -3 -104 -14 -104 -10 0 -14
25 -19 100 -5 100 -1 140 13 140 4 0 11 -7 14 -16z m739 -35 c80 -20 85 -23
67 -36 -17 -12 -23 -12 -42 0 -13 8 -49 23 -81 32 -32 10 -60 22 -64 28 -3 5
3 7 13 4 11 -3 58 -15 107 -28z m-1388 12 c-13 -11 -67 -30 -135 -46 -39 -10
-58 -10 -68 -3 -17 15 -16 15 69 37 78 21 150 27 134 12z m1103 -53 c74 -76
135 -156 169 -222 26 -51 73 -220 73 -263 l0 -24 -30 22 -29 22 -56 -21 c-36
-14 -79 -22 -118 -22 l-62 0 -21 75 c-20 70 -20 75 -4 75 20 0 45 26 32 34 -5
3 -20 -1 -35 -9 -23 -12 -28 -11 -43 6 -20 22 -12 49 15 49 11 0 23 4 26 10 3
5 27 19 53 30 48 22 82 47 82 62 0 5 -10 2 -23 -6 -12 -9 -41 -22 -64 -30 -23
-8 -51 -24 -62 -35 -12 -12 -29 -21 -38 -21 -16 1 -16 2 1 15 11 8 23 15 28
15 16 0 8 29 -10 34 -66 21 -119 161 -76 197 23 19 107 67 120 68 6 1 38 -27
72 -61z m-1760 47 c-11 -12 -148 -53 -152 -46 -10 15 12 32 55 40 51 10 105
13 97 6z m2740 -10 c6 -3 12 -14 12 -26 0 -16 -4 -20 -17 -14 -10 3 -39 10
-66 15 -43 9 -87 26 -87 34 0 4 141 -4 158 -9z m-2998 -41 c0 -19 -5 -24 -25
-24 -19 0 -23 4 -18 18 17 46 43 50 43 6z m2235 8 c-3 -3 -11 0 -18 7 -9 10
-8 11 6 5 10 -3 15 -9 12 -12z m899 2 c9 -22 8 -24 -9 -24 -8 0 -15 9 -15 20
0 24 15 27 24 4z m-2484 -7 c69 -35 96 -155 44 -196 -32 -25 -84 -28 -84 -6 0
9 7 30 16 47 14 27 14 32 1 45 -13 13 -17 13 -36 -6 -23 -23 -28 -79 -10 -112
14 -27 55 -42 80 -29 34 19 20 -6 -19 -34 -89 -61 -194 -3 -223 122 -15 65 23
151 75 172 32 13 128 11 156 -3z m1949 -5 c49 -24 71 -60 78 -123 9 -89 -42
-165 -128 -189 -37 -11 -104 12 -120 41 -9 17 -6 19 23 19 49 0 78 24 78 65 0
50 -19 87 -44 83 -25 -4 -25 -40 -1 -64 21 -22 19 -33 -10 -44 -114 -43 -143
174 -30 220 35 15 118 11 154 -8z m-1757 -42 c-56 -53 -82 -62 -82 -31 0 14
18 28 63 49 34 17 64 31 67 31 3 0 -19 -22 -48 -49z m-443 6 c-11 -19 -37 -42
-57 -51 -20 -10 -41 -20 -46 -23 -5 -3 -7 0 -5 6 3 9 118 102 125 102 2 0 -6
-15 -17 -34z m1914 0 c31 -7 33 -14 13 -41 -14 -19 -15 -19 -36 0 -12 11 -31
33 -42 48 l-21 29 29 -15 c16 -8 41 -17 57 -21z m-1558 14 c3 -5 1 -10 -4 -10
-6 0 -11 5 -11 10 0 6 2 10 4 10 3 0 8 -4 11 -10z m2230 -20 c23 -9 49 -48 39
-59 -2 -3 -17 7 -32 21 -15 14 -36 30 -47 36 -17 10 -17 11 -3 12 9 0 28 -4
43 -10z m-234 -58 c-16 -3 -21 -11 -21 -34 0 -48 -7 -30 -13 36 l-6 59 30 -29
c29 -27 29 -29 10 -32z m-2621 17 c0 -4 -9 -9 -20 -12 -23 -6 -24 -3 -9 25 9
17 13 18 20 7 5 -8 9 -17 9 -20z m25 21 c-3 -5 -11 -10 -16 -10 -6 0 -7 5 -4
10 3 6 11 10 16 10 6 0 7 -4 4 -10z m220 -60 c-5 -22 -11 -30 -22 -26 -8 3
-19 6 -25 6 -6 0 2 12 18 28 16 15 31 27 32 25 2 -1 1 -16 -3 -33z m2445 -10
c0 -3 -19 -6 -43 -7 l-42 -1 23 19 c19 15 27 16 43 6 10 -6 19 -14 19 -17z
m-2749 -3 c-10 -9 -11 -8 -5 6 3 10 9 15 12 12 3 -3 0 -11 -7 -18z m719 -32
c-14 -25 -28 -45 -32 -45 -10 0 -10 1 3 41 12 34 38 64 48 53 3 -2 -6 -25 -19
-49z m1570 -48 c40 -81 50 -95 88 -114 l44 -22 -42 -21 c-22 -11 -49 -29 -59
-39 -17 -17 -18 -15 -30 76 -7 53 -23 118 -37 149 -26 60 -27 64 -16 64 4 -1
27 -42 52 -93z m-2600 -8 c25 -82 23 -102 -7 -72 -29 29 -43 143 -18 143 2 0
14 -32 25 -71z m3598 18 c-3 -34 -13 -66 -27 -86 -13 -18 -25 -31 -26 -29 -5
4 20 106 34 141 16 42 24 32 19 -26z m-3009 19 c26 -14 79 -100 96 -156 6 -20
-4 -14 -53 33 l-61 57 -68 0 c-50 0 -77 -5 -100 -20 -47 -28 -56 -53 -51 -137
3 -40 1 -73 -4 -73 -17 0 -48 66 -48 101 0 80 46 150 124 189 48 24 125 26
165 6z m2534 -2 c105 -53 142 -113 135 -216 -5 -67 4 -90 17 -45 24 78 72 186
93 209 29 32 83 45 118 29 35 -16 32 -44 -4 -36 -60 13 -112 -37 -112 -107 0
-12 -7 -41 -16 -64 -18 -47 -45 -64 -102 -64 l-37 0 3 63 c6 116 -38 167 -143
167 -56 0 -101 -20 -140 -60 -31 -32 -45 -38 -45 -17 0 21 78 130 102 144 32
17 93 16 131 -3z m-1609 -36 c28 -23 14 -33 -23 -17 -33 15 -38 28 -19 47 10
10 14 10 17 0 2 -7 13 -21 25 -30z m433 3 c58 -26 130 -96 162 -158 70 -138
38 -316 -75 -423 -79 -75 -129 -95 -239 -95 -79 0 -97 3 -149 29 -77 38 -141
102 -174 174 -35 76 -37 222 -5 292 41 88 121 159 221 197 56 20 194 12 259
-16z m168 18 c4 -6 -2 -19 -13 -30 -24 -22 -38 -9 -22 21 12 22 25 26 35 9z
m-1929 -24 c26 -20 38 -43 64 -122 18 -54 42 -108 53 -120 l20 -23 -27 0 c-21
0 -43 14 -81 52 -45 44 -51 54 -39 66 17 16 18 41 4 78 -14 37 -38 53 -77 54
-27 0 -33 -4 -33 -21 0 -11 -4 -17 -10 -14 -11 7 -14 58 -3 68 3 4 27 7 51 7
33 0 54 -7 78 -25z m786 -105 c-3 -85 -5 -91 -20 -77 -9 8 -36 24 -59 37 l-42
23 37 27 c35 25 51 47 67 95 13 37 20 -8 17 -105z m2698 37 c16 -29 30 -63 30
-77 0 -37 -35 -107 -59 -120 -27 -14 -178 -36 -187 -27 -4 4 3 18 15 31 18 19
29 22 69 19 35 -3 55 1 79 16 50 31 58 101 12 101 -41 0 -91 -34 -162 -111
-40 -43 -85 -83 -101 -88 -36 -14 -113 -14 -121 0 -11 17 4 24 54 23 44 0 49
2 61 30 16 37 114 136 150 152 14 6 37 16 52 23 18 7 34 25 44 51 9 22 20 37
25 34 5 -3 23 -29 39 -57z m-3726 19 c12 -28 23 -37 58 -46 34 -10 61 -31 131
-102 85 -87 88 -91 71 -109 -9 -10 -23 -19 -30 -19 -7 0 -46 36 -86 80 -81 89
-122 120 -162 120 -22 0 -26 -4 -26 -31 0 -20 10 -40 29 -60 25 -24 38 -29 78
-29 46 0 73 -12 73 -33 0 -15 -127 -1 -155 17 -57 38 -74 111 -41 182 18 38
35 64 42 64 2 0 10 -15 18 -34z m651 -55 c39 -39 68 -57 133 -80 45 -17 82
-27 82 -22 0 5 -13 21 -30 34 -37 32 -38 39 -2 31 78 -19 172 -84 172 -120 0
-21 -4 -24 -37 -24 -21 0 -71 11 -113 25 -41 14 -102 32 -134 41 -57 15 -87
37 -137 101 -10 11 -25 26 -35 32 -17 9 -17 12 -4 21 29 19 55 9 105 -39z
m2468 33 c11 -11 -82 -121 -117 -138 -18 -8 -64 -22 -102 -30 -38 -8 -86 -22
-107 -31 -48 -20 -111 -17 -115 6 -4 21 51 73 104 99 43 21 84 26 84 10 0 -5
-6 -10 -14 -10 -14 0 -49 -40 -42 -47 5 -5 108 33 154 56 23 12 56 37 74 56
30 31 65 44 81 29z m-2556 -76 c19 -25 22 -46 8 -65 -12 -15 -16 -15 -24 -4
-5 8 -17 11 -29 7 -14 -5 -25 0 -36 16 -20 28 -20 52 0 72 13 14 19 14 43 2
15 -8 32 -21 38 -28z m2644 13 c36 -37 36 -49 2 -61 -16 -6 -40 -17 -54 -25
-24 -13 -28 -13 -44 5 -20 23 -14 48 22 84 32 33 38 33 74 -3z m-2758 -106 c4
-8 2 -17 -3 -20 -6 -4 -10 3 -10 14 0 25 6 27 13 6z m282 -20 c50 -9 99 -19
109 -22 40 -12 -14 -24 -141 -32 -108 -6 -136 -11 -178 -33 -81 -42 -125 -95
-125 -151 0 -44 22 -98 52 -133 67 -76 96 -66 229 77 102 109 194 180 277 212
23 10 45 17 48 17 18 0 -26 -40 -129 -119 -69 -52 -145 -121 -181 -163 -98
-115 -147 -138 -210 -98 -96 59 -154 188 -121 268 23 52 91 117 154 146 32 14
64 33 72 42 7 9 21 13 33 10 12 -2 62 -12 111 -21z m2412 -21 c94 -42 126 -71
164 -147 41 -80 92 -158 123 -187 l27 -24 -20 44 c-21 47 -30 183 -12 194 13
8 60 -121 71 -196 6 -38 15 -78 20 -90 5 -13 14 -42 20 -66 6 -23 15 -40 20
-37 5 3 27 -4 49 -16 74 -38 117 -11 175 110 14 30 26 64 26 76 0 36 -106 191
-182 267 -25 25 -44 49 -40 52 14 14 87 4 132 -19 53 -27 80 -57 80 -91 0 -24
17 -40 82 -78 86 -48 133 -145 109 -219 -13 -37 -48 -67 -79 -67 -22 0 -72 43
-72 62 -2 32 -65 -116 -85 -198 -27 -108 -53 -162 -95 -198 -43 -36 -63 -33
-118 16 -26 24 -49 44 -51 45 -2 2 -2 5 0 8 3 2 33 -5 68 -15 34 -11 66 -20
71 -20 16 0 30 65 30 143 l0 81 -33 -32 c-27 -26 -100 -62 -127 -62 -5 0 -23
28 -40 63 -18 34 -29 49 -24 32 4 -16 9 -525 11 -1130 2 -956 1 -1103 -12
-1119 -8 -11 -17 -17 -20 -15 -2 3 -6 550 -7 1216 l-3 1210 27 -46 c42 -73 82
-115 101 -108 20 7 23 37 5 37 -17 1 -61 62 -134 187 -32 56 -62 102 -65 103
-4 0 -9 -19 -12 -41 -10 -77 -89 -158 -160 -166 -54 -6 -89 17 -176 117 -36
41 -108 109 -160 151 -53 42 -107 89 -121 104 l-25 28 30 -7 c16 -4 61 -28
100 -54 65 -43 111 -87 248 -236 47 -51 60 -60 89 -60 97 0 167 134 124 237
-14 36 -67 80 -121 103 -20 8 -88 19 -153 24 -116 8 -183 23 -152 33 13 4 171
31 207 36 7 0 47 -15 90 -35z m-627 -29 c0 -35 -20 -45 -57 -30 -42 18 -42 38
-1 58 37 18 58 8 58 -28z m-2742 23 c16 -16 15 -40 -2 -63 -12 -16 -16 -17
-30 -6 -23 19 -22 81 2 81 10 0 23 -5 30 -12z m1477 0 c14 -6 25 -14 25 -18 0
-7 -80 -54 -84 -49 -2 2 -8 14 -15 26 -23 46 15 68 74 41z m2693 -19 c3 -28
-29 -65 -47 -54 -12 7 -15 68 -4 79 16 16 48 1 51 -25z m-3865 5 c3 -4 -4 -15
-17 -25 -13 -10 -63 -69 -112 -131 -80 -103 -90 -120 -109 -195 -12 -46 -30
-92 -40 -103 -26 -28 -62 -25 -96 9 -23 24 -29 38 -29 74 0 83 40 140 143 203
36 22 50 38 57 65 6 20 18 43 28 52 43 39 154 71 175 51z m67 -4 c0 -5 -5 -10
-11 -10 -5 0 -7 5 -4 10 3 6 8 10 11 10 2 0 4 -4 4 -10z m227 0 c13 0 13 -3 3
-15 -12 -15 -81 -21 -93 -8 -15 14 17 35 46 29 16 -3 36 -6 44 -6z m1073 -15
c0 -12 -13 -15 -60 -15 -47 0 -60 3 -60 15 0 12 13 15 60 15 47 0 60 -3 60
-15z m918 3 c-3 -7 -28 -15 -56 -18 -45 -5 -52 -3 -52 12 0 15 9 18 56 18 40
0 55 -4 52 -12z m-1498 -23 c0 -2 -20 -16 -44 -30 -24 -14 -95 -79 -159 -145
-127 -131 -145 -140 -184 -91 -31 39 -50 113 -37 148 11 33 82 78 144 92 78
18 280 37 280 26z m286 -19 c6 -26 -1 -46 -17 -46 -5 0 -9 16 -9 35 0 40 17
47 26 11z m1404 -17 l0 -41 -19 23 c-18 22 -18 26 -4 42 22 24 23 23 23 -24z
m423 27 c119 -12 145 -18 189 -44 68 -38 94 -84 79 -140 -19 -68 -76 -121
-115 -106 -8 3 -41 38 -74 77 -92 111 -122 141 -186 186 -33 22 -53 41 -45 41
8 0 76 -7 152 -14z m556 -226 c0 -44 -7 -30 -43 91 -39 130 -32 164 9 44 19
-55 34 -116 34 -135z m-3254 210 c3 -5 19 -10 36 -10 16 0 29 -5 29 -11 0 -17
-40 -79 -51 -79 -13 0 -38 42 -45 78 -5 25 -3 32 9 32 9 0 19 -4 22 -10z
m1168 -21 c5 -20 3 -21 -34 -16 -43 6 -44 5 -29 -23 9 -17 13 -17 37 -5 15 8
28 13 29 12 1 -1 12 -26 23 -55 18 -45 19 -53 6 -57 -49 -16 -48 -15 -35 -30
16 -19 25 -19 46 2 15 16 17 16 30 -2 8 -10 14 -22 14 -26 0 -8 -41 -17 -100
-21 -44 -4 -42 -20 4 -31 20 -5 38 -17 41 -27 3 -10 12 -24 20 -30 12 -10 19
-8 34 11 11 13 23 21 27 17 4 -5 -1 -17 -11 -28 -17 -19 -17 -23 -1 -78 19
-69 21 -133 4 -150 -20 -20 -2 -23 23 -3 23 18 23 20 11 103 -13 92 -16 171
-5 181 3 4 29 -6 57 -22 28 -16 77 -37 108 -46 l57 -16 5 -97 c2 -53 8 -118
11 -143 7 -45 6 -47 -23 -57 -21 -7 -51 -6 -105 3 -246 43 -473 258 -533 506
-15 61 -15 68 0 92 29 43 71 57 182 57 95 0 102 -1 107 -21z m1029 -3 c20 -10
44 -29 53 -43 16 -23 16 -30 1 -89 -51 -202 -175 -350 -383 -456 -70 -35 -93
-42 -160 -46 -70 -4 -80 -2 -97 17 -17 18 -18 26 -8 60 7 21 12 74 12 117 0
44 4 85 8 91 4 7 33 21 63 32 31 10 70 26 88 36 19 9 40 13 49 9 10 -4 21 -6
26 -5 4 1 14 -6 21 -15 14 -20 45 -13 45 11 0 9 -9 15 -25 15 -14 0 -29 8 -35
20 -8 16 -8 20 3 20 8 0 19 -6 25 -12 15 -19 132 -11 132 8 0 8 -6 14 -12 15
-7 0 -35 1 -63 2 -51 2 -65 16 -46 46 7 11 13 10 34 -4 38 -25 56 -13 20 13
l-31 22 19 37 c10 20 19 43 19 50 0 16 5 16 30 1 17 -11 22 -10 30 2 16 25 11
32 -20 28 -24 -4 -30 -1 -25 9 3 8 5 19 5 25 0 18 180 5 222 -16z m908 -17
c-5 -18 -12 -34 -15 -37 -8 -9 -23 10 -30 41 -7 25 -5 27 23 27 30 0 30 -1 22
-31z m-3354 -85 c-3 -8 -10 -14 -17 -14 -11 0 -4 74 10 95 8 12 14 -62 7 -81z
m122 -41 l-23 -118 -3 58 c-3 55 32 196 45 183 3 -2 -6 -58 -19 -123z m2595
57 c88 -43 126 -69 172 -119 97 -108 135 -140 175 -152 38 -12 40 -14 35 -41
-14 -62 32 -128 90 -128 65 0 99 96 55 153 -26 33 -26 38 11 73 17 16 37 42
44 58 33 77 35 -54 35 -2645 -1 -2421 -2 -2548 -19 -2634 -18 -87 -18 -89 -25
-50 -14 82 -30 102 -92 120 -75 22 -101 40 -114 81 -16 46 -30 43 -30 -6 0
-51 30 -84 91 -100 81 -21 94 -27 98 -45 2 -14 -1 -16 -15 -10 -49 19 -92 17
-133 -5 -54 -31 -75 -76 -68 -147 l6 -53 -532 0 c-293 0 -562 3 -599 7 l-68 6
0 143 c0 84 4 145 10 149 18 11 11 64 -10 75 -28 15 -65 -22 -54 -53 4 -12 8
-89 9 -172 l0 -150 -600 -3 -601 -2 4 70 c4 69 4 70 -31 105 -30 30 -42 35
-81 35 -26 0 -58 -7 -72 -16 -30 -20 -41 -12 -27 19 8 17 25 28 60 36 26 7 62
19 80 26 54 24 84 115 41 123 -13 3 -18 -3 -18 -20 0 -42 -27 -66 -102 -90
-82 -26 -102 -50 -113 -129 -4 -27 -12 -52 -17 -56 -6 -3 -8 -1 -4 5 3 6 6
1194 6 2641 0 1447 3 2655 6 2684 l6 54 40 -43 39 -42 -21 -34 c-58 -96 29
-203 113 -138 30 24 46 84 29 111 -10 15 -5 21 34 40 49 23 96 66 156 140 37
47 176 139 209 139 10 0 25 7 33 16 19 18 18 20 41 -86 73 -338 359 -586 712
-618 l78 -7 2 -402 c2 -252 -1 -404 -7 -408 -15 -9 -12 -61 5 -75 20 -16 62
-5 70 20 3 10 0 32 -8 47 -12 23 -15 96 -13 423 l1 395 80 6 c148 12 267 54
393 142 176 122 309 342 330 547 3 36 8 55 10 42 2 -16 20 -31 65 -52z m-2507
-17 c19 -7 17 -30 -7 -82 -15 -34 -17 -46 -7 -52 9 -6 4 -23 -18 -65 -38 -71
-60 -84 -49 -28 4 22 9 57 11 79 4 49 23 171 31 205 5 23 7 22 16 -13 5 -21
16 -41 23 -44z m3431 24 c4 -24 2 -37 -5 -37 -13 0 -31 59 -24 78 7 21 22 -1
29 -41z m-92 1 c13 -33 10 -124 -5 -133 -4 -2 -10 24 -13 58 -4 34 -10 72 -13
85 -10 35 15 27 31 -10z m-3448 0 c-3 -8 -6 -5 -6 6 -1 11 2 17 5 13 3 -3 4
-12 1 -19z m-181 -36 c-27 -52 -65 -103 -66 -86 0 12 77 134 85 134 3 0 -6
-21 -19 -48z m144 -63 c0 -57 -4 -88 -10 -84 -5 3 -10 44 -10 91 0 49 4 84 10
84 6 0 10 -37 10 -91z m236 36 c-8 -38 -120 -270 -136 -280 -22 -14 -8 33 30
96 22 37 40 70 40 73 0 11 63 146 67 146 3 0 2 -16 -1 -35z m3418 -12 c15 -25
24 -48 22 -50 -6 -6 -56 69 -56 84 0 22 7 15 34 -34z m-3688 0 c-11 -11 -17 4
-9 23 7 18 8 18 11 1 2 -10 1 -21 -2 -24z m3594 11 c0 -3 -9 -19 -20 -34 -11
-16 -29 -48 -40 -72 -17 -38 -20 -40 -20 -16 0 27 56 128 71 128 5 0 9 -3 9
-6z m-3609 -51 c11 -29 8 -29 -22 3 -21 23 -22 26 -5 23 10 -2 22 -14 27 -26z
m-40 -33 c20 -11 49 -60 49 -84 0 -8 -7 -22 -17 -31 -15 -16 -18 -15 -40 14
-13 17 -37 40 -53 51 l-30 21 -9 -23 c-17 -44 50 -148 94 -148 12 0 15 -18 15
-96 0 -68 5 -106 16 -130 12 -24 14 -45 9 -72 -4 -20 -10 -57 -14 -82 l-6 -45
-48 95 c-42 82 -51 113 -71 230 -13 74 -31 152 -40 172 -22 52 -21 56 26 100
43 39 80 48 119 28z m1540 -22 c-27 -21 -61 -24 -61 -5 0 14 59 36 74 28 5 -2
-1 -12 -13 -23z m2192 10 c24 -12 22 -19 -22 -62 -30 -29 -45 -37 -67 -34 -40
4 -44 44 -9 87 27 32 49 34 98 9z m-3433 -1255 c0 -1113 -1 -1216 -16 -1201
-14 14 -16 128 -16 1166 0 633 3 1166 7 1184 9 47 16 68 21 68 2 0 4 -548 4
-1217z m1554 1135 c9 -36 7 -198 -3 -198 -16 0 -21 30 -21 126 0 89 10 121 24
72z m-1725 -59 c19 -26 26 -29 57 -23 l34 6 0 -55 c0 -31 -4 -58 -8 -61 -4 -2
-37 9 -72 24 -36 16 -70 30 -76 30 -6 0 -17 14 -24 30 -12 29 -11 33 15 60 31
33 43 31 74 -11z m366 5 c30 -20 31 -35 5 -59 -18 -17 -21 -17 -45 -1 -27 18
-32 45 -13 64 16 16 24 15 53 -4z m2755 -28 c0 -35 -25 -52 -55 -38 -31 14
-32 46 -3 66 27 19 58 5 58 -28z m-3460 -66 c13 -25 29 -25 46 -2 7 9 14 12
14 6 0 -6 -9 -19 -20 -29 -16 -15 -22 -16 -35 -5 -22 19 -38 50 -26 50 6 0 15
-9 21 -20z m4081 -23 l-21 -21 -22 22 c-12 12 -19 25 -15 29 4 3 13 1 19 -5
18 -18 48 -15 49 6 0 12 2 13 6 3 3 -7 -4 -23 -16 -34z m-4161 18 c0 -16 -27
-32 -37 -21 -7 7 16 36 28 36 5 0 9 -7 9 -15z m4260 -16 c0 -11 -4 -17 -10
-14 -5 3 -10 13 -10 21 0 8 5 14 10 14 6 0 10 -9 10 -21z m-3868 -94 c-20 -24
-41 -41 -45 -38 -7 4 -5 111 2 141 1 2 19 -11 41 -29 l39 -32 -37 -42z m3508
46 c0 -48 -9 -61 -44 -61 -30 0 -56 15 -56 31 0 8 80 59 93 59 4 0 7 -13 7
-29z m-3916 -22 c3 -17 6 -270 6 -561 0 -419 -3 -529 -12 -526 -23 8 -26 93
-27 611 -1 424 1 507 13 507 7 0 16 -14 20 -31z m4285 -486 c-1 -527 -5 -624
-26 -631 -10 -3 -13 114 -13 561 0 310 3 567 7 570 3 4 12 7 20 7 11 0 13 -91
12 -507z m-216 -480 c-10 -8 -31 -20 -46 -27 l-28 -12 22 -28 c12 -15 32 -32
45 -36 20 -8 24 -16 24 -55 0 -25 -4 -45 -8 -45 -5 0 -23 -18 -41 -41 -25 -31
-30 -44 -22 -52 9 -9 17 -4 35 18 l23 29 7 -48 c4 -27 6 -211 5 -410 -2 -330
-1 -364 15 -396 34 -65 54 -80 111 -80 58 0 79 -16 94 -67 11 -38 3 -83 -15
-83 -8 0 -14 16 -16 46 -2 34 -9 50 -24 61 -19 12 -25 11 -53 -12 l-31 -27
-30 22 c-16 12 -30 25 -30 29 0 18 -85 103 -120 121 l-37 19 3 903 c1 664 5
911 14 933 6 16 23 45 36 63 14 18 33 51 43 75 10 23 22 51 27 62 5 12 10
-173 12 -464 2 -451 1 -485 -15 -498z m-3945 906 c7 -101 13 -1133 7 -1149 -5
-12 -8 -12 -18 5 -8 14 -12 195 -15 614 -4 500 -2 593 9 589 9 -3 15 -24 17
-59z m-58 -529 c1 -311 1 -572 1 -580 -1 -10 -7 -6 -16 10 -12 21 -14 118 -15
581 0 306 3 559 7 562 4 4 10 4 14 0 4 -5 8 -262 9 -573z m4085 568 c3 -7 6
-284 7 -616 3 -576 2 -602 -14 -581 -17 20 -18 64 -18 615 0 401 3 594 10 594
6 0 13 -6 15 -12z m65 -579 c0 -523 -4 -604 -25 -569 -5 8 -10 969 -6 1119 1
37 3 42 16 31 13 -11 15 -88 15 -581z m-3681 564 c0 -10 -21 -32 -46 -48 -27
-18 -55 -48 -67 -70 -21 -40 -21 -47 -21 -980 l0 -940 52 -6 c62 -8 104 -36
129 -86 18 -37 19 -93 21 -1513 1 -1333 0 -1472 -14 -1440 -13 31 -15 173 -15
1185 1 633 -3 1159 -7 1170 -8 18 -10 18 -27 -12 -24 -41 -56 -58 -108 -58
-40 0 -43 -2 -63 -47 -12 -27 -26 -48 -32 -48 -6 0 -5 18 4 48 8 26 15 84 15
130 0 81 15 142 40 157 8 5 10 -17 8 -85 -3 -99 2 -110 54 -110 30 0 56 31 89
105 17 38 21 74 25 213 l5 167 -19 -40 c-15 -32 -20 -71 -24 -170 -6 -158 -26
-215 -78 -227 -13 -2 -15 15 -15 108 0 105 -1 112 -28 147 l-27 36 55 43 c55
42 115 118 115 145 0 24 -26 77 -47 95 -11 10 -40 22 -65 26 l-45 9 5 -112 5
-112 -39 -43 c-21 -23 -50 -47 -64 -52 -76 -31 -194 -30 -188 1 2 12 20 18 67
23 71 8 98 22 136 73 21 27 29 52 36 116 5 44 7 85 3 90 -6 10 -60 -24 -81
-51 -7 -8 -20 -36 -28 -62 -21 -61 -33 -68 -62 -34 -28 33 -29 46 -3 97 23 45
65 74 128 90 l42 11 0 944 c0 663 3 959 11 996 16 72 79 138 133 138 28 0 36
-4 35 -17z m-274 -188 l50 -100 3 -867 2 -868 -60 -30 c-41 -21 -71 -45 -96
-79 l-37 -49 -33 14 c-52 22 -83 18 -94 -12 -11 -29 2 -64 24 -64 19 0 27 25
14 38 -8 8 -6 13 6 18 11 4 22 1 27 -7 13 -21 11 -27 -16 -51 -14 -12 -25 -27
-25 -34 0 -28 -19 -21 -44 16 -31 48 -33 88 -5 124 18 22 27 26 69 24 44 -2
53 1 85 32 47 46 74 127 57 173 -15 42 -17 663 -2 701 11 29 35 26 45 -5 6
-17 35 -28 35 -14 0 15 -31 62 -54 84 -39 36 -35 83 9 132 38 42 44 59 21 59
-8 0 -27 10 -41 23 l-26 22 -6 436 c-3 241 -3 445 2 455 6 16 10 11 24 -26 9
-25 39 -90 66 -145z m269 83 c7 -28 8 -1903 1 -1910 -3 -3 -27 1 -53 7 -44 11
-47 14 -46 44 0 17 1 431 2 920 l2 889 37 36 c44 42 49 43 57 14z m3364 -48
c20 0 23 -4 18 -22 -3 -13 -6 -429 -6 -924 l0 -902 -46 -7 c-26 -3 -53 -9 -60
-12 -12 -4 -14 147 -14 967 l0 972 42 -36 c23 -20 52 -36 66 -36z m185 -816
c9 -10 -4 -34 -19 -34 -8 0 -14 6 -14 13 0 22 19 35 33 21z m-3891 -19 c0 -5
-5 -11 -11 -13 -6 -2 -11 4 -11 13 0 9 5 15 11 13 6 -2 11 -8 11 -13z m-167
-204 c3 -5 1 -12 -5 -16 -13 -8 -50 3 -50 16 0 12 47 12 55 0z m45 -442 c0
-284 -3 -360 -12 -357 -10 4 -14 84 -16 349 -1 189 0 350 3 356 2 7 9 13 15
13 7 0 10 -120 10 -361z m64 330 c8 -42 6 -552 -2 -609 -6 -34 -10 -41 -17
-30 -6 9 -11 151 -13 343 -4 283 -2 327 11 327 8 0 17 -13 21 -31z m4086 -324
c0 -322 -5 -389 -24 -339 -8 21 -8 679 1 687 3 4 10 7 15 7 4 0 8 -160 8 -355z
m-4216 323 c3 -13 6 -166 6 -340 0 -301 -4 -347 -28 -323 -10 9 -16 523 -7
612 7 73 18 92 29 51z m4154 -279 c1 -162 0 -305 -4 -319 -16 -62 -23 31 -23
318 -1 239 2 303 12 300 9 -4 13 -74 15 -299z m126 279 c9 -35 6 -620 -4 -643
-7 -19 -9 -18 -19 8 -7 19 -11 136 -11 343 0 261 2 314 14 314 7 0 16 -10 20
-22z m-309 -752 c78 -33 119 -109 132 -243 5 -53 3 -63 -10 -63 -11 0 -13 6
-9 22 5 20 3 21 -36 14 -46 -7 -47 -4 -31 43 15 42 -10 110 -52 146 -73 61
-200 6 -199 -87 1 -66 77 -160 189 -233 36 -24 80 -57 96 -75 l30 -31 0 -821
c0 -648 -3 -822 -12 -825 -7 -3 -13 2 -13 11 0 20 -24 21 -40 1 -18 -21 -5
-44 33 -60 l34 -14 6 -158 c4 -87 7 -251 7 -365 0 -234 5 -219 -89 -269 -31
-16 -64 -35 -74 -42 -14 -10 -25 -8 -62 12 -49 26 -56 44 -25 69 20 16 20 19
6 61 -9 24 -13 47 -10 52 9 14 32 10 42 -7 9 -15 12 -15 41 2 17 10 31 23 31
29 1 5 2 75 3 154 l2 145 31 8 c32 8 62 34 51 44 -3 3 -15 1 -26 -6 -36 -19
-59 2 -66 62 -5 39 -1 1541 4 1556 1 1 8 2 16 2 20 0 19 19 -1 41 -19 21 -20
50 -3 106 10 33 10 46 1 55 -9 9 -12 8 -15 -3 -20 -69 -23 -74 -51 -77 -45 -5
-73 6 -116 44 l-40 36 -5 -1034 c-5 -1144 -7 -1283 -16 -1293 -16 -15 -20 357
-17 1500 3 1063 5 1216 17 1190 9 -18 17 -79 20 -155 5 -108 9 -130 30 -163
36 -59 60 -77 101 -77 51 0 60 14 60 93 l0 70 23 -34 c26 -39 41 -40 45 -3 8
65 -23 105 -95 124 -56 14 -63 7 -63 -69 0 -37 7 -65 22 -92 29 -53 13 -71
-30 -34 -41 34 -54 84 -50 193 3 84 1 90 -36 165 -35 69 -38 83 -33 128 8 65
47 131 89 152 41 21 118 22 163 3z m-3483 -113 c10 -9 18 -23 18 -32 -1 -20
-47 -78 -55 -69 -4 3 -9 31 -12 62 -5 50 -4 56 12 56 10 0 27 -7 37 -17z
m3404 -3 c1 -8 2 -30 3 -49 1 -32 15 -50 106 -131 24 -21 131 -54 146 -44 7 4
8 24 4 54 -6 42 -4 50 14 59 29 16 72 13 93 -6 21 -19 23 -36 6 -66 l-12 -22
-6 25 c-6 25 -53 60 -65 48 -11 -10 3 -43 30 -72 l24 -26 -24 -16 c-19 -13
-46 -15 -129 -12 l-104 3 -49 41 c-48 41 -59 57 -88 124 -8 19 -20 43 -27 53
-11 16 -10 21 11 38 27 22 65 22 67 -1z m74 -32 c24 -38 22 -71 -2 -76 -21 -4
-38 33 -38 79 0 38 15 37 40 -3z m-3658 -45 c-16 -52 -38 -81 -51 -67 -8 7 -6
21 8 50 11 21 23 48 26 58 4 14 9 16 17 8 8 -8 8 -21 0 -49z m3928 42 c14 -17
5 -36 -15 -28 -16 6 -21 43 -6 43 5 0 14 -7 21 -15z m-4107 -15 c-3 -11 -9
-20 -14 -20 -11 0 -11 3 -3 24 9 23 23 20 17 -4z m49 -78 c13 -13 6 -64 -9
-69 -6 -2 -14 5 -18 16 -5 15 -15 21 -37 21 -29 0 -30 -1 -26 -45 4 -50 -2
-55 -33 -24 -16 16 -19 30 -17 67 3 40 6 47 28 52 30 7 97 -3 112 -18z m-217
-31 c9 -28 26 -62 37 -77 29 -36 93 -64 151 -64 50 0 61 -15 32 -44 -20 -20
-75 -12 -145 22 -66 33 -100 88 -100 164 0 26 2 48 4 48 3 0 12 -22 21 -49z
m4365 -27 c0 -84 -58 -145 -153 -163 -62 -11 -97 -2 -126 33 -12 14 -6 16 52
16 35 0 79 3 96 6 43 9 88 56 101 105 13 49 30 51 30 3z m-3936 -124 c16 -16
-5 -43 -45 -56 -27 -9 -40 -9 -61 2 -34 17 -39 34 -19 58 13 15 25 17 65 12
27 -3 54 -10 60 -16z m-135 -90 c17 -27 37 -50 45 -50 10 0 15 -22 21 -84 7
-87 -5 -137 -41 -167 -21 -17 -17 -38 11 -51 l25 -11 0 -981 c0 -914 1 -982
17 -993 21 -16 58 -17 83 -1 27 17 35 5 37 -65 1 -34 3 -71 5 -81 2 -14 -5
-22 -22 -27 -49 -14 -88 -9 -154 21 -110 50 -106 33 -106 443 l1 347 38 20
c48 24 57 45 29 64 -24 17 -44 11 -28 -9 8 -10 8 -15 0 -20 -16 -10 -19 -5
-30 56 -15 77 -13 1583 2 1615 17 36 33 29 67 -26z m-250 -802 c1 -682 -1
-739 -27 -713 -11 11 -8 1497 2 1520 19 41 24 -105 25 -807z m4266 805 c11
-25 18 -1232 8 -1387 -6 -91 -12 -131 -21 -134 -11 -3 -13 139 -11 767 0 424
5 771 9 771 4 0 11 -8 15 -17z m-367 -42 c2 -27 -2 -52 -8 -56 -6 -4 -10 11
-10 43 0 39 5 62 14 62 1 0 2 -22 4 -49z m-3838 -30 c0 -63 -6 -91 -21 -91
-10 0 -12 58 -3 113 10 57 24 44 24 -22z m4145 -68 c-10 -30 -25 -9 -25 36 0
77 13 96 22 31 4 -30 5 -61 3 -67z m-61 66 c3 -17 6 -352 6 -745 0 -664 -3
-746 -25 -723 -4 5 -8 856 -6 1227 1 249 8 322 25 241z m-4019 -61 c9 -87 2
-1395 -7 -1404 -5 -4 -11 -4 -15 0 -10 10 -17 1206 -8 1354 4 61 11 112 15
112 5 0 11 -28 15 -62z m-64 -721 c1 -372 -1 -680 -4 -684 -4 -3 -10 -3 -14 1
-5 4 -9 310 -11 679 -2 526 0 672 10 678 7 4 13 7 14 6 2 -1 4 -307 5 -680z
m4149 -7 c0 -654 -2 -711 -28 -685 -8 8 -16 1341 -8 1361 3 8 12 11 21 8 13
-5 15 -83 15 -684z m-3681 -307 c0 -511 -4 -936 -7 -946 -6 -15 -14 -10 -55
31 l-47 47 4 780 c2 429 4 826 5 882 l1 101 43 15 c23 8 45 15 50 16 4 0 7
-416 6 -926z m3321 897 l45 -15 2 -880 3 -880 -53 -24 c-28 -14 -55 -27 -59
-29 -5 -2 -8 415 -8 928 0 737 3 929 12 923 7 -4 33 -15 58 -23z m-3458 -1027
c3 -998 2 -1029 -31 -1009 -8 5 -11 286 -11 982 0 972 1 1014 32 1014 4 0 8
-444 10 -987z m-378 -318 c-22 -17 -48 -20 -39 -4 8 12 48 29 54 23 3 -2 -4
-11 -15 -19z m4157 -10 c-54 -31 -60 -31 -31 0 13 14 35 25 49 25 23 0 21 -3
-18 -25z m-4057 3 c23 -10 44 -43 34 -54 -3 -2 -20 12 -38 31 -36 37 -36 42 4
23z m-53 -60 c5 -132 3 -668 -1 -688 -6 -24 -7 -24 -18 9 -13 37 -18 692 -5
704 14 15 23 5 24 -25z m4156 -125 c-4 -87 -7 -259 -7 -382 0 -180 -2 -222
-12 -212 -10 9 -13 88 -13 324 0 390 2 427 22 427 14 0 15 -19 10 -157z m-65
-37 c2 -17 -2 -31 -9 -33 -9 -3 -13 8 -13 38 0 47 16 44 22 -5z m-4157 -247
c0 -140 -2 -362 -4 -493 l-5 -239 28 -23 c15 -13 39 -24 54 -24 39 1 102 32
145 72 31 30 37 42 37 77 0 77 -79 122 -116 66 -15 -23 -15 -27 5 -68 26 -53
26 -57 2 -57 -23 0 -41 41 -44 98 -3 77 62 114 133 77 52 -27 75 -104 51 -168
-26 -68 -122 -127 -206 -127 -49 0 -60 4 -86 29 l-29 29 0 469 c0 472 4 547
24 540 8 -3 11 -80 11 -258z m121 213 c-14 -14 -16 -14 -16 -1 0 20 23 44 29
28 2 -6 -4 -18 -13 -27z m4158 1 c3 -21 6 -248 6 -505 l0 -466 -31 -26 c-24
-21 -41 -26 -82 -26 -96 0 -217 93 -217 166 0 104 103 180 170 126 34 -28 40
-117 10 -154 -41 -53 -97 -18 -66 39 15 28 18 26 20 -11 2 -32 23 -29 34 4 27
75 -40 130 -95 78 -18 -17 -23 -32 -23 -69 0 -60 30 -98 102 -129 62 -27 110
-20 139 20 17 23 17 41 9 255 -5 127 -9 344 -10 483 0 207 2 252 14 252 8 0
16 -15 20 -37z m-4144 -265 c0 -205 -7 -276 -23 -235 -5 14 -9 201 -8 375 1
66 4 82 16 82 13 0 15 -31 15 -222z m4018 -9 c1 -117 -1 -220 -4 -229 -14 -29
-23 74 -23 263 -1 147 2 188 12 185 9 -4 13 -58 15 -219z m-284 39 c-57 -60
-78 -93 -104 -165 -12 -35 -25 -63 -27 -63 -7 0 9 74 29 126 12 35 35 67 68
98 62 58 88 61 34 4z m-3395 -15 c38 -45 62 -106 60 -155 0 -16 -4 -11 -13 17
-17 54 -33 82 -72 132 -19 23 -34 44 -34 47 0 17 23 1 59 -41z m3431 -71 l0
-78 -34 -12 c-44 -16 -60 -36 -82 -102 -22 -68 -31 -42 -14 44 16 84 44 144
88 189 20 20 37 37 39 37 2 0 3 -35 3 -78z m-3401 -96 c22 -60 30 -186 11
-186 -5 0 -10 13 -10 28 0 41 -27 125 -49 154 -11 13 -22 47 -25 74 l-6 49 29
-31 c16 -18 38 -57 50 -88z m345 -81 c31 -21 50 -67 41 -102 -3 -16 -22 -44
-40 -63 l-34 -35 397 3 c649 4 866 8 890 16 20 8 22 5 22 -28 l0 -36 -60 0
c-38 0 -60 4 -60 11 0 8 -4 8 -13 1 -9 -8 -221 -12 -683 -14 -635 -3 -671 -2
-666 15 3 13 15 17 52 17 78 0 104 9 129 45 32 47 31 92 -3 122 -15 13 -32 21
-37 18 -13 -9 -11 19 3 33 16 16 34 15 62 -3z m2660 -7 c3 -13 2 -24 -2 -26
-68 -25 -86 -66 -55 -123 12 -21 20 -39 18 -39 -3 0 -20 14 -40 31 -30 27 -35
37 -35 76 0 36 6 50 29 74 36 36 76 39 85 7z m-2780 -74 c3 -9 6 -33 6 -55 0
-32 -4 -39 -19 -39 -52 0 -64 26 -36 80 17 33 39 39 49 14z m2878 -1 c20 -18
25 -78 7 -88 -5 -4 -21 -4 -35 -1 -19 5 -24 13 -24 37 0 30 15 69 27 69 4 0
15 -7 25 -17z m-3332 -75 c40 -21 45 -27 48 -62 l3 -38 -31 35 c-21 25 -42 37
-70 42 -79 13 -139 -27 -160 -106 -16 -57 -40 -52 -40 9 0 61 32 108 90 134
34 15 116 8 160 -14z m3532 5 c27 -9 62 -32 80 -50 26 -26 31 -40 30 -73 -3
-65 -46 -130 -87 -130 -25 0 -175 145 -175 169 0 26 38 81 63 91 31 12 36 12
89 -7z m341 6 c64 -33 97 -101 76 -156 -12 -31 -10 -33 -39 45 -27 71 -113 99
-195 63 -58 -25 -71 -18 -30 15 50 41 142 57 188 33z m-3582 -28 c40 -40 37
-69 -17 -145 -53 -76 -53 -76 -97 -78 -66 -2 -107 51 -107 137 0 57 34 85 130
105 56 12 60 11 91 -19z m2886 -31 c137 -11 163 -16 163 -31 0 -5 -274 -9
-647 -9 l-647 0 -24 23 -24 22 6 -22 c7 -22 5 -23 -47 -23 -54 0 -67 8 -67 43
0 15 1089 12 1287 -3z m219 -111 c21 -15 51 -38 66 -51 74 -70 136 -89 158
-48 12 22 30 27 30 7 0 -15 50 -72 71 -80 11 -5 10 -9 -6 -22 -34 -28 -106
-13 -218 45 -93 49 -220 90 -276 90 -15 0 -33 10 -46 26 -19 23 -24 25 -43 15
-16 -9 -164 -13 -535 -15 -314 -2 -526 -7 -548 -13 -31 -9 -39 -8 -53 8 -12
15 -23 17 -48 11 -42 -9 -102 -9 -155 1 -36 6 -43 5 -43 -9 0 -13 -7 -15 -37
-9 -21 4 -274 9 -562 10 -396 2 -529 6 -547 15 -19 11 -26 11 -39 0 -8 -7 -15
-18 -15 -26 0 -8 -18 -15 -47 -19 -127 -17 -208 -43 -345 -111 -76 -38 -96
-41 -138 -19 -36 19 -36 22 -4 59 25 28 25 28 40 8 14 -21 15 -21 68 -3 75 26
114 48 126 71 13 23 89 70 133 80 18 5 694 7 1503 7 l1470 -2 40 -26z m-3489
-36 c-3 -10 -5 -2 -5 17 0 19 2 27 5 18 2 -10 2 -26 0 -35z m199 -84 c-12 -10
-47 2 -53 17 -3 8 -3 21 1 29 4 11 11 9 33 -13 15 -15 24 -30 19 -33z m516 39
c-7 -7 -12 -20 -12 -30 0 -22 -13 -23 -30 -3 -16 19 3 45 33 45 16 0 18 -3 9
-12z m94 -13 c8 -33 4 -37 -34 -29 -25 5 -32 12 -32 30 0 20 5 24 30 24 23 0
31 -5 36 -25z m431 17 c9 -6 2 -19 -25 -46 -36 -34 -47 -38 -135 -53 -92 -15
-99 -15 -138 3 -61 27 -89 52 -89 80 l0 24 188 0 c103 0 193 -4 199 -8z m514
-2 c80 -12 176 -50 185 -75 9 -22 20 -19 62 14 59 47 134 62 343 68 212 7 272
-2 311 -45 36 -39 78 -117 78 -144 0 -22 -1 -22 -25 8 -24 31 -25 31 -62 18
-21 -7 -48 -13 -60 -14 -26 0 -194 -58 -208 -71 -18 -17 -26 -9 -23 23 4 48
57 70 169 73 90 3 149 23 149 51 0 18 -65 49 -137 65 -45 10 -55 10 -70 -3
-10 -9 -51 -26 -91 -38 l-73 -22 -51 22 c-47 20 -57 21 -108 10 -73 -16 -137
-54 -162 -97 l-21 -35 -26 41 c-49 78 -182 114 -273 74 l-45 -20 -54 22 c-30
12 -73 32 -96 44 -24 12 -43 17 -43 11 0 -5 -16 -10 -35 -10 -77 0 -134 -44
-163 -126 -24 -67 -85 -114 -139 -107 -22 2 -55 -2 -78 -11 l-40 -16 42 4 c45
4 81 -13 69 -33 -4 -6 -12 -9 -17 -5 -6 3 -38 1 -72 -5 -34 -6 -118 -13 -187
-15 l-125 -3 55 14 c30 8 69 21 85 28 62 26 163 50 295 70 64 10 78 20 85 63
14 82 55 144 110 168 38 16 341 19 446 4z m1309 -14 c0 -25 -25 -48 -86 -79
-29 -15 -41 -15 -130 -2 -96 15 -100 16 -144 60 l-45 45 203 0 202 0 0 -24z
m110 15 c0 -6 -4 -12 -10 -16 -5 -3 -7 -12 -3 -20 4 -11 -3 -15 -26 -15 -26 0
-31 4 -31 23 0 13 3 27 7 30 10 11 63 8 63 -2z m74 -7 c8 -21 -1 -34 -24 -34
-22 0 -34 15 -26 35 7 20 42 19 50 -1z m161 -27 l50 -12 -90 -5 c-49 -3 -91
-4 -93 -3 -2 1 1 11 7 22 12 22 24 22 126 -2z m-2785 9 c0 -2 3 -11 6 -20 5
-14 -6 -15 -86 -12 -50 2 -94 6 -97 9 -7 8 76 25 130 26 26 1 47 -1 47 -3z
m830 -51 c78 -18 120 -34 120 -46 0 -5 -9 -9 -19 -9 -22 0 -204 40 -211 47 -5
5 21 23 35 23 6 0 39 -7 75 -15z m1110 6 c0 -11 -70 -36 -138 -50 -65 -13 -82
-14 -82 -2 0 5 35 17 78 26 42 9 84 21 92 26 20 11 50 11 50 0z m-1698 -27
c26 -14 46 -50 33 -62 -3 -4 -18 1 -33 10 -32 21 -56 32 -99 48 -18 7 -33 16
-33 20 0 11 102 -1 132 -16z m2528 17 c8 -1 -1 -9 -20 -17 -33 -14 -88 -12
-115 4 -21 13 70 22 135 13z m-2735 -16 c0 -15 -87 -25 -104 -11 -11 9 -9 12
10 18 34 9 94 5 94 -7z m1603 -22 c59 -45 70 -121 25 -180 -25 -32 -28 -34
-40 -17 -20 27 -16 49 12 64 16 9 25 22 25 38 0 29 -36 82 -56 82 -8 0 -30
-18 -50 -40 -39 -43 -65 -49 -123 -29 -33 11 -40 29 -18 47 9 8 19 4 36 -14
30 -32 52 -28 71 13 8 18 22 34 30 36 8 3 4 5 -10 6 l-25 2 25 14 c30 17 53
11 98 -22z m890 22 c2 -2 -14 -9 -35 -15 -21 -7 -47 -19 -58 -26 -11 -8 -31
-14 -44 -14 -25 0 -25 0 9 35 32 33 37 35 80 29 25 -4 46 -8 48 -9z m-1402 -3
c6 -4 15 -22 19 -40 12 -56 85 -70 85 -16 0 26 9 31 28 12 20 -20 14 -55 -10
-62 -47 -12 -85 -6 -112 19 -14 13 -26 29 -26 35 0 19 -41 10 -66 -15 -29 -29
-25 -68 10 -101 18 -16 21 -24 13 -42 -12 -27 -19 -27 -40 -4 -27 30 -49 92
-42 122 12 57 104 117 141 92z m-975 -47 l64 -24 -47 -1 c-44 0 -110 -22 -169
-55 -26 -14 -27 -14 -33 16 -12 60 -9 65 42 76 70 15 74 15 143 -12z m389 16
c0 -21 -60 -50 -155 -76 -297 -80 -447 -158 -625 -324 -99 -93 -128 -97 -71
-10 40 59 100 116 195 184 121 86 246 142 371 166 28 5 97 22 155 38 117 33
130 35 130 22z m232 -17 c53 -8 115 -21 138 -30 34 -14 40 -20 40 -46 0 -25
-3 -29 -17 -23 -72 31 -221 77 -269 83 -56 7 -57 8 -40 25 11 11 25 15 35 12
9 -4 60 -13 113 -21z m1518 -11 c52 -14 120 -31 151 -38 145 -36 289 -109 418
-214 52 -42 151 -159 151 -178 0 -20 -23 -5 -115 75 -193 167 -351 246 -659
329 -47 12 -73 25 -84 41 -18 27 -30 28 138 -15z m351 26 l69 -12 0 -45 c0
-38 -3 -43 -17 -39 -10 3 -49 17 -88 31 -38 13 -83 28 -100 31 l-29 6 39 19
c49 23 42 22 126 9z m-1017 -67 c-14 -22 -28 -21 -32 3 -5 21 19 38 33 24 6
-6 6 -15 -1 -27z m-546 9 c3 -8 -1 -12 -9 -9 -7 2 -15 10 -17 17 -3 8 1 12 9
9 7 -2 15 -10 17 -17z m-284 -46 c69 -25 89 -35 70 -35 -8 0 -146 28 -221 45
-13 3 -23 10 -23 17 0 17 94 2 174 -27z m1266 9 c6 -14 10 -27 10 -29 0 -7
-100 -35 -195 -54 -55 -11 -108 -23 -119 -27 -14 -5 -17 -3 -14 12 2 11 16 21
33 26 17 4 83 19 148 34 64 15 117 32 117 37 0 5 -12 6 -27 2 -16 -4 -66 -15
-113 -25 -47 -10 -94 -21 -105 -25 -18 -7 -18 -6 -5 7 22 22 98 49 155 55 28
3 52 7 54 9 2 2 15 4 28 4 16 0 27 -8 33 -26z m-960 -20 c0 -8 -4 -14 -10 -14
-5 0 -10 4 -10 9 0 5 -3 18 -7 28 -6 16 -5 16 10 4 9 -7 17 -20 17 -27z m1165
1 c162 -17 201 -34 83 -34 -74 -1 -88 1 -88 15 0 11 -5 14 -17 9 -42 -16 -72
-16 -102 -1 -33 17 -44 43 -13 31 9 -3 71 -12 137 -20z m-1512 -25 c55 -11
112 -20 127 -20 31 0 80 -34 67 -47 -13 -12 -212 -9 -294 6 -53 9 -73 17 -73
28 0 11 6 14 23 9 46 -14 214 -36 272 -35 83 1 34 14 -107 28 -105 10 -168 30
-168 53 0 6 11 8 28 5 15 -4 71 -16 125 -27z m769 -5 c41 -27 81 -76 97 -118
10 -27 12 -27 33 -13 35 25 110 21 135 -6 34 -38 44 -64 34 -91 -10 -25 -60
-67 -80 -67 -14 0 -31 33 -31 59 0 27 17 27 25 0 5 -14 14 -19 28 -17 31 4 36
59 8 87 -45 45 -131 7 -131 -57 0 -36 49 -88 91 -97 15 -4 45 -20 65 -36 76
-60 154 -61 250 -3 103 62 131 113 114 202 -6 32 -18 76 -27 100 -8 24 -12 46
-9 49 14 15 77 -63 93 -115 16 -50 16 -58 1 -116 -31 -119 -83 -170 -200 -202
-54 -14 -399 -21 -432 -8 -12 5 -13 10 -5 26 11 20 17 20 117 14 l106 -7 -39
27 c-92 62 -134 96 -140 114 -9 28 -18 25 -36 -13 -8 -17 -44 -53 -80 -79 -35
-26 -77 -58 -94 -71 -34 -28 -55 -25 -55 6 0 17 13 28 51 46 63 31 141 100
163 145 35 73 12 149 -62 199 -56 39 -97 45 -127 17 -20 -19 -24 -31 -22 -71
1 -34 -3 -53 -15 -65 -16 -16 -18 -16 -28 10 -13 35 -13 36 5 36 25 0 18 57
-11 86 -21 22 -31 25 -61 19 -45 -8 -107 -47 -129 -81 -9 -14 -19 -47 -22 -73
-3 -39 0 -55 21 -87 48 -75 144 -149 183 -141 23 4 25 2 22 -27 -2 -20 -9 -32
-20 -34 -30 -6 -204 145 -221 190 -3 9 -15 1 -38 -24 -36 -38 -131 -108 -149
-108 -5 0 -10 -3 -10 -8 0 -4 39 -4 88 -1 92 8 137 -3 137 -31 0 -13 -32 -15
-220 -14 -243 0 -271 5 -346 65 -96 76 -122 197 -66 311 23 48 51 77 63 65 2
-1 -3 -25 -11 -52 -22 -73 -29 -175 -13 -205 15 -27 96 -92 146 -116 18 -8 58
-18 88 -21 52 -6 59 -4 112 34 31 21 72 45 90 52 39 16 92 74 92 101 0 24 -45
66 -78 75 -14 3 -33 0 -47 -9 -24 -16 -42 -67 -30 -86 8 -13 45 -13 45 0 0 6
7 10 15 10 18 0 20 -31 3 -48 -20 -20 -45 -14 -72 19 -37 44 -34 80 9 118 42
36 75 39 127 11 l37 -19 10 32 c12 34 79 106 118 126 32 16 110 13 139 -6 24
-15 26 -15 47 6 19 19 29 21 67 16 25 -4 62 -17 82 -30z m-2224 -7 c3 -13 -3
-18 -22 -18 -16 0 -31 -9 -42 -24 -32 -50 20 -105 101 -107 22 0 48 -4 58 -8
17 -6 17 -8 3 -20 -20 -16 -104 -8 -148 15 -36 19 -62 75 -53 115 12 55 94 92
103 47z m4126 -9 c40 -47 31 -118 -17 -148 -27 -17 -147 -28 -147 -13 0 5 28
15 63 21 67 12 97 35 97 77 0 32 -33 64 -59 57 -23 -6 -24 -3 -15 21 10 26 50
19 78 -15z m-1344 -3 c0 -14 -53 -26 -175 -41 -71 -9 -37 8 60 29 44 10 85 19
90 21 20 7 25 5 25 -9z m343 -11 c34 -2 80 -11 102 -19 38 -14 33 -15 -117
-16 -130 0 -159 3 -172 16 -34 34 -21 35 187 19z m545 -53 c8 -13 38 -37 66
-53 67 -38 116 -78 96 -79 -29 0 -157 68 -178 95 -12 15 -22 42 -22 60 0 38
14 56 18 24 2 -12 11 -33 20 -47z m-874 12 c4 -9 4 -19 2 -21 -2 -3 -57 -9
-121 -15 -91 -8 -126 -8 -156 2 -21 7 -36 16 -34 20 8 13 58 18 74 8 11 -6 47
-5 111 5 52 8 100 15 106 16 7 0 15 -6 18 -15z m-1654 -2 c0 -4 -10 -16 -22
-26 -20 -17 -39 -19 -206 -18 -102 1 -187 4 -190 7 -14 13 19 16 197 18 105 1
191 5 191 9 0 4 -15 9 -32 11 -25 3 -22 4 15 5 26 1 47 -1 47 -6z m270 -11
c41 -4 102 -7 135 -5 l60 3 -36 -18 c-31 -15 -50 -17 -145 -10 -60 4 -119 8
-131 8 -16 1 -23 7 -23 21 0 18 5 20 33 15 17 -3 66 -9 107 -14z m1875 -11
c38 -6 73 -14 77 -18 7 -7 -368 -5 -389 3 -70 24 167 35 312 15z m-509 -66
c-7 -16 -22 -46 -31 -66 l-17 -38 -85 0 c-63 0 -84 3 -81 13 3 7 33 15 76 18
81 8 102 14 102 29 0 7 -12 9 -32 5 -68 -12 -148 -12 -148 0 0 8 30 14 91 18
51 3 97 11 103 17 8 9 -16 10 -96 5 -92 -6 -108 -5 -108 7 0 12 24 17 113 24
61 5 115 7 120 4 4 -4 1 -20 -7 -36z m-1662 17 c11 -18 -30 -21 -262 -21 -211
1 -234 2 -212 15 20 11 73 14 247 15 122 0 224 -4 227 -9z m404 -3 c-3 -9 -38
-15 -109 -18 l-104 -5 58 -9 c32 -5 78 -6 103 -3 32 3 44 1 44 -9 0 -9 -24
-13 -91 -16 l-92 -3 -23 31 c-13 17 -24 34 -24 37 0 4 54 7 121 7 92 0 120 -3
117 -12z m1902 -3 c21 -14 -122 -22 -297 -17 -117 4 -143 8 -143 20 0 12 31
14 213 10 116 -2 219 -8 227 -13z m-585 -34 c7 -33 -19 -93 -54 -125 -34 -31
-35 -13 -2 62 17 39 31 75 31 81 0 23 19 9 25 -18z m-1534 -88 c21 -50 14 -54
-23 -15 -33 33 -51 78 -42 104 5 18 8 16 26 -13 12 -19 29 -53 39 -76z m2189
67 c10 -7 -68 -10 -252 -10 -230 0 -268 2 -268 15 0 12 36 15 238 17 130 2
244 0 252 -4 8 -4 22 -12 30 -18z m-2380 10 c0 -6 -6 -12 -12 -15 -7 -2 -131
-5 -276 -8 -215 -3 -260 -2 -251 9 14 17 55 20 317 22 147 1 222 -1 222 -8z
m-903 -16 c-3 -3 -12 -4 -19 -1 -8 3 -5 6 6 6 11 1 17 -2 13 -5z m1317 -36 l6
-28 -89 0 c-82 0 -91 2 -102 21 -11 22 -11 22 80 15 83 -7 91 -6 91 10 0 23 6
15 14 -18z m550 16 c12 -12 13 -20 6 -35 -12 -21 -35 -27 -25 -6 4 6 0 4 -8
-5 -19 -23 -34 -23 -47 2 -8 15 -6 24 10 40 24 24 43 25 64 4z m-1037 -11 c68
-5 81 -8 72 -19 -9 -11 -72 -14 -318 -14 -245 1 -302 3 -286 13 34 20 368 33
532 20z m2440 -1 c45 -4 88 -13 95 -20 10 -10 -47 -12 -294 -12 -168 1 -308 4
-312 7 -3 3 -1 12 5 20 9 10 57 13 218 12 113 0 243 -4 288 -7z m-772 -80
c-11 -11 -119 -4 -151 10 -27 12 -22 13 61 18 70 4 91 2 93 -8 2 -8 1 -17 -3
-20z m-1585 11 c0 -17 -21 -18 -303 -17 -290 0 -375 7 -346 25 7 4 156 8 331
8 297 1 318 0 318 -16z m420 8 c0 -14 -83 -33 -125 -29 -27 2 -41 8 -43 19 -3
14 9 17 82 17 48 1 86 -3 86 -7z m2078 -8 c3 -10 -67 -13 -327 -13 -182 0
-331 4 -331 8 0 5 3 12 7 15 4 4 151 6 326 5 246 -2 321 -6 325 -15z m-2508
-53 c0 -6 -89 -10 -247 -10 -164 0 -243 4 -233 10 20 13 480 13 480 0z m2330
-1 c-130 -11 -448 -11 -455 1 -4 7 87 9 267 8 199 -1 250 -3 188 -9z m833 -79
c-18 -31 -29 -36 -52 -21 -11 7 -11 10 0 17 12 8 59 31 67 33 2 1 -5 -12 -15
-29z m-4433 -22 c0 -14 -58 -8 -63 6 -3 8 -3 16 -1 19 7 7 64 -16 64 -25z"/>
<path d="M5160 8345 c0 -29 34 -36 44 -9 10 27 7 34 -19 34 -20 0 -25 -5 -25
-25z"/>
<path d="M4950 8352 c0 -19 18 -42 32 -42 4 0 8 14 8 30 0 23 -4 30 -20 30
-13 0 -20 -7 -20 -18z"/>
<path d="M4650 8071 c0 -6 10 -15 21 -22 17 -9 23 -8 30 2 9 16 11 15 -23 23
-16 4 -28 2 -28 -3z"/>
<path d="M4665 7990 c-4 -7 -18 -9 -32 -5 -20 5 -24 2 -21 -12 5 -27 44 -29
58 -3 12 23 7 40 -5 20z"/>
<path d="M5500 7969 c0 -15 5 -20 22 -17 34 5 37 38 4 38 -20 0 -26 -5 -26
-21z"/>
<path d="M7074 7638 c3 -13 10 -57 17 -98 18 -113 45 -139 88 -84 41 52 16
132 -58 181 -43 29 -53 29 -47 1z"/>
<path d="M3015 7639 c-75 -56 -96 -133 -51 -186 20 -22 28 -26 42 -17 26 15
46 81 46 149 1 33 5 66 11 73 17 21 -7 12 -48 -19z"/>
<path d="M4640 7700 c0 -5 11 -10 25 -10 14 0 25 5 25 10 0 6 -11 10 -25 10
-14 0 -25 -4 -25 -10z"/>
<path d="M4957 7374 c-4 -4 -7 -18 -7 -32 0 -18 4 -23 16 -18 9 3 20 6 26 6 5
0 8 10 6 22 -3 23 -27 35 -41 22z"/>
<path d="M5480 7690 c0 -5 4 -10 9 -10 6 0 13 5 16 10 3 6 -1 10 -9 10 -9 0
-16 -4 -16 -10z"/>
<path d="M5339 7468 c0 -7 -2 -22 -4 -33 -1 -11 -6 -51 -10 -90 -7 -62 -5 -73
13 -95 23 -28 39 -22 23 8 -15 28 -14 87 3 152 8 30 12 58 10 62 -8 13 -34 9
-35 -4z"/>
<path d="M5170 7350 c0 -23 4 -30 20 -30 13 0 20 7 20 20 0 10 -9 24 -20 30
-18 10 -20 8 -20 -20z"/>
<path d="M5064 2845 c-8 -21 2 -45 20 -45 15 0 25 27 19 48 -6 17 -32 15 -39
-3z"/>
<path d="M5062 2664 c-27 -18 -28 -45 -4 -67 24 -22 35 -21 56 2 22 24 18 49
-9 67 -18 12 -24 11 -43 -2z"/>
<path d="M6691 1974 c-17 -39 -6 -66 26 -58 19 5 31 1 50 -20 30 -33 43 -26
43 24 0 30 -6 43 -26 59 -38 30 -78 28 -93 -5z"/>
<path d="M3338 1983 c-9 -10 -19 -32 -23 -50 -10 -51 26 -61 108 -28 21 9 22
43 1 73 -19 27 -64 29 -86 5z m53 -56 c-10 -27 -29 -33 -37 -13 -8 20 13 47
31 40 9 -4 11 -12 6 -27z"/>
<path d="M3978 1493 c23 -2 61 -2 85 0 23 2 4 4 -43 4 -47 0 -66 -2 -42 -4z"/>
</g>
</svg>
