<?xml version="1.0" encoding="UTF-8" standalone="no"?>
<!-- Created with Inkscape (http://www.inkscape.org/) -->

<svg
   width="1875"
   height="2625"
   viewBox="0 0 496.09376 694.53124"
   version="1.1"
   id="svg1"
   xml:space="preserve"
   inkscape:export-filename="..\Documents\GitHub\runas\public\frey.svg"
   inkscape:export-xdpi="96"
   inkscape:export-ydpi="96"
   inkscape:version="1.3 (0e150ed6c4, 2023-07-21)"
   sodipodi:docname="drawing.svg"
   xmlns:inkscape="http://www.inkscape.org/namespaces/inkscape"
   xmlns:sodipodi="http://sodipodi.sourceforge.net/DTD/sodipodi-0.dtd"
   xmlns="http://www.w3.org/2000/svg"
   xmlns:svg="http://www.w3.org/2000/svg"><sodipodi:namedview
     id="namedview1"
     pagecolor="#ffffff"
     bordercolor="#111111"
     borderopacity="1"
     inkscape:showpageshadow="0"
     inkscape:pageopacity="0"
     inkscape:pagecheckerboard="1"
     inkscape:deskcolor="#d1d1d1"
     inkscape:document-units="mm"
     inkscape:zoom="0.27118408"
     inkscape:cx="381.65957"
     inkscape:cy="1237.167"
     inkscape:window-width="2494"
     inkscape:window-height="1057"
     inkscape:window-x="58"
     inkscape:window-y="-8"
     inkscape:window-maximized="1"
     inkscape:current-layer="layer1"><sodipodi:guide
       position="0,694.53125"
       orientation="0,1875"
       id="guide1"
       inkscape:locked="false" /><sodipodi:guide
       position="496.09375,694.53125"
       orientation="2625,0"
       id="guide2"
       inkscape:locked="false" /><sodipodi:guide
       position="496.09375,0"
       orientation="0,-1875"
       id="guide3"
       inkscape:locked="false" /><sodipodi:guide
       position="0,0"
       orientation="-2625,0"
       id="guide4"
       inkscape:locked="false" /></sodipodi:namedview><defs
     id="defs1" /><g
     inkscape:label="Layer 1"
     inkscape:groupmode="layer"
     id="layer1"><g
       transform="matrix(0.06515041,0,0,-0.06515041,-86.902548,658.2874)"
       fill="#000000"
       stroke="none"
       id="g5"
       style="fill:#4d4d4d;fill-opacity:0.212264"><path
         d="M -198.33524,4773.9034 V -565.6038 H 5141.172 10480.678 V 4773.9034 10113.411 H 5141.172 -198.33524 Z M 5227.7304,9932.9938 c 115.7589,-49.015 173.1169,-178.3312 126.1876,-286.7899 l -16.6859,-38.5863 -17.7289,52.1436 c -9.3858,29.2005 -29.2004,71.9582 -42.7578,93.8586 l -25.0289,40.672 -9.3858,-35.4577 c -32.3291,-126.1875 -42.7578,-151.2165 -70.9154,-180.4169 -28.1575,-27.1147 -36.5005,-30.2433 -78.2154,-25.029 -60.4866,6.2573 -122.0161,49.015 -144.9593,101.1587 -28.1575,62.5723 -17.7288,155.388 21.9003,205.4459 60.4866,76.1296 173.1169,107.4159 257.5895,73.001 z M 4184.8579,9760.9199 c -182.5026,-152.2594 -288.8756,-322.2476 -304.5187,-487.0217 l -6.2573,-73.0011 -93.8585,-32.329 c -51.1007,-17.7289 -113.6731,-41.7149 -137.6591,-54.2294 -25.029,-12.5145 -45.8864,-18.7717 -50.0579,-12.5145 -8.343,12.5145 11.4716,132.4448 31.2861,188.76 47.9722,135.5736 184.5885,285.7472 366.0483,401.5061 56.3151,36.5005 227.3462,117.8446 247.1608,118.8874 4.1715,0 -18.7717,-22.9431 -52.1437,-50.0578 z m 1101.2734,-269.0611 c 1.0429,-101.1587 -26.0718,-215.8749 -74.0439,-314.9477 -25.029,-51.1008 -59.4438,-95.9443 -128.2734,-164.7739 -141.8306,-143.9164 -252.3751,-192.9314 -530.8221,-233.6034 -109.5016,-15.6431 -156.4308,-27.1147 -189.8028,-46.9293 -60.4866,-35.4577 -80.3011,-33.3719 -128.2733,14.6002 -62.5723,62.5724 -64.6581,124.1018 -6.2572,183.5456 39.6291,38.5863 106.373,59.4437 276.3612,82.3869 254.4609,36.5005 431.7492,123.059 586.0943,286.7899 76.1297,80.3014 140.7878,199.1889 165.8168,303.4761 l 13.5573,57.358 7.3001,-41.7149 c 4.1715,-22.9432 8.343,-79.2583 8.343,-126.1875 z m 879.1415,12.5144 c 16.686,-63.6152 19.8146,-107.4158 16.686,-193.9743 -3.1286,-109.5018 -4.1715,-114.7161 -52.1437,-209.6175 -36.5005,-74.044 -75.0868,-128.2733 -156.4308,-221.089 -169.9882,-193.9743 -203.3602,-237.7749 -236.7321,-305.5616 -68.8296,-136.6163 -67.7867,-239.8607 0,-377.5199 23.9861,-46.9292 41.7149,-87.6013 39.6292,-89.687 -2.0858,-3.1286 -17.7289,-8.343 -33.3719,-11.4716 -23.9861,-6.2572 -34.4148,-2.0858 -63.6153,30.2433 -110.5445,115.7588 -135.5734,330.5906 -58.4008,495.3644 37.5434,79.2583 68.8296,118.8875 223.1747,282.6185 163.731,174.1597 217.9603,257.5895 257.5895,403.5916 18.7717,68.8298 21.9003,100.116 17.7288,216.9177 -4.1715,125.1447 -4.1715,132.4448 10.4287,99.0729 8.343,-19.8146 23.9861,-73.0011 35.4577,-118.8875 z m 151.2165,-14.6002 c 22.9432,-113.6731 14.6002,-262.8041 -21.9003,-372.3057 -36.5005,-107.4158 -88.6442,-193.9743 -199.1886,-327.4619 -102.2015,-124.1019 -132.4449,-172.074 -155.388,-250.2894 -37.5435,-129.3162 -12.5145,-230.4749 79.2583,-315.9904 l 52.1436,-50.0579 h -37.5434 c -75.0868,0 -131.402,39.6292 -173.1169,120.9732 -18.7717,36.5006 -20.8574,37.5434 -14.6002,9.3859 3.1286,-16.686 14.6002,-60.4866 26.0718,-95.9443 10.4288,-35.4576 19.8146,-67.7867 19.8146,-70.9153 0,-17.7288 -67.7867,37.5434 -93.8585,77.1726 -44.8435,67.7867 -55.2722,108.4587 -50.0579,204.403 6.2572,116.8017 41.7149,187.717 164.7739,329.5477 166.8596,191.8885 216.9174,258.6323 259.6752,346.2336 66.7439,135.5735 109.5016,346.2339 99.0729,487.0217 l -4.1715,57.358 15.6431,-34.4148 c 9.3859,-19.8146 23.9861,-70.9153 33.3719,-114.716 z m -1181.5745,-32.329 c 6.2572,-10.4288 -51.1008,-63.6153 -67.7867,-63.6153 -5.2144,0 -9.3859,16.686 -9.3859,36.5006 0,34.4148 2.0858,36.5005 35.4577,36.5005 19.8146,0 38.5863,-4.1715 41.7149,-9.3858 z M 4200.501,9123.7246 c 74.044,-19.8146 127.2305,-44.8436 127.2305,-62.5724 0,-4.1715 -19.8146,-14.6002 -43.8007,-21.9003 -66.7438,-19.8146 -118.8874,-47.9721 -142.8735,-79.2583 -32.329,-40.672 -30.2433,-129.3162 4.1715,-199.1887 28.1575,-56.3151 118.8875,-149.1307 146.0021,-149.1307 8.343,0 15.6431,-4.1715 15.6431,-9.3859 0,-6.2572 -12.5144,-6.2572 -29.2004,-2.0857 -94.9014,28.1575 -150.1736,86.5584 -195.0172,208.5745 -13.5573,34.4148 -14.6002,26.0718 -14.6002,-101.1587 -1.0428,-127.2304 -2.0857,-138.702 -18.7717,-133.4876 -10.4287,2.0857 -106.373,26.0718 -212.746,53.1865 -248.2036,60.4866 -301.3901,76.1297 -301.3901,89.687 0,16.686 55.2722,92.8156 100.1157,138.702 111.5874,113.6731 326.4191,203.3602 497.4502,205.4459 47.9722,0 51.1008,2.0858 28.1576,11.4716 -37.5434,15.6431 -210.6603,2.0858 -297.2187,-22.9432 -190.8456,-55.2722 -352.4909,-178.3312 -438.0064,-334.7621 -20.8575,-38.5862 -23.9861,-52.1436 -13.5574,-55.2722 107.4159,-35.4577 859.327,-207.5316 1072.073,-247.1608 166.8596,-30.2433 156.4308,-25.0289 156.4308,-66.7438 0,-44.8435 3.1286,-44.8435 -191.8885,-9.3859 -294.0901,53.1865 -1113.7878,245.0751 -1136.731,265.9325 -14.6002,12.5145 80.3012,196.06 136.6163,261.761 178.3312,211.7031 502.6645,324.3334 751.911,259.6753 z m 1028.2723,-193.9743 c 16.686,-25.029 16.686,-26.0718 -6.2572,-25.029 -13.5574,1.0429 -35.4577,4.1715 -50.0579,8.343 l -25.0289,7.3001 25.0289,17.7289 c 33.3719,22.9432 36.5005,22.9432 56.3151,-8.343 z m 1.0429,-99.0729 c 22.9432,-18.7717 20.8574,-56.3151 -2.0858,-46.9293 -10.4287,4.1715 -57.3579,9.3859 -104.2872,12.5145 -47.9721,3.1286 -86.5584,9.3859 -86.5584,14.6002 0,4.1715 8.343,15.6431 17.7288,25.029 14.6002,14.6002 31.2862,16.6859 88.6442,13.5573 38.5863,-3.1286 78.2154,-11.4716 86.5584,-18.7717 z m -9.3859,-109.5016 c 38.5863,-25.029 33.372,-49.015 -8.3429,-41.7149 -18.7718,4.1715 -64.6581,7.3001 -102.2016,9.3858 -50.0578,1.0429 -67.7867,6.2573 -67.7867,16.686 0,41.7149 123.059,52.1436 178.3312,15.6431 z m -600.6945,-54.2294 c 7.3001,-21.9003 14.6002,-76.1297 17.7288,-119.9303 5.2144,-75.0868 4.1715,-81.3441 -13.5573,-80.3012 -41.7149,2.0857 -124.1019,26.0718 -124.1019,35.4577 2.0858,29.2004 17.7289,158.5166 21.9004,174.1597 5.2143,15.6431 25.0289,23.986 68.8295,28.1575 12.5145,1.0429 21.9004,-11.4716 29.2005,-37.5434 z m -183.5456,-38.5863 c -3.1286,-8.3429 -13.5573,-17.7288 -22.9432,-21.9003 -13.5573,-5.2144 -13.5573,-2.0857 3.1286,15.6431 21.9004,25.0289 27.1147,26.0718 19.8146,6.2572 z m 777.9829,-9.3858 c 31.2862,-15.6431 44.8435,-66.7439 13.5573,-54.2294 -10.4287,4.1715 -56.3151,9.3859 -102.2015,11.4716 -86.5584,3.1286 -108.4587,16.686 -71.9582,42.7578 23.9861,17.7288 126.1876,17.7288 160.6024,0 z m -7.3001,-102.2015 c 20.8574,-5.2144 38.5863,-14.6002 38.5863,-19.8146 0,-4.1715 3.1286,-16.686 6.2572,-26.0718 5.2144,-13.5574 2.0858,-15.6431 -17.7288,-11.4716 -13.5574,3.1286 -62.5724,8.343 -108.4588,10.4287 -86.5584,5.2144 -101.1586,13.5574 -73.001,41.7149 19.8145,19.8146 93.8585,21.9003 154.3451,5.2144 z m 1159.6742,-20.8575 c 104.2873,-31.2862 207.5316,-86.5584 255.5038,-134.5305 22.9432,-22.9432 41.7149,-45.8864 41.7149,-52.1437 0,-16.6859 -46.9293,-12.5144 -104.2873,9.3859 -28.1575,11.4716 -52.1436,17.7288 -52.1436,14.6002 0,-3.1286 11.4716,-18.7717 26.0718,-36.5005 14.6002,-16.686 26.0718,-34.4148 26.0718,-39.6292 0,-14.6002 -195.0171,-68.8296 -206.4887,-58.4008 -3.1287,3.1286 7.3001,15.6431 22.9432,28.1575 15.643,12.5145 27.1146,23.9861 25.0289,25.029 -2.0857,2.0857 -36.5005,-5.2144 -76.1297,-16.686 -81.3441,-21.9003 -135.5734,-25.0289 -147.045,-8.343 -10.4287,17.7289 47.9721,70.9154 115.7588,103.2444 80.3012,39.6292 64.6581,38.5863 -62.5723,0 -112.6303,-34.4148 -153.3023,-38.5863 -172.074,-15.6431 -19.8146,23.9861 -8.343,49.015 41.7149,87.6013 49.015,37.5434 51.1008,36.5005 -38.5863,16.686 l -34.4148,-7.3001 v 46.9292 c 0,45.8864 2.0858,49.015 34.4148,59.4437 52.1437,15.6431 221.089,4.1715 304.5188,-21.9003 z M 7566.8934,8335.313 c 68.8296,-140.7878 75.0869,-163.731 54.2294,-208.5745 -9.3858,-20.8575 -9.3858,-41.7149 1.0429,-92.8157 l 13.5573,-65.701 -39.6291,-61.5294 c -32.3291,-51.1008 -39.6292,-57.358 -45.8864,-39.6292 -4.1715,10.4287 -18.7717,104.2873 -31.2862,207.5316 -22.9432,186.6742 -39.6291,255.5038 -42.7578,182.5027 -13.5573,-286.7899 -13.5573,-286.7899 -35.4576,-286.7899 -17.7289,0 -21.9004,9.3858 -27.1147,60.4866 -5.2144,45.8864 -13.5574,67.7867 -34.4148,89.687 l -28.1576,29.2005 47.9722,153.3022 c 26.0718,84.4727 53.1865,164.7739 59.4437,179.3741 11.4716,25.0289 13.5573,26.0718 27.1147,7.3001 8.343,-10.4287 44.8435,-79.2583 81.344,-154.3451 z m -4057.8168,136.6163 c 118.8874,-32.3291 160.6023,-50.0579 189.8028,-81.3441 23.986,-25.0289 117.8446,-211.7031 117.8446,-233.6034 0,-7.3001 -18.7717,-30.2433 -41.7149,-52.1437 -22.9432,-21.9003 -41.7149,-42.7577 -41.7149,-45.8864 0,-3.1286 19.8145,-11.4715 44.8435,-18.7717 69.8724,-19.8145 122.0161,-76.1296 122.0161,-132.4448 0,-55.2722 -63.6153,-160.6023 -119.9304,-197.1029 -22.9432,-14.6002 -22.9432,-14.6002 -25.0289,52.1437 -2.0858,68.8295 -19.8146,142.8735 -20.8575,87.6013 -2.0857,-47.9722 -58.4008,-149.1308 -113.6731,-200.2316 -29.2004,-28.1575 -57.358,-50.0578 -61.5294,-50.0578 -4.1715,0 -9.3859,27.1146 -10.4288,60.4866 -1.0428,32.329 -7.3001,74.0439 -14.6002,90.7299 l -12.5145,31.2861 -8.3429,-50.0578 c -9.3859,-60.4866 -31.2862,-95.9443 -75.0869,-122.0161 -40.672,-25.029 -104.2872,-27.1147 -126.1875,-4.1715 -23.9861,22.9432 -20.8575,57.358 15.6431,169.9882 28.1575,86.5584 30.2433,104.2873 19.8145,133.4877 -13.5573,40.672 -7.3001,55.2722 26.0718,55.2722 22.9432,0 45.8864,-20.8574 91.7728,-83.4298 12.5145,-16.6859 10.4288,-10.4287 -4.1715,17.7289 -30.2433,57.3579 -57.358,82.3869 -103.2443,93.8585 -21.9004,6.2572 -37.5435,16.6859 -39.6292,28.1575 -5.2144,22.9432 26.0718,58.4009 52.1436,58.4009 10.4288,0 18.7717,6.2572 18.7717,14.6002 0,15.6431 -43.8006,27.1147 -103.2443,27.1147 -66.7439,0 -67.7868,12.5145 -8.343,131.4019 34.4148,68.8296 60.4866,107.4159 70.9153,107.4159 29.2004,1.0429 44.8435,-29.2004 43.8007,-81.3441 l -2.0858,-47.9721 20.8575,39.6292 c 20.8574,39.6291 49.015,50.0578 69.8724,25.0289 9.3859,-11.4716 25.029,-7.3001 80.3012,17.7288 37.5434,17.7289 67.7867,34.4148 67.7867,38.5863 0,11.4716 -77.1726,29.2004 -176.2454,40.672 -53.1865,6.2573 -102.2015,13.5574 -106.373,16.686 -12.5145,7.3001 -11.4716,29.2004 3.1286,61.5295 14.6002,33.3719 37.5434,33.3719 159.5595,1.0429 z m 1710.3109,-70.9154 c 14.6002,-6.2572 26.0718,-20.8574 26.0718,-32.329 0,-18.7717 -5.2144,-19.8146 -47.9722,-13.5574 -27.1146,3.1287 -74.0439,6.2573 -104.2872,6.2573 -57.358,0 -70.9153,12.5144 -43.8007,39.6291 15.6431,15.6431 134.5306,16.686 169.9883,0 z M 3957.5117,8212.254 c 167.9025,-296.1758 182.5027,-323.2905 182.5027,-342.0622 0,-70.9153 -138.702,76.1297 -219.0032,232.5606 -39.6291,77.1726 -83.4298,206.4887 -83.4298,247.1608 0,28.1575 2.0858,31.2861 18.7717,20.8574 9.3859,-6.2572 55.2723,-78.2154 101.1586,-158.5166 z m 143.9164,11.4716 c 47.9722,-64.6581 118.8875,-155.388 156.4309,-201.2744 38.5863,-45.8864 68.8296,-90.7299 67.7867,-99.0729 -2.0857,-8.343 -20.8574,-19.8146 -42.7577,-25.0289 -50.0579,-12.5145 -67.7868,4.1715 -155.388,138.702 -85.5156,132.4448 -156.4309,303.4759 -124.1019,303.4759 5.2144,0 50.0579,-53.1865 98.03,-116.8017 z m 214.8318,-74.0439 c 56.3151,-76.1297 113.6731,-147.0451 125.1447,-157.4738 27.1147,-25.0289 28.1575,-44.8435 1.0429,-53.1865 -29.2005,-9.3858 -53.1865,7.3001 -118.8875,80.3012 -59.4437,65.701 -152.2594,231.5177 -152.2594,270.104 0,38.5863 38.5863,2.0857 144.9593,-139.7449 z m 892.6988,144.9592 c 26.0718,-11.4716 36.5006,-21.9003 36.5006,-37.5434 0,-19.8146 -4.1715,-21.9003 -30.2433,-15.6431 -16.686,3.1287 -61.5295,8.343 -101.1587,10.4288 -54.2293,3.1286 -73.001,8.3429 -75.0868,19.8145 -7.3001,35.4577 105.3301,50.0579 169.9882,22.9432 z m -692.4673,-153.3022 c 65.701,-69.8725 119.9303,-130.3591 122.0161,-134.5306 2.0857,-5.2143 -13.5574,-13.5573 -33.3719,-20.8574 -33.372,-10.4288 -40.6721,-9.3859 -67.7868,10.4287 -69.8724,49.015 -178.3311,206.4888 -178.3311,258.6324 0,36.5005 49.015,1.0429 157.4737,-113.6731 z m 21.9003,58.4008 c 9.3859,-17.7288 6.2573,-16.6859 -16.6859,4.1715 -14.6003,14.6002 -27.1147,33.3719 -27.1147,41.7149 1.0428,13.5574 4.1715,12.5145 16.6859,-4.1715 9.3859,-11.4716 20.8575,-30.2433 27.1147,-41.7149 z m 2228.6185,13.5574 c 5.2144,-13.5574 7.3001,-27.1147 4.1715,-31.2862 -16.6859,-28.1576 -530.8221,-148.0879 -769.6399,-179.3741 -174.1597,-22.9432 -414.0203,-17.7288 -373.3483,7.3001 7.3001,4.1715 122.0161,25.029 255.5037,44.8436 306.6046,45.8863 592.3516,107.4158 795.7118,169.9882 54.2293,16.6859 78.2154,13.5573 87.6012,-11.4716 z m -1539.2798,-36.5006 c 30.2433,-15.643 35.4577,-54.2293 6.2573,-45.8863 -8.343,3.1286 -56.3151,7.3001 -106.373,9.3858 -78.2155,3.1286 -91.7728,7.3001 -88.6442,20.8575 8.343,42.7577 116.8017,52.1436 188.7599,15.643 z m 356.6624,-44.8435 26.0718,-51.1007 -37.5434,-7.3001 c -19.8145,-3.1287 -38.5862,-4.1715 -41.7149,-2.0858 -5.2143,6.2573 15.6431,112.6302 22.9432,112.6302 2.0858,0 15.6431,-22.9431 30.2433,-52.1436 z m 2247.3899,15.6431 c 0,-80.3012 -143.916,-423.4062 -223.1744,-531.865 -49.015,-66.7438 -134.5305,-214.8317 -127.2304,-221.0889 3.1286,-4.1715 12.5145,-1.0429 18.7717,5.2143 21.9003,21.9004 46.9293,13.5574 75.0868,-23.986 l 28.1576,-36.5006 -32.3291,-58.4008 c -29.2004,-50.0579 -35.4576,-55.2723 -50.0578,-43.8007 -40.6721,31.2862 -200.2316,168.9454 -200.2316,173.1169 0,2.0857 29.2005,37.5434 65.701,79.2583 159.5595,179.374 330.5906,465.1211 376.4767,624.6806 14.6002,52.1436 20.8574,59.4437 42.7577,59.4437 20.8575,0 26.0718,-5.2143 26.0718,-26.0718 z m -554.8078,-98.03 c 25.0289,-38.5863 89.687,-117.8446 144.9593,-177.2883 107.4158,-114.716 106.373,-110.5445 59.4437,-173.1169 -15.6431,-19.8145 -17.7288,-18.7717 -66.7438,36.5006 -93.8586,104.2872 -250.2894,360.8339 -232.5606,379.6056 4.1715,3.1286 16.686,6.2572 28.1576,5.2143 15.643,0 35.4576,-21.9003 66.7438,-70.9153 z m -2135.8029,20.8574 c 0,-9.3858 -84.4726,-23.986 -93.8585,-15.643 -2.0857,3.1286 2.0857,9.3858 10.4287,14.6002 19.8146,12.5144 83.4298,13.5573 83.4298,1.0428 z m 1625.8382,-44.8435 c 18.7717,-62.5723 11.4716,-84.4726 -25.0289,-70.9153 -39.6292,14.6002 -131.4019,12.5145 -161.6452,-5.2144 -26.0718,-14.6002 -25.029,-14.6002 18.7717,-15.6431 45.8864,0 106.373,-23.986 106.373,-41.7148 0,-15.6431 -20.8575,-23.9861 -81.3441,-30.2434 -32.329,-3.1286 -59.4437,-11.4715 -61.5295,-16.6859 -2.0857,-6.2572 13.5574,-19.8146 34.4148,-31.2862 21.9003,-11.4716 44.8435,-34.4148 52.1436,-52.1436 7.3002,-16.686 13.5574,-23.9861 14.6003,-15.6431 0,20.8575 52.1436,102.2015 68.8295,108.4587 8.343,3.1287 33.372,-30.2433 64.6581,-85.5155 27.1147,-50.0579 57.358,-101.1586 65.701,-114.716 13.5574,-21.9003 12.5145,-26.0718 -5.2144,-39.6291 -11.4715,-8.343 -38.5862,-14.6002 -60.4866,-14.6002 -44.8435,0 -66.7438,-26.0719 -36.5005,-43.8007 10.4287,-5.2144 17.7288,-20.8574 17.7288,-35.4577 0,-19.8145 -8.3429,-29.2004 -38.5862,-42.7577 -34.4148,-13.5574 -37.5435,-16.686 -20.8575,-29.2005 19.8146,-14.6002 23.9861,-41.7149 6.2572,-52.1436 -7.3001,-5.2143 -8.3429,-25.0289 -4.1714,-56.3151 9.3858,-66.7438 -14.6003,-88.6442 -91.7728,-86.5584 -73.0011,2.0857 -188.7599,27.1147 -221.089,47.9721 -39.6292,26.0718 -80.3012,93.8585 -85.5155,144.9593 -5.2144,40.672 1.0428,56.3151 63.6152,166.8596 37.5434,66.7438 68.8296,128.2733 68.8296,138.702 0,14.6003 11.4716,57.358 58.4008,220.0461 8.343,30.2433 20.8575,57.358 27.1147,61.5295 22.9432,14.6002 150.1736,44.8435 180.417,42.7578 26.0718,-2.0858 32.329,-8.343 45.8863,-51.1008 z m -390.0343,-102.2015 c -10.4287,-34.4148 -27.1147,-76.1297 -37.5434,-92.8156 -17.7288,-29.2005 -19.8146,-30.2433 -60.4866,-19.8146 -23.9861,6.2572 -42.7578,16.686 -42.7578,22.9432 1.0429,26.0718 71.9582,128.2733 104.2873,150.1736 50.0579,33.3719 60.4866,17.7289 36.5005,-60.4866 z m -976.1286,25.029 c 156.4308,-22.9432 343.105,-73.0011 636.1522,-169.9883 139.7449,-46.9292 262.8039,-84.4726 273.2326,-84.4726 11.4716,0 19.8146,-2.0858 19.8146,-4.1715 0,-3.1286 -23.9861,-42.7578 -54.2294,-90.7299 -54.2294,-84.4727 -54.2294,-84.4727 -70.9153,-60.4866 -47.9722,73.001 -99.0729,108.4587 -192.9314,137.6591 -203.3602,61.5295 -557.9368,123.059 -797.7975,138.7021 -249.2465,14.6002 -889.5702,-96.9872 -1011.5863,-177.2883 -20.8575,-13.5574 -53.1865,-45.8864 -73.0011,-71.9582 -19.8146,-27.1147 -38.5863,-49.015 -41.7149,-49.015 -11.4716,0 -104.2872,160.6023 -95.9443,167.9024 9.3859,10.4287 378.5628,130.3591 580.88,189.8028 132.4448,38.5863 236.7321,62.5724 380.6485,83.4298 73.001,11.4716 346.2336,6.2573 447.3923,-9.3858 z m 824.9121,4.1715 c 0,-7.3002 -14.6002,-36.5006 -32.329,-63.6153 -28.1576,-45.8864 -34.4148,-50.0578 -59.4438,-43.8006 -15.6431,4.1715 -29.2004,8.343 -31.2861,10.4287 -6.2573,6.2572 26.0718,62.5724 45.8864,79.2583 34.4147,29.2005 77.1725,39.6292 77.1725,17.7289 z m -146.0021,-25.029 c 0,-20.8574 -25.029,-45.8864 -46.9293,-45.8864 -32.329,0 -33.3719,14.6002 -3.1286,35.4577 22.9432,16.6859 50.0579,21.9003 50.0579,10.4287 z m -3475.8941,-186.6742 6.2573,-60.4866 19.8146,38.5863 c 19.8145,39.6292 54.2293,50.0579 79.2583,25.029 20.8574,-20.8575 15.6431,-58.4009 -10.4288,-62.5724 -32.329,-4.1715 -34.4147,-23.9861 -3.1286,-37.5434 40.6721,-18.7717 36.5006,-68.8296 -7.3001,-91.7728 l -33.3719,-17.7288 43.8006,-37.5434 c 52.1437,-44.8435 54.2294,-65.701 12.5145,-127.2305 -16.6859,-25.0289 -31.2862,-53.1865 -31.2862,-62.5723 0,-8.343 14.6003,-37.5434 31.2862,-64.6581 17.7288,-27.1147 31.2862,-55.2723 31.2862,-61.5295 0,-7.3001 -21.9003,-9.3858 -69.8725,-5.2144 -39.6291,4.1715 -86.5584,7.3002 -104.2872,7.3002 -41.7149,0 -44.8435,17.7288 -9.3859,59.4437 52.1437,62.5723 52.1437,70.9153 11.4716,136.6163 -19.8146,33.3719 -36.5005,66.7438 -36.5005,75.0868 0,13.5573 -2.0858,13.5573 -10.4287,0 -5.2144,-8.343 -10.4288,-47.9721 -10.4288,-88.6442 l -1.0428,-73.001 -30.2433,34.4148 c -27.1147,28.1575 -31.2862,41.7149 -31.2862,89.687 0,47.9721 9.3858,76.1297 58.4008,177.2883 40.6721,81.3441 60.4867,137.6592 64.6581,173.1169 6.2573,67.7867 21.9004,54.2293 30.2433,-26.0719 z m 231.5177,-174.1597 c 43.8007,-125.1447 43.8007,-192.9314 0,-242.9893 -29.2004,-33.3719 -61.5294,-47.9721 -61.5294,-28.1575 0,4.1715 7.3001,30.2433 15.6431,59.4437 14.6002,46.9293 14.6002,58.4009 -2.0858,130.3591 -19.8146,84.4726 -25.0289,273.2326 -9.3858,307.6474 7.3001,15.6431 11.4716,3.1286 17.7288,-57.358 4.1715,-42.7578 22.9432,-118.8875 39.6291,-168.9454 z m 2445.536,41.7149 c 3.1287,-47.9721 15.6431,-717.4962 27.1147,-1489.2219 11.4716,-771.7256 29.2005,-1691.5392 38.5863,-2044.0301 14.6002,-477.6356 18.7717,-949.0139 18.7717,-1845.8843 0,-1318.19082 3.1286,-1247.27549 -63.6152,-1636.26686 C 5275.7026,440.7682 5180.8012,1.7188844 5164.1152,-43.124633 5156.8151,-63.982083 5152.6436,-54.59623 5133.8719,14.233354 5061.9137,282.25159 4989.9555,765.1016 4951.3692,1235.437 c -18.7717,224.2176 -19.8145,6386.5512 -2.0857,6427.2232 10.4287,22.9432 12.5145,14.6002 18.7717,-62.5723 3.1286,-49.0151 13.5573,-193.9743 22.9432,-323.2905 15.6431,-207.5316 18.7717,-554.8082 25.0289,-3045.1877 5.2144,-1670.6817 11.4716,-2825.1416 17.7289,-2847.0419 8.3429,-31.2862 10.4287,-19.8146 17.7288,78.2154 21.9003,321.2048 27.1147,832.2123 32.329,3321.5489 3.1287,1488.1791 8.343,2725.0258 11.4716,2749.0119 4.1715,39.6292 11.4716,47.9721 85.5156,101.1586 43.8006,32.3291 83.4298,59.4438 87.6013,59.4438 3.1286,0 9.3858,-38.5863 12.5144,-85.5156 z m 232.5606,-2283.8907 c -3.1286,-1563.2659 -7.3001,-2375.6636 -14.6002,-2406.9497 -6.2572,-26.0719 -11.4716,-41.7149 -12.5145,-36.5006 0,6.2573 -5.2143,47.9722 -11.4716,93.8585 -76.1297,627.8093 -114.716,3631.2821 -57.358,4484.3518 5.2144,74.0439 13.5574,107.4158 37.5434,159.5595 66.7439,137.6591 62.5724,299.3044 58.4009,-2294.3195 z M 3955.426,7535.4298 c 92.8157,-183.5456 105.3301,-206.4888 112.6302,-206.4888 3.1286,0 20.8575,21.9003 37.5434,50.0579 40.6721,61.5295 85.5156,104.2872 94.9014,89.687 4.1715,-5.2143 22.9432,-32.329 41.7149,-60.4866 19.8146,-27.1147 33.372,-51.1007 31.2862,-52.1436 -1.0429,-2.0858 -52.1436,-28.1576 -111.5873,-58.4009 -105.3302,-54.2293 -270.104,-165.8167 -394.2059,-265.9325 -40.672,-33.3719 -61.5294,-44.8435 -63.6152,-34.4147 -1.0428,7.3001 22.9432,67.7867 54.2294,133.4876 30.2433,65.701 63.6152,142.8736 73.0011,169.9882 22.9432,66.7439 20.8574,176.2455 -4.1715,247.1608 l -19.8146,57.358 33.3719,34.4148 c 17.7289,17.7288 34.4148,33.3719 38.5863,33.3719 3.1286,0 37.5434,-62.5723 76.1297,-137.6591 z m 869.7557,-52.1437 c 17.7288,-61.5294 18.7717,-189.8028 18.7717,-2031.5156 0,-1497.5649 -4.1715,-2036.73 -14.6003,-2263.0333 -8.3429,-163.731 -17.7288,-306.6045 -21.9003,-317.0332 -7.3001,-20.8575 -25.0289,109.5016 -42.7577,322.2476 -10.4288,130.359 -12.5145,4296.6346 -2.0858,4385.2788 l 7.3001,57.358 18.7717,-43.8007 c 10.4287,-22.9432 27.1147,-73.001 36.5006,-109.5016 z m 890.6131,112.6303 c -11.4716,-11.4716 -35.4577,-30.2433 -52.1437,-40.6721 -31.2861,-18.7717 -32.329,-18.7717 -32.329,0 0,20.8575 80.3012,79.2583 95.9443,69.8725 5.2143,-4.1715 0,-16.686 -11.4716,-29.2004 z m 1981.4577,-2.0858 c 8.343,-9.3858 51.1008,-44.8435 94.9011,-79.2583 44.8435,-33.3719 81.344,-63.6152 81.344,-66.7438 0,-3.1286 -15.643,-25.029 -35.4576,-49.015 -19.8146,-23.9861 -84.4724,-120.9732 -144.959,-215.8746 -60.4866,-94.9014 -136.6163,-208.5745 -168.9453,-252.3752 l -59.4438,-80.3012 -66.7438,-7.3001 c -37.5434,-3.1286 -69.8725,-4.1715 -74.0439,-1.0429 -3.1287,3.1287 40.672,66.7439 98.03,139.745 56.3151,73.001 125.1447,163.7309 151.2165,201.2744 53.1865,76.1296 143.9164,226.3033 143.9164,239.8606 0,4.1715 -11.4716,15.6431 -25.029,23.9861 -82.3869,54.2294 -91.7727,80.3012 -46.9292,136.6163 25.0289,31.2862 33.3719,33.3719 52.1436,10.4287 z m -3291.3056,-32.329 c 53.1865,-65.701 109.5016,-141.8307 109.5016,-148.0879 0,-3.1286 -19.8146,-7.3001 -42.7577,-8.343 -34.4148,-2.0857 -52.1437,4.1715 -86.5585,30.2433 -63.6152,47.9721 -120.9732,104.2872 -120.9732,117.8446 0,14.6002 59.4438,44.8435 88.6442,45.8864 12.5145,1.0429 34.4148,-15.6431 52.1436,-37.5434 z m 118.8875,-36.5006 c 71.9582,-74.0439 84.4727,-92.8156 45.8864,-71.9582 -22.9432,11.4716 -116.8017,106.373 -130.3591,131.402 -20.8574,35.4576 14.6002,11.4716 84.4727,-59.4438 z m 1325.4909,16.686 c -86.5584,-88.6442 -229.4319,-184.5884 -229.4319,-155.388 0,21.9003 38.5863,70.9153 94.9014,119.9303 90.7299,80.3012 113.6731,93.8586 155.388,93.8586 h 35.4576 z m -1225.3752,35.4577 c 19.8146,-9.3859 26.0719,-19.8146 26.0719,-46.9293 0,-18.7717 -1.0429,-34.4148 -3.1287,-34.4148 -2.0857,0 -23.986,20.8575 -49.015,46.9293 -39.6291,40.672 -42.7577,46.9292 -23.986,46.9292 12.5144,0 35.4576,-5.2143 50.0578,-12.5144 z m 1454.8072,-47.9722 c 0,-26.0718 -139.7449,-207.5316 -232.5606,-303.4759 -73.0011,-74.0439 -187.717,-167.9024 -206.4888,-167.9024 -5.2143,0 -9.3858,13.5573 -9.3858,31.2861 0,26.0718 31.2862,61.5295 214.8317,245.0751 118.8875,117.8446 220.0461,213.7888 224.2176,213.7888 5.2144,0 9.3859,-8.343 9.3859,-18.7717 z m -177.2884,-54.2293 c 0,-13.5574 -103.2443,-127.2305 -156.4308,-172.074 -56.3151,-46.9293 -101.1587,-70.9153 -109.5016,-57.358 -8.343,13.5573 34.4148,57.358 151.2165,156.4309 96.9871,82.3869 114.7159,92.8156 114.7159,73.0011 z m 245.0751,-93.8586 c -9.3859,-39.6291 -105.3301,-204.403 -169.9882,-292.0043 -128.2734,-173.1168 -346.2337,-370.2197 -346.2337,-312.8617 0,6.2572 46.9293,63.6152 104.2872,126.1876 93.8586,103.2443 165.8168,191.8885 192.9315,238.8178 5.2143,8.3429 -40.6721,-31.2862 -101.1587,-88.6442 -60.4866,-57.358 -129.3162,-114.716 -153.3022,-128.2733 l -42.7578,-23.9861 v 22.9432 c 0,15.6431 74.0439,98.03 247.1608,272.1897 224.2176,225.2605 249.2465,247.1608 261.761,230.4748 7.3001,-10.4287 10.4287,-30.2433 7.3001,-44.8435 z m 136.6163,-43.8006 c 10.4287,-23.9861 37.5434,-66.7439 60.4866,-94.9014 l 39.6291,-51.1008 -31.2861,-68.8296 c -52.1437,-113.6731 -70.9154,-225.2604 -50.0579,-292.0042 9.3858,-29.2005 8.343,-29.2005 -75.0868,4.1714 -105.3302,41.7149 -105.3302,40.6721 -65.701,141.8307 32.329,84.4727 74.0439,222.1318 74.0439,242.9893 0,5.2144 -23.986,-27.1147 -53.1865,-73.0011 -89.687,-139.7449 -186.6741,-239.8607 -186.6741,-191.8885 0,17.7288 250.2894,426.5348 261.761,426.5348 3.1286,0 15.6431,-19.8145 26.0718,-43.8006 z m -1731.1684,-52.1436 c 58.4009,-26.0719 64.6581,-21.9004 -94.9014,-59.4438 -109.5016,-26.0718 -252.3751,-70.9153 -352.4909,-110.5445 -38.5862,-15.643 -73.001,-26.0718 -76.1297,-23.986 -7.3001,8.343 101.1587,87.6013 179.3741,130.359 158.5166,86.5585 253.418,104.2873 344.1479,63.6153 z m -850.9839,-85.5156 c -36.5006,-87.6013 -70.9153,-142.8735 -92.8157,-150.1736 -36.5005,-12.5145 25.029,144.9593 83.4298,210.6602 18.7717,21.9003 36.5006,35.4577 38.5863,29.2004 2.0858,-6.2572 -11.4716,-46.9292 -29.2004,-89.687 z m 4173.5754,-203.3601 c 69.8724,-67.7867 98.03,-102.2015 88.6442,-107.4159 -6.2573,-4.1715 -41.7149,-8.343 -77.1726,-8.343 -64.6581,0 -64.6581,0 -116.8017,55.2723 -28.1573,29.2004 -61.5292,67.7867 -74.0437,83.4298 l -22.9432,29.2004 28.1576,41.7149 c 32.329,50.0579 18.7717,57.358 174.1594,-93.8585 z m -5185.1617,91.7728 c 64.6581,-38.5863 93.8585,-73.0011 93.8585,-109.5017 0,-18.7717 -4.1715,-36.5005 -8.343,-39.6291 -11.4716,-7.3001 -85.5155,32.329 -123.0589,65.701 -25.029,21.9003 -30.2433,22.9432 -55.2723,10.4287 -14.6002,-7.3001 -55.2722,-15.6431 -89.687,-18.7717 l -62.5724,-6.2573 78.2155,-30.2433 c 42.7577,-16.6859 114.7159,-46.9292 159.5595,-67.7867 65.7009,-30.2433 80.3011,-41.7149 80.3011,-60.4866 0,-36.5005 -26.0718,-30.2433 -189.8028,42.7578 -33.3719,14.6002 -60.4866,22.9432 -60.4866,18.7717 0,-19.8146 65.701,-71.9582 147.0451,-117.8446 61.5294,-33.3719 87.6013,-54.2294 87.6013,-67.7867 0,-10.4287 -8.343,-20.8575 -18.7718,-22.9432 -20.8574,-4.1715 -148.0878,52.1436 -176.2454,78.2154 -26.0718,23.9861 -30.2433,13.5574 -11.4716,-26.0718 12.5145,-27.1147 36.5005,-44.8435 99.0729,-76.1297 83.4298,-41.7149 100.1157,-64.6581 56.3151,-76.1297 -30.2433,-7.3001 -124.1018,19.8146 -141.8307,40.6721 -18.7717,21.9003 -27.1146,19.8145 -80.3011,-20.8575 -26.0719,-19.8146 -51.1008,-36.5005 -55.2723,-36.5005 -3.1286,0 -26.0718,16.6859 -50.0579,36.5005 -41.7149,36.5006 -116.8017,165.8167 -116.8017,202.3173 0,10.4287 32.3291,67.7867 71.9582,128.2733 50.0579,77.1726 83.4298,116.8017 107.4159,129.3162 94.9014,50.0579 199.1886,59.4437 258.6324,23.9861 z m 1950.1715,-40.6721 v -62.5723 l -33.3719,-1.0429 -34.4148,-1.0429 34.4148,-10.4287 33.3719,-11.4716 V 6784.5616 6609.359 l -28.1575,6.2572 c -55.2723,11.4716 -164.7739,49.015 -203.3602,67.7867 -21.9003,11.4716 -41.7149,19.8146 -45.8864,19.8146 -9.3858,0 189.8028,-163.731 237.775,-196.06 30.2433,-19.8146 39.6291,-32.3291 39.6291,-55.2723 0,-16.6859 -4.1715,-30.2433 -9.3858,-30.2433 -33.3719,0 -299.3044,120.9732 -366.0483,165.8168 -14.6002,10.4287 -44.8435,29.2004 -67.7867,41.7149 l -41.7149,23.986 32.3291,-30.2433 c 89.687,-83.4298 272.1897,-240.9035 317.0332,-273.2326 28.1576,-20.8574 52.1436,-40.672 52.1436,-44.8435 0,-11.4716 -134.5305,37.5434 -219.0032,80.3012 -42.7578,20.8574 -108.4587,59.4437 -144.9593,85.5155 l -66.7438,45.8864 35.4577,-44.8435 c 40.672,-51.1007 138.702,-151.2165 279.4898,-282.6184 54.2293,-50.0579 94.9014,-93.8586 91.7728,-98.03 -20.8575,-19.8146 -227.3462,110.5444 -367.0912,232.5605 -174.1597,151.2165 -392.12,385.8628 -391.0771,420.2776 1.0428,41.7149 287.8328,140.7878 589.2229,205.4459 l 114.716,25.029 -130.3591,-6.2573 c -137.6591,-6.2572 -290.9614,-29.2004 -464.0782,-70.9153 -96.9872,-22.9432 -131.402,-21.9003 -115.7589,2.0857 22.9432,37.5434 348.3194,144.9593 538.1222,178.3312 88.6442,15.6431 210.6603,29.2005 279.4899,31.2862 l 54.2293,1.0429 z m -1258.7471,-85.5155 c -64.6581,-67.7867 -79.2583,-104.2873 -73.001,-179.3741 3.1286,-35.4576 9.3858,-75.0868 12.5144,-89.687 6.2573,-23.9861 -1.0429,-30.2433 -80.3012,-78.2155 -47.9721,-28.1575 -106.373,-64.658 -131.4019,-81.344 -25.0289,-16.686 -47.9721,-28.1576 -50.0579,-25.0289 -15.6431,15.643 332.6764,497.4501 358.7482,497.4501 3.1286,0 -12.5145,-19.8145 -36.5006,-43.8006 z m -505.7931,-55.2723 c 30.2433,-46.9292 29.2004,-53.1865 -8.343,-73.001 -28.1576,-14.6002 -31.2862,-14.6002 -39.6292,2.0857 -12.5144,26.0718 -3.1286,117.8446 11.4716,111.5874 7.3001,-2.0858 22.9432,-20.8575 36.5006,-40.6721 z m 4838.9283,-28.1575 c 7.3001,-10.4287 21.9004,-150.1737 33.372,-318.0761 11.4712,-164.7739 25.0286,-354.5767 31.2858,-420.2776 5.2144,-65.701 12.5145,-178.3312 16.686,-250.2894 l 6.2572,-130.3591 -41.7149,-39.6292 c -22.9429,-22.9431 -43.8003,-36.5005 -46.9289,-31.2861 -6.2573,10.4287 -27.1147,266.9753 -58.4009,717.4962 -31.2862,438.0065 -35.4577,523.522 -27.1147,537.0794 7.3001,11.4716 64.6581,-30.2433 86.5584,-64.6581 z m -4117.2606,47.9721 c 77.1726,-31.2862 108.4588,-134.5305 63.6153,-208.5745 -25.029,-41.7149 -99.0729,-71.9582 -151.2166,-62.5723 -66.7438,12.5144 -124.1018,107.4158 -106.373,176.2454 13.5574,54.2294 80.3012,109.5016 133.4877,111.5874 10.4288,0 37.5434,-7.3001 60.4866,-16.686 z m 2414.2499,-105.3301 c 34.4147,-14.6002 136.6163,-51.1008 227.3462,-82.3869 91.7727,-30.2433 185.6313,-66.7439 208.5745,-81.3441 51.1007,-29.2004 118.8874,-96.9871 108.4587,-106.373 -16.686,-16.6859 -395.2487,115.7589 -581.9229,203.3602 -124.1018,58.4008 -123.0589,58.4008 -91.7727,83.4298 28.1575,22.9432 34.4148,21.9003 129.3162,-16.686 z M 2210.7003,6680.2743 c 14.6002,-29.2004 51.1008,-80.3012 81.3441,-113.6731 58.4008,-63.6152 62.5723,-73.0011 39.6291,-91.7728 -12.5144,-10.4287 -26.0718,-2.0857 -76.1297,47.9722 -33.3719,33.3719 -71.9582,82.3869 -86.5584,109.5016 -22.9432,43.8006 -23.9861,51.1007 -10.4287,75.0868 7.3001,14.6002 16.686,27.1147 19.8146,27.1147 3.1286,0 17.7288,-25.029 32.329,-54.2294 z m 3587.4814,41.7149 c -1.0429,-15.6431 -74.044,-74.0439 -81.3441,-65.701 -7.3001,6.2573 60.4866,78.2155 73.0011,78.2155 4.1715,0 8.343,-6.2573 8.343,-12.5145 z m 125.1447,-45.8864 c 0,-34.4148 -271.1469,-299.3044 -287.8328,-282.6184 -25.029,25.0289 79.2583,146.0021 204.403,238.8178 65.701,47.9721 83.4298,57.358 83.4298,43.8006 z m -2126.417,-74.0439 c 25.0289,-20.8575 74.0439,-69.8725 108.4587,-107.4159 265.9325,-290.9614 414.0204,-412.9775 628.8521,-520.3934 99.0729,-50.0578 106.373,-56.3151 106.373,-85.5155 0,-36.5005 -6.2572,-37.5434 -100.1157,-5.2144 -135.5735,45.8864 -303.4759,140.7878 -426.5349,241.9464 l -62.5723,50.0579 36.5005,-45.8864 c 91.7728,-118.8874 182.5027,-208.5745 280.5327,-278.4469 2.0858,-2.0858 1.0429,-6.2573 -2.0857,-9.3859 -10.4288,-11.4716 -192.9315,86.5584 -273.2326,144.9593 -39.6292,30.2433 -94.9014,75.0868 -122.0161,100.1158 -28.1576,25.0289 -50.0579,42.7577 -50.0579,38.5862 0,-13.5573 86.5584,-136.6163 152.2594,-214.8317 71.9582,-86.5584 294.09,-306.6045 372.3055,-370.2197 27.1147,-21.9003 47.9721,-41.7149 44.8435,-43.8007 -8.343,-9.3858 -163.731,69.8725 -263.8468,133.4877 -56.3151,36.5005 -140.7877,101.1586 -187.717,142.8735 -47.9721,41.7149 -86.5584,74.044 -86.5584,70.9154 0,-12.5145 130.359,-165.8168 200.2315,-233.6035 103.2444,-101.1586 210.6602,-180.4169 362.9196,-265.9325 68.8296,-39.6291 125.1447,-76.1296 125.1447,-81.344 0,-52.1436 -228.389,32.329 -414.0204,153.3023 -297.2186,192.9314 -552.7224,494.3215 -674.7385,796.7545 -38.5862,94.9014 -73.001,240.9036 -66.7438,287.8328 3.1286,27.1147 5.2144,25.029 43.8006,-33.3719 46.9293,-70.9153 132.4449,-174.1597 138.7021,-166.8596 2.0857,2.0858 -7.3001,27.1147 -20.8575,55.2723 -28.1575,54.2293 -59.4437,151.2165 -59.4437,182.5027 0,37.5434 34.4148,16.6859 127.2305,-75.0869 89.687,-88.6441 134.5305,-122.016 98.03,-69.8724 -33.372,45.8864 -87.6013,149.1307 -93.8586,177.2883 -8.3429,35.4577 1.0429,69.8725 18.7717,69.8725 7.3002,0 33.372,-17.7289 59.4438,-38.5863 z m 2291.1908,2.0857 c 23.9861,-9.3858 43.8007,-20.8574 43.8007,-25.0289 0,-13.5574 -270.104,-273.2326 -375.4341,-359.791 -122.0161,-101.1587 -139.7449,-100.1158 -83.4298,2.0857 110.5445,196.06 311.8189,423.4062 359.791,404.6345 6.2572,-2.0857 30.2433,-12.5144 55.2722,-21.9003 z M 3382.889,6497.7716 c 30.2433,-375.4341 175.2026,-695.5959 473.4641,-1038.701 152.2594,-175.2026 283.6613,-283.6613 585.0515,-481.8071 153.3022,-101.1586 201.2744,-142.8735 184.5884,-159.5595 -19.8146,-19.8145 -206.4887,64.6581 -396.2915,179.3741 l -113.6731,68.8296 66.7438,-70.9153 c 37.5434,-38.5863 89.687,-98.0301 116.8017,-132.4448 26.0718,-34.4148 74.044,-94.9014 106.373,-135.5735 l 57.358,-73.001 -334.7621,-3.1287 -334.762,-2.0857 -63.6153,32.329 c -80.3011,40.6721 -165.8167,107.4159 -229.4319,181.4599 l -50.0579,57.3579 h 55.2723 c 33.3719,0 98.03,-12.5144 158.5166,-32.329 56.3151,-17.7288 104.2872,-30.2433 106.373,-28.1576 2.0857,3.1287 -23.9861,23.9861 -58.4009,49.015 -87.6013,60.4867 -192.9314,161.6453 -247.1608,234.6464 -25.0289,33.3719 -44.8435,64.6581 -44.8435,69.8724 0,10.4287 94.9014,-21.9003 164.7739,-57.358 67.7867,-34.4148 209.6173,-89.687 230.4748,-89.687 8.343,0 -25.029,28.1575 -74.044,62.5723 -236.732,164.7739 -363.9625,334.7621 -461.9925,615.2948 -49.015,142.8735 -67.7867,256.5466 -67.7867,417.149 0,130.3591 14.6002,285.7471 32.3291,330.5906 7.3001,19.8146 107.4158,96.9871 125.1447,96.9871 3.1286,0 9.3858,-40.672 13.5573,-90.7299 z m 2906.4856,22.9432 c 52.1437,-19.8146 99.0729,-38.5863 104.2873,-41.7149 5.2144,-3.1286 -25.029,-73.0011 -67.7867,-154.3451 -180.417,-348.3194 -308.6903,-810.3119 -418.1919,-1509.0365 -108.4587,-695.596 -130.3591,-1322.3623 -61.5295,-1786.4406 21.9004,-146.0021 11.4716,-160.6024 -40.672,-57.358 -36.5005,73.0011 -65.701,209.6174 -81.3441,381.6914 -14.6002,165.8167 -6.2572,1147.1597 10.4288,1342.1769 19.8145,224.2175 60.4866,448.4351 106.373,598.6088 10.4287,36.5005 18.7717,68.8296 16.6859,69.8724 -7.3001,7.3001 -168.9453,-297.2186 -195.0171,-365.0053 -21.9004,-58.4009 -19.8146,-18.7718 5.2143,106.3729 26.0718,129.3162 136.6163,472.4213 198.1458,619.4663 18.7717,44.8435 33.3719,81.3441 31.2862,81.3441 -7.3001,0 -98.03,-123.059 -177.2883,-239.8607 -74.044,-109.5016 -80.3012,-115.7589 -74.044,-78.2154 18.7717,105.3301 114.716,343.105 224.2176,553.7652 34.4148,66.7439 55.2722,114.716 46.9293,107.4159 -22.9432,-18.7717 -161.6453,-192.9314 -227.3462,-284.7042 -64.6581,-89.687 -74.044,-83.4298 -36.5006,27.1147 44.8435,135.5734 164.7739,328.5048 278.447,447.3923 66.7438,70.9153 238.8178,216.9175 255.5037,217.9604 4.1715,0 50.0579,-16.686 102.2015,-36.5006 z M 2172.114,6502.986 c 39.6292,-50.0579 132.4448,-189.8028 132.4448,-200.2315 0,-11.4716 -27.1146,-6.2573 -67.7867,14.6002 -22.9432,11.4716 -42.7577,20.8574 -43.8006,20.8574 -2.0858,0 6.2572,-19.8145 18.7717,-42.7577 12.5145,-26.0718 19.8146,-56.3152 17.7288,-73.0011 -4.1715,-29.2004 -3.1286,-30.2433 41.7149,-30.2433 37.5434,0 43.8007,-3.1286 34.4148,-14.6002 -18.7717,-21.9004 -158.5166,-82.387 -167.9025,-73.0011 -10.4287,11.4716 -62.5723,287.8328 -62.5723,334.7621 0,32.329 37.5434,107.4158 54.2294,107.4158 4.1715,0 22.9432,-19.8145 42.7577,-43.8006 z m 428.6206,11.4716 c 5.2144,-5.2144 8.343,-10.4287 5.2144,-13.5574 -12.5145,-11.4716 -169.9882,-78.2154 -174.1597,-74.0439 -3.1286,2.0857 1.0429,19.8146 8.343,37.5434 23.986,55.2722 123.0589,87.6013 160.6023,50.0579 z m 3962.9155,-93.8585 c 50.0579,-17.7289 91.7728,-35.4577 93.8585,-38.5863 2.0858,-4.1715 -9.3858,-46.9293 -26.0718,-93.8585 -77.1725,-227.3462 -161.6452,-689.3388 -197.1029,-1081.4588 -18.7717,-206.4888 -25.0289,-673.6957 -11.4716,-840.5553 21.9003,-260.7181 78.2155,-548.5509 138.7021,-713.3247 69.8724,-189.8028 220.0461,-469.2927 341.0193,-636.1523 29.2004,-39.6291 53.1865,-75.0868 53.1865,-78.2154 0,-3.1286 -23.9861,-20.8574 -52.1437,-38.5863 l -51.1007,-33.3719 -31.2862,37.5434 c -28.1575,34.4148 -32.329,35.4577 -37.5434,17.7288 -19.8146,-60.4866 -63.6152,-136.6163 -107.4159,-183.5455 -55.2722,-59.4437 -93.8585,-87.6013 -259.6752,-190.8457 -64.6581,-39.6291 -157.4738,-98.03 -206.4888,-128.2733 -118.8874,-75.0868 -182.5027,-95.9443 -285.747,-95.9443 -120.9732,0 -127.2305,6.2573 -51.1008,51.1008 168.9454,100.1157 347.2766,201.2744 451.5638,256.5466 63.6152,33.3719 140.7878,78.2155 172.074,99.0729 95.9442,65.701 177.2883,164.7739 177.2883,219.0032 0,67.7867 -91.7728,164.7739 -180.417,189.8028 l -54.2293,15.6431 46.9292,13.5574 c 81.3441,21.9003 180.417,-9.3859 248.2037,-80.3012 38.5863,-40.6721 41.7149,-29.2005 11.4716,38.5863 -41.7149,91.7727 -115.7589,143.9164 -216.9175,153.3022 -32.329,3.1286 -75.0868,1.0429 -95.9443,-5.2144 l -37.5434,-10.4287 -21.9003,95.9443 c -102.2015,444.2637 -112.6302,1130.4738 -28.1575,1810.4266 20.8574,165.8168 70.9153,475.5499 99.0728,609.0376 35.4577,175.2026 26.0719,163.731 -52.1436,-61.5295 -112.6302,-326.4191 -186.6742,-673.6956 -235.6892,-1100.2305 -21.9003,-185.6313 -25.0289,-687.253 -5.2143,-865.5841 17.7288,-164.7739 50.0578,-362.9197 74.0439,-459.9068 11.4716,-44.8435 20.8575,-86.5584 20.8575,-94.9014 0,-12.5145 -257.5895,-182.5027 -264.8896,-174.1597 -30.2433,31.2862 -46.9293,619.4662 -28.1576,929.1994 23.9861,377.5198 76.1297,800.926 163.731,1332.791 64.6581,393.1629 119.9303,646.581 181.4598,834.298 40.672,126.1876 141.8307,333.7192 161.6452,333.7192 8.343,0 54.2294,-14.6002 103.2444,-32.329 z M 3141.9855,6388.27 c -4.1715,-25.0289 -8.343,-127.2304 -8.343,-228.3891 v -184.5884 l -62.5724,59.4437 c -35.4576,32.3291 -80.3012,67.7868 -102.2015,79.2583 -20.8574,11.4716 -38.5863,25.029 -38.5863,30.2434 0,16.6859 64.6581,136.6162 101.1587,185.6313 34.4148,47.9721 92.8156,102.2015 110.5445,102.2015 4.1714,0 4.1714,-19.8146 0,-43.8007 z m -507.879,21.9003 c 10.4288,-17.7288 -15.643,-36.5005 -103.2443,-70.9153 -94.9014,-37.5434 -101.1587,-38.5863 -101.1587,-13.5573 0,28.1575 30.2433,51.1007 94.9014,74.0439 64.6581,23.9861 99.0729,27.1147 109.5016,10.4287 z m 4.1715,-119.9303 c 0,-40.672 -67.7867,-79.2583 -141.8306,-81.3441 -61.5295,-1.0428 -76.1297,6.2573 -56.3151,30.2433 22.9432,28.1576 198.1457,74.044 198.1457,51.1008 z m 4214.2478,-132.4448 c 213.7888,-195.0172 262.8039,-274.2755 262.8039,-424.4491 0,-81.3441 -5.2144,-105.3301 -63.6153,-276.3612 -76.1297,-224.2176 -91.7727,-325.3762 -81.344,-537.0794 3.1286,-77.1725 9.3858,-162.6881 12.5144,-188.7599 l 6.2573,-47.9721 -50.0579,-17.7288 c -71.9582,-23.9861 -156.4309,-21.9004 -206.4888,7.3001 -75.0868,42.7577 -142.8735,201.2744 -180.4169,421.3204 -17.7288,102.2016 -17.7288,116.8018 0,309.7332 20.8575,223.1747 45.8864,401.5059 85.5156,593.3944 27.1146,138.7021 66.7438,278.447 78.2154,278.447 3.1286,0 64.6581,-53.1865 136.6163,-117.8446 z m -4283.0773,-44.8435 c 26.0718,-4.1715 47.9721,-10.4287 47.9721,-13.5574 0,-4.1715 -23.9861,-25.0289 -52.1436,-46.9292 -57.358,-43.8007 -54.2294,-44.8435 -122.0161,18.7717 -18.7717,16.6859 -31.2862,34.4148 -28.1576,39.6291 6.2573,10.4288 85.5156,11.4716 154.3452,2.0858 z m -219.0033,-82.387 c 10.4288,-19.8145 42.7578,-55.2722 70.9154,-78.2154 27.1146,-23.9861 60.4866,-62.5723 73.001,-86.5584 l 21.9004,-43.8006 14.6002,44.8435 c 8.343,23.986 18.7717,43.8006 22.9432,43.8006 4.1715,0 25.0289,-23.9861 46.9292,-52.1436 56.3151,-74.044 70.9154,-78.2154 18.7717,-5.2144 -23.986,33.3719 -43.8006,66.7439 -43.8006,74.044 0,15.6431 59.4437,66.7438 77.1726,66.7438 14.6002,0 57.3579,-43.8006 83.4298,-84.4727 15.643,-25.0289 15.643,-31.2861 -2.0858,-99.0728 -28.1575,-107.4159 -62.5723,-168.9454 -132.4448,-238.8178 -73.0011,-74.044 -144.9593,-105.3302 -209.6174,-92.8157 l -40.672,7.3001 19.8146,-22.9432 c 26.0718,-29.2004 85.5155,-43.8006 131.4019,-33.3719 95.9443,21.9003 179.3741,90.7299 251.3323,208.5745 l 42.7578,68.8296 -5.2144,-83.4298 c -3.1286,-64.6581 -10.4287,-95.9443 -32.3291,-138.7021 -35.4576,-69.8724 -99.0728,-133.4876 -159.5594,-160.6023 -45.8864,-19.8146 -136.6163,-27.1147 -160.6024,-12.5145 -7.3001,4.1715 -10.4287,1.0429 -7.3001,-7.3001 2.0857,-8.343 20.8574,-22.9432 40.672,-33.3719 70.9153,-37.5434 182.5027,-5.2144 268.0182,76.1297 64.6581,62.5723 89.6871,116.8017 142.8736,315.9903 12.5144,46.9293 20.8574,59.4438 36.5005,59.4438 18.7717,0 20.8575,-7.3001 20.8575,-63.6153 0,-151.2165 -60.4866,-308.6902 -152.2594,-395.2486 -68.8296,-64.6581 -113.6731,-85.5156 -202.3173,-93.8586 l -67.7867,-6.2572 38.5863,-17.7288 c 85.5155,-38.5863 187.717,-12.5145 277.4041,70.9153 71.9582,66.7438 110.5445,138.702 138.702,261.761 23.9861,107.4159 40.672,144.9593 61.5295,144.9593 22.9432,0 26.0718,-117.8446 5.2143,-208.5745 -43.8006,-198.1458 -171.031,-344.1479 -328.5048,-376.477 -53.1865,-11.4716 -55.2722,-12.5145 -28.1575,-19.8146 52.1436,-13.5573 149.1307,1.0429 199.1886,30.2433 55.2722,32.3291 125.1447,108.4588 158.5166,175.2026 25.029,49.015 77.1726,232.5606 77.1726,270.104 0,23.9861 33.3719,27.1147 53.1865,3.1286 10.4287,-12.5145 10.4287,-33.3719 1.0429,-102.2015 -28.1576,-214.8317 -124.1019,-368.134 -278.447,-445.3066 l -62.5723,-31.2861 60.4866,5.2143 c 66.7438,5.2144 126.1875,35.4577 184.5884,91.7728 61.5295,60.4866 94.9014,117.8446 134.5305,234.6463 35.4577,103.2444 41.7149,112.6303 66.7439,115.7589 15.6431,2.0857 28.1575,0 28.1575,-3.1286 0,-23.9861 -46.9292,-182.5027 -66.7438,-227.3463 -60.4866,-135.5734 -201.2744,-262.8038 -319.119,-287.8328 -106.373,-22.9432 -229.4319,33.372 -366.0482,167.9025 -133.4877,131.4019 -228.3891,297.2187 -307.6474,537.0793 -45.8864,137.6592 -98.03,368.134 -98.03,428.6206 0,31.2862 3.1286,33.372 81.344,57.358 43.8007,14.6002 85.5156,26.0718 90.7299,27.1147 6.2573,1.0429 19.8146,-15.6431 30.2433,-35.4577 z m 636.1523,-53.1864 c 76.1296,-61.5295 155.388,-157.4738 193.9742,-233.6035 37.5434,-73.0011 74.044,-168.9453 67.7867,-175.2026 -11.4715,-11.4716 -116.8017,82.387 -249.2465,222.1319 l -144.9593,152.2594 18.7717,41.7149 c 11.4716,25.0289 26.0719,40.672 37.5435,40.672 9.3858,0 43.8006,-21.9003 76.1297,-47.9721 z m 4920.2721,-261.761 c 9.3858,-10.4288 19.8145,-37.5435 23.986,-59.4438 3.1286,-22.9432 15.6431,-53.1865 27.1147,-66.7438 10.4287,-14.6002 19.8146,-33.3719 19.8146,-42.7578 0,-9.3858 10.4287,-26.0718 21.9003,-36.5005 21.9003,-17.7289 22.9432,-25.029 16.686,-127.2305 -4.1715,-68.8296 -13.5574,-122.0161 -23.9861,-142.8735 -9.3858,-18.7717 -66.7438,-83.4298 -127.2304,-144.9593 l -109.5013,-111.5873 -68.8296,52.1436 c -37.5434,29.2004 -81.3441,62.5723 -96.9872,75.0868 l -27.1146,22.9432 -7.3002,213.7889 -6.2572,214.8317 36.5005,45.8864 c 20.8575,26.0718 37.5435,53.1865 37.5435,60.4866 0,6.2572 4.1714,12.5145 9.3858,12.5145 15.6431,0 17.7288,-81.3441 4.1715,-133.4877 -7.3001,-27.1147 -12.5145,-60.4866 -12.5145,-75.0868 -1.0428,-20.8575 4.1715,-16.686 20.8575,20.8574 21.9003,49.015 207.5313,239.8607 232.5602,239.8607 7.3001,0 20.8575,-8.343 29.2005,-17.7288 z m -5680.5262,-368.134 c 54.2294,-126.1876 63.6152,-160.6024 94.9014,-338.9336 78.2154,-441.1351 167.9025,-717.4963 350.4052,-1084.5874 78.2154,-155.388 106.373,-203.3601 259.6752,-438.0064 129.3162,-200.2316 204.403,-328.5049 189.8028,-328.5049 -17.7288,0 -109.5016,59.4438 -176.2454,114.716 -415.0633,342.0622 -737.3109,1080.4159 -796.7546,1825.0269 -12.5145,153.3022 -5.2144,417.149 10.4287,399.4201 4.1715,-4.1715 35.4577,-71.9582 67.7867,-149.1307 z m 5359.3217,-338.9336 c 45.8864,-31.2862 100.1158,-70.9153 119.9304,-88.6442 l 36.5005,-31.2861 -17.7288,-37.5434 -17.7288,-36.5006 -65.701,58.4009 c -35.4577,32.329 -91.7728,76.1297 -124.1018,95.9443 -33.372,20.8574 -60.4866,41.7149 -60.4866,46.9292 0,14.6002 25.0289,50.0579 35.4576,50.0579 5.2144,0 46.9293,-26.0718 93.8585,-57.358 z m 287.8325,-78.2154 c 0,-51.1008 0,-52.1437 -32.329,-52.1437 -30.2433,0 -32.3291,2.0858 -26.0718,27.1147 8.343,33.3719 36.5005,77.1726 49.015,77.1726 5.2144,0 9.3858,-22.9432 9.3858,-52.1436 z m -416.1058,-42.7578 c 84.4727,-54.2294 176.2455,-132.4448 176.2455,-149.1308 0,-30.2433 -295.1329,-461.9925 -406.7203,-595.4802 -236.732,-283.6613 -384.8199,-373.3483 -505.7931,-304.5187 -126.1876,71.9582 -204.4031,367.0911 -202.3173,768.597 v 161.6452 l 35.4577,-75.0868 c 41.7149,-89.687 86.5584,-157.4737 149.1307,-224.2176 l 46.9293,-50.0579 -28.1576,-36.5005 c -14.6002,-19.8146 -39.6291,-54.2294 -55.2722,-75.0868 l -29.2004,-39.6292 27.1146,20.8575 c 183.5456,137.6592 501.6217,415.0632 615.2948,536.0364 54.2294,57.358 101.1586,104.2873 104.2873,105.3302 3.1286,0 36.5005,-19.8146 73.001,-42.7578 z M 2539.2052,4746.7887 c 69.8724,-268.0182 168.9453,-521.4362 311.8188,-801.9689 40.6721,-80.3012 76.1297,-150.1737 78.2155,-156.4309 11.4716,-31.2862 -91.7728,84.4727 -139.7449,156.4309 -159.5595,240.9035 -250.2894,516.2218 -292.0043,886.4416 -4.1715,34.4148 -4.1715,59.4437 0,56.3151 3.1286,-4.1715 21.9003,-67.7867 41.7149,-140.7878 z m 5371.8359,11.4716 c 9.3858,-14.6002 19.8145,-46.9293 21.9003,-71.9582 5.2143,-44.8435 3.1286,-49.015 -47.9722,-103.2444 -58.4008,-61.5294 -62.5723,-69.8724 -33.3719,-69.8724 26.0718,0 74.044,-39.6292 74.044,-61.5295 0,-34.4148 -22.9432,-42.7578 -115.7589,-42.7578 -84.4723,0 -91.7724,2.0858 -130.3587,32.3291 -45.8864,35.4576 -70.9154,76.1297 -60.4866,95.9442 30.2433,53.1865 146.0018,232.5606 155.3877,238.8178 5.2143,4.1715 35.4576,8.343 64.6581,8.343 46.9292,0 57.3579,-4.1715 71.9582,-26.0718 z m -4872.3,-107.4159 c 21.9003,-61.5294 79.2583,-197.1029 127.2304,-302.433 96.9872,-211.7031 105.3301,-241.9464 55.2723,-193.9743 -107.4159,101.1587 -226.3034,338.9336 -270.104,539.1651 -12.5145,57.358 -8.343,69.8725 23.9861,69.8725 19.8145,0 28.1575,-15.6431 63.6152,-112.6303 z m 1587.2519,-87.6012 c 4.1715,-4.1715 1.0429,-15.6431 -6.2572,-23.9861 -12.5145,-14.6002 -80.3012,-15.6431 -600.6946,-14.6002 -460.9496,1.0428 -591.3087,-1.0429 -603.8232,-11.4716 -22.9431,-18.7717 -22.9431,-256.5467 1.0429,-289.9186 l 15.6431,-22.9432 h 582.9657 c 320.1619,0 589.223,-3.1286 598.6088,-6.2572 9.3859,-3.1286 16.686,-15.6431 16.686,-26.0718 0,-19.8146 -12.5145,-20.8575 -580.88,-16.686 -320.1618,3.1286 -604.866,8.343 -634.0665,13.5574 l -52.1436,9.3858 -3.1286,169.9882 c -1.0429,103.2444 2.0857,177.2884 8.343,189.8028 6.2572,11.4716 26.0718,25.029 44.8435,30.2433 38.5863,11.4716 1201.3891,10.4287 1212.8607,-1.0428 z m -248.2036,-99.0729 c 115.7588,-3.1287 210.6602,-10.4288 210.6602,-14.6003 0,-11.4715 -125.1447,-69.8724 -224.2176,-104.2872 l -83.4298,-29.2004 130.3591,-2.0858 c 71.9582,-1.0428 144.9593,-5.2143 161.6452,-9.3858 l 31.2862,-7.3001 -31.2862,-14.6003 c -25.0289,-11.4715 -107.4159,-13.5573 -410.8917,-11.4715 -334.7621,2.0857 -391.0772,4.1714 -465.1212,22.9431 -105.3301,23.9861 -206.4887,67.7868 -201.2744,85.5156 6.2573,16.686 111.5874,59.4437 190.8457,76.1297 70.9153,15.6431 361.8768,19.8146 691.4245,8.343 z m 3244.3763,-83.4298 62.5723,-50.0579 6.2573,-75.0868 c 11.4716,-116.8018 -1.0429,-427.5778 -18.7717,-488.0644 -92.8157,-305.5616 -232.5606,-519.3505 -435.9207,-664.3097 -79.2583,-55.2723 -173.1169,-105.3302 -186.6742,-96.9872 -13.5574,8.343 -119.9304,151.2165 -157.4738,212.746 l -33.3719,53.1865 88.6442,91.7728 c 108.4587,111.5873 198.1458,231.5177 256.5466,343.105 52.1436,101.1587 112.6302,277.4041 122.0161,360.8339 6.2572,49.015 16.686,73.0011 61.5295,135.5734 29.2004,40.6721 76.1297,109.5017 104.2872,151.2166 28.1576,40.672 55.2723,75.0868 60.4866,75.0868 4.1715,0 35.4577,-21.9004 69.8725,-49.015 z m 290.9611,-74.044 c 12.5145,-8.343 39.6292,-325.3762 31.2862,-377.5198 -2.0858,-19.8146 -15.6431,-26.0718 -76.1297,-41.7149 -39.6292,-10.4288 -76.1297,-15.6431 -80.3012,-12.5145 -5.2144,6.2572 -29.2004,342.0622 -29.2004,410.8918 0,9.3858 8.3429,19.8145 18.7717,21.9003 31.2861,8.343 120.9732,7.3001 135.5734,-1.0429 z M 3467.3617,4047.0213 c -61.5295,-151.2165 -112.6303,-350.4052 -166.8596,-644.4952 -19.8146,-111.5874 -45.8864,-245.0751 -58.4009,-296.1758 -22.9432,-101.1587 -46.9292,-130.3591 -36.5005,-44.8435 3.1286,27.1146 8.343,77.1725 12.5144,111.5873 36.5006,355.6195 118.8875,868.7128 142.8736,883.313 7.3001,4.1715 35.4576,8.343 63.6152,8.343 43.8006,0 49.015,-2.0857 42.7578,-17.7288 z m 410.8917,-45.8864 c 11.4716,-44.8435 91.7728,-183.5456 101.1587,-174.1597 1.0428,2.0857 -2.0858,36.5005 -8.343,77.1725 -11.4716,70.9154 -5.2144,150.1737 10.4287,150.1737 4.1715,0 23.9861,-31.2862 42.7578,-69.8725 32.329,-66.7438 104.2872,-175.2026 110.5445,-167.9025 2.0857,2.0858 -3.1287,29.2005 -11.4716,60.4866 -8.343,31.2862 -13.5574,85.5156 -12.5145,118.8875 l 3.1286,62.5724 41.7149,-80.3012 c 22.9432,-43.8007 50.0579,-90.7299 59.4437,-103.2444 l 18.7718,-23.9861 -6.2573,33.372 c -8.343,43.8006 5.2144,172.0739 17.7289,167.9024 5.2143,-2.0857 22.9431,-40.672 38.5862,-86.5584 39.6292,-114.716 112.6303,-220.0461 238.8178,-349.3623 71.9582,-73.001 107.4159,-116.8017 107.4159,-132.4448 0,-29.2004 0,-29.2004 -61.5295,1.0429 -60.4866,31.2862 -135.5734,86.5584 -203.3601,151.2165 -59.4437,57.358 -53.1865,41.7149 40.672,-103.2444 36.5006,-54.2293 101.1586,-138.702 144.9593,-187.717 43.8006,-47.9722 79.2583,-93.8585 79.2583,-102.2015 0,-40.6721 -240.9035,132.4448 -355.6195,255.5037 l -64.6581,70.9154 39.6291,-73.0011 c 74.044,-134.5306 154.3452,-238.8178 294.0901,-379.6056 107.4159,-108.4587 139.7449,-147.045 144.9593,-175.2026 4.1715,-19.8146 4.1715,-38.5863 1.0428,-41.7149 -9.3858,-9.3858 -138.702,65.701 -221.0889,128.2733 -141.8307,106.373 -294.0901,292.0043 -381.6914,466.164 -17.7288,33.372 -33.3719,59.4438 -35.4576,57.358 -2.0858,-1.0428 7.3001,-70.9153 20.8574,-154.3451 13.5574,-82.3869 22.9432,-152.2594 21.9003,-154.3451 -7.3001,-6.2573 -109.5016,130.359 -160.6023,214.8317 -29.2005,47.9721 -73.0011,133.4877 -98.03,190.8457 -40.6721,94.9014 -44.8436,101.1586 -47.9722,69.8724 -7.3001,-70.9153 19.8146,-231.5177 60.4866,-356.6624 22.9432,-70.9153 41.7149,-133.4876 41.7149,-139.7449 0,-23.986 -19.8145,-12.5144 -83.4298,46.9293 -78.2154,71.9582 -142.8735,179.3741 -182.5027,302.433 -15.643,50.0579 -31.2861,99.0729 -34.4147,107.4159 -6.2573,18.7717 -19.8146,-28.1576 -65.701,-224.2176 -40.672,-172.074 -47.9721,-163.731 -50.0579,52.1436 -1.0429,148.0879 20.8575,367.0911 44.8435,446.3494 15.6431,52.1437 42.7578,101.1587 56.3151,101.1587 4.1715,0 15.6431,-20.8575 26.0719,-45.8864 10.4287,-25.029 27.1146,-53.1865 37.5434,-62.5724 17.7288,-16.6859 18.7717,-15.6431 18.7717,22.9432 0,86.5584 39.6291,117.8446 65.7009,52.1437 15.6431,-41.7149 75.0869,-143.9165 83.4298,-143.9165 3.1286,0 5.2144,37.5435 5.2144,83.4298 0,61.5295 4.1715,86.5585 14.6002,92.8157 25.0289,15.6431 38.5863,2.0857 52.1436,-52.1436 z m 555.8511,25.0289 c 44.8435,-110.5445 79.2583,-172.0739 134.5305,-245.075 34.4148,-45.8864 61.5295,-85.5156 58.4009,-87.6013 -2.0858,-2.0858 -31.2862,13.5573 -65.701,35.4577 -109.5016,70.9153 -188.7599,181.4598 -200.2315,279.4898 -5.2144,45.8864 -4.1715,45.8864 28.1576,45.8864 26.0718,0 35.4576,-6.2573 44.8435,-28.1576 z m -2051.3302,-151.2165 47.9721,-90.7299 6.2572,-619.4663 c 3.1287,-341.0193 3.1287,-627.8092 -1.0428,-638.2379 -6.2573,-16.686 -15.6431,-11.4716 -63.6152,36.5005 l -57.358,56.3151 v 683.0815 c 0,402.5488 4.1715,678.91 9.3858,673.6956 5.2144,-6.2572 31.2862,-51.1007 58.4009,-101.1586 z m 4806.5993,13.5573 c -26.0718,-115.7588 -90.7299,-240.9035 -185.6313,-365.0053 -55.2722,-70.9154 -160.6024,-169.9882 -176.2455,-164.7739 -10.4287,3.1286 -90.7299,150.1737 -90.7299,165.8167 0,3.1287 50.0579,51.1008 112.6303,105.3302 61.5294,54.2293 163.7309,150.1736 226.3033,212.746 63.6152,63.6152 117.8446,112.6302 122.0161,110.5444 3.1286,-2.0857 0,-31.2861 -8.343,-64.6581 z M 7936.07,3775.8744 c 0,-5.2143 7.3001,-128.2733 15.6431,-274.2754 8.343,-146.0022 22.9432,-387.9486 31.2862,-537.0794 8.3429,-149.1307 17.7288,-314.9475 20.8574,-367.0911 4.1715,-53.1865 3.1286,-96.9871 -2.0857,-96.9871 -4.1715,1.0428 -32.3291,22.9432 -62.5724,50.0578 l -54.2294,49.015 -11.4716,224.2176 c -6.2572,123.059 -20.8574,365.0054 -32.329,537.0794 -26.0718,415.0632 -27.1147,388.9914 14.6002,406.7202 36.5005,15.6431 80.3012,19.8146 80.3012,8.343 z m -1251.4467,-23.986 c 22.9432,-11.4716 50.0579,-20.8575 62.5724,-20.8575 11.4716,0 20.8574,-3.1286 20.8574,-7.3001 -1.0429,-11.4716 -68.8296,-60.4866 -83.4298,-60.4866 -9.3858,0 -52.1436,87.6013 -52.1436,107.4159 0,5.2143 13.5573,1.0428 52.1436,-18.7717 z M 2830.1666,3092.7929 c 450.5209,-255.5037 605.9089,-372.3054 768.597,-573.5798 76.1297,-94.9014 93.8585,-123.059 75.0868,-123.059 -26.0718,0 -322.2476,169.9882 -520.3933,300.3473 -131.402,85.5155 -297.2187,189.8028 -368.134,232.5606 -70.9154,42.7577 -144.9593,92.8156 -163.731,110.5444 -38.5863,37.5434 -54.2294,93.8586 -36.5006,127.2305 22.9432,41.7149 66.7439,28.1575 245.0751,-74.044 z m 4850.3999,71.9582 c 20.8575,-32.329 10.4288,-82.3869 -25.0289,-119.9303 -14.6002,-16.686 -96.9871,-70.9153 -183.5456,-122.0161 -85.5155,-51.1007 -235.6891,-144.9593 -333.7192,-207.5316 -172.0739,-110.5445 -553.7652,-315.9904 -565.2368,-304.5188 -11.4716,11.4716 112.6302,161.6453 209.6173,253.418 88.6442,84.4727 252.3752,198.1458 412.9775,286.79 26.0718,14.6002 129.3162,74.0439 229.432,131.4019 193.9743,112.6302 228.3891,124.1018 255.5037,82.3869 z m -3921.2005,-32.329 31.2861,-13.5574 -38.5862,-7.3001 c -78.2155,-14.6002 -192.9314,-174.1597 -165.8168,-231.5177 20.8575,-46.9292 240.9036,-209.6173 371.2626,-276.3612 68.8296,-34.4148 208.5745,-110.5444 310.776,-168.9453 210.6603,-119.9303 212.746,-128.2733 43.8007,-118.8875 -112.6302,5.2144 -140.7878,16.686 -338.9336,125.1447 -265.9325,147.045 -397.3344,248.2037 -433.8349,335.805 -11.4716,27.1147 -27.1147,41.7149 -66.7439,58.4008 -68.8296,29.2005 -80.3011,43.8007 -54.2293,69.8725 11.4716,11.4716 40.672,47.9721 64.6581,81.344 90.7299,125.1447 136.6163,159.5595 208.5745,159.5595 19.8145,0 51.1007,-6.2572 67.7867,-13.5573 z M 6389.4904,3027.092 c 39.6292,-19.8146 80.3012,-44.8435 90.7299,-56.3151 17.7288,-18.7718 15.6431,-21.9004 -35.4577,-69.8725 -30.2433,-28.1576 -57.3579,-52.1436 -61.5294,-54.2294 -4.1715,-1.0428 -14.6003,9.3859 -21.9004,25.029 -17.7288,32.329 -109.5016,116.8017 -142.8735,132.4448 -32.329,14.6002 -30.2433,26.0718 10.4287,43.8006 51.1008,22.9432 81.3441,18.7717 160.6024,-20.8574 z m -2337.0773,3.1286 c 13.5574,-6.2573 25.029,-14.6002 25.029,-18.7717 0,-4.1715 -18.7717,-20.8575 -42.7578,-37.5434 -23.9861,-15.6431 -63.6152,-52.1437 -87.6013,-81.3441 l -45.8864,-51.1007 -38.5863,33.3719 c -20.8574,18.7717 -49.015,38.5863 -62.5723,44.8435 -31.2862,14.6002 -31.2862,19.8146 -1.0429,45.8864 86.5584,77.1726 175.2026,100.1157 253.418,64.6581 z M 6224.7165,2929.062 c 11.4716,-7.3002 11.4716,-15.6431 2.0858,-42.7578 -6.2572,-18.7717 -11.4716,-56.3151 -11.4716,-82.3869 0,-111.5874 -39.6292,-163.731 -104.2873,-136.6163 -38.5862,15.643 -52.1436,38.5862 -52.1436,85.5155 0,93.8585 58.4009,185.6313 118.8875,185.6313 17.7288,0 38.5863,-4.1715 46.9292,-9.3858 z m -2070.1019,-16.686 c 30.2433,-19.8146 68.8296,-105.3301 68.8296,-151.2165 0,-41.7149 -27.1147,-88.6442 -59.4437,-103.2444 -34.4148,-15.6431 -49.015,-14.6002 -77.1726,8.343 -21.9003,16.6859 -23.986,27.1147 -21.9003,90.7299 1.0429,39.6291 -2.0857,88.6442 -8.343,108.4587 -8.3429,30.2433 -7.3001,38.5863 7.3001,50.0579 23.9861,16.686 61.5295,15.6431 90.7299,-3.1286 z M 2733.1794,2724.6589 c 30.2433,-64.6581 27.1147,-78.2154 -20.8574,-78.2154 -62.5724,0 -105.3301,40.672 -105.3301,98.03 0,25.029 5.2143,60.4866 12.5144,79.2583 l 11.4716,35.4577 41.7149,-46.9293 c 21.9004,-25.0289 49.015,-64.6581 60.4866,-87.6013 z m 4930.7012,79.2584 c 15.6431,-62.5724 7.3001,-98.0301 -32.3291,-131.402 -39.6291,-33.3719 -102.2015,-36.5005 -102.2015,-5.2143 0,39.6291 89.6871,187.717 113.6731,187.717 4.1715,0 13.5574,-22.9432 20.8575,-51.1007 z m -4811.8137,-21.9004 c 15.6431,-49.015 -44.8435,-75.0868 -68.8296,-29.2004 -10.4287,18.7717 -8.343,25.0289 10.4287,40.672 26.0719,20.8575 49.015,16.686 58.4009,-11.4716 z m 4640.7826,14.6002 c 14.6002,-14.6002 14.6002,-19.8145 2.0857,-39.6291 -33.3719,-49.015 -87.6012,-17.7288 -59.4437,35.4577 13.5574,25.0289 34.4148,27.1146 57.358,4.1714 z M 4513.3628,2773.674 c 19.8146,-16.686 43.8006,-53.1865 58.4008,-88.6442 19.8146,-47.9721 33.372,-65.701 70.9154,-89.687 123.0589,-78.2155 168.9453,-197.1029 106.373,-272.1898 -23.9861,-28.1575 -33.372,-32.329 -69.8725,-29.2004 -31.2862,2.0857 -46.9293,10.4287 -62.5723,31.2862 -19.8146,26.0718 -19.8146,29.2004 -2.0858,74.0439 16.686,43.8007 16.686,47.9722 -1.0429,74.044 -37.5434,58.4008 -114.7159,77.1725 -246.1179,59.4437 -75.0868,-10.4287 -93.8585,-9.3858 -127.2304,4.1715 -20.8575,9.3858 -35.4577,20.8574 -32.3291,26.0718 12.5145,20.8575 135.5735,87.6013 190.8457,103.2444 l 59.4437,17.7288 3.1287,59.4437 c 2.0857,32.3291 6.2572,59.4438 10.4287,59.4438 4.1715,0 22.9432,-13.5574 41.7149,-29.2004 z m 1281.6903,-27.1147 c -10.4287,-44.8436 6.2572,-60.4866 84.4726,-80.3012 69.8725,-17.7288 147.0451,-59.4437 178.3312,-96.9872 19.8146,-23.986 -71.9582,-49.015 -135.5734,-36.5005 -70.9153,13.5573 -173.1168,10.4287 -212.746,-5.2144 -18.7717,-8.3429 -42.7577,-27.1146 -52.1436,-41.7149 -16.686,-25.0289 -16.686,-30.2433 -2.0857,-66.7438 15.6431,-37.5434 14.6002,-42.7578 -4.1715,-73.0011 -15.6431,-27.1147 -26.0718,-33.3719 -56.3151,-33.3719 -42.7578,0 -83.4298,33.3719 -94.9014,79.2583 -15.6431,61.5295 54.2293,173.1169 130.359,206.4888 31.2862,14.6002 44.8435,28.1575 54.2294,56.3151 13.5573,42.7578 90.7299,130.359 105.3301,120.9732 5.2144,-3.1286 7.3001,-16.686 5.2144,-29.2004 z M 3063.77,2557.7993 c 47.9722,-14.6002 73.0011,-31.2861 62.5724,-41.7149 -2.0858,-2.0857 -59.4438,-14.6002 -128.2734,-29.2004 -207.5316,-41.7149 -325.3762,-100.1157 -444.2636,-219.0032 -189.8028,-189.8028 -265.9325,-443.2208 -200.2316,-659.0954 27.1147,-85.5156 66.7439,-149.1308 134.5306,-213.7889 l 49.015,-46.9292 -31.2862,46.9292 c -104.2872,158.5166 -135.5734,397.3344 -75.0868,572.537 30.2433,89.687 96.9872,183.5456 171.0311,242.9893 140.7878,113.6731 311.8189,113.6731 415.0633,-2.0857 50.0578,-54.2294 69.8724,-100.1158 69.8724,-159.5595 0,-47.9722 -38.5863,-137.6592 -71.9582,-167.9025 -18.7717,-16.686 -19.8146,-14.6002 -23.9861,58.4009 -9.3858,144.9592 -64.6581,216.9174 -167.9024,216.9174 -167.9025,0 -309.7332,-202.3172 -309.7332,-442.1779 0,-167.9025 43.8007,-277.4041 156.4309,-396.2915 41.7149,-43.8007 78.2155,-78.2155 80.3012,-75.0869 2.0857,2.0858 -12.5145,31.2862 -31.2862,64.6581 -85.5155,146.0022 -112.6302,326.4191 -65.7009,435.9207 23.986,57.358 31.2861,40.6721 17.7288,-44.8435 -30.2433,-195.0171 61.5295,-397.3344 238.8178,-527.6935 28.1575,-20.8574 123.0589,-73.001 210.6602,-115.7588 335.805,-164.77377 395.2487,-204.40292 623.6378,-411.93458 83.4298,-75.08687 207.5316,-182.50274 276.3612,-236.73211 200.2315,-160.60236 409.8489,-351.448028 399.4202,-361.876753 -9.3859,-9.385853 -197.1029,80.301183 -295.133,140.787783 -163.7309,100.11576 -407.7631,279.48983 -592.3515,434.87789 -186.6742,157.47374 -284.7042,216.91747 -643.4524,387.94847 -277.404,132.4448 -408.806,211.7031 -496.4073,298.2616 -222.1318,223.1747 -258.6323,567.3226 -90.7299,855.1554 151.2165,257.5895 381.6914,408.806 629.895,410.8918 42.7578,1.0428 102.2015,-6.2573 132.4448,-14.6003 z m 4429.0795,0 c 200.2315,-52.1436 397.3341,-224.2175 505.7928,-441.135 132.4448,-263.8468 102.2015,-545.4223 -82.3869,-769.6399 C 7824.4826,1236.4799 7707.6812,1163.4788 7354.1475,994.53348 7013.1281,832.88831 6923.4411,776.5732 6700.2664,586.77041 6526.1067,438.68246 6375.9331,322.92361 6224.7165,221.76498 6102.7005,140.42093 5938.9695,49.691019 5911.8548,49.691019 c -19.8146,0 189.8028,213.788861 334.7621,339.976431 77.1725,66.74384 200.2315,178.3312 272.1897,247.16084 190.8457,180.41694 278.4469,238.81783 569.4084,382.73411 216.9174,107.4159 261.761,133.4877 319.119,187.7171 160.6023,150.1736 222.1318,317.0332 191.8885,519.3505 -10.4287,73.001 7.3001,63.6152 30.2433,-15.6431 30.2433,-105.3301 -7.3001,-296.1758 -81.3441,-412.9775 -17.7288,-27.1147 -29.2004,-52.1437 -27.1146,-54.2294 11.4716,-11.4716 143.9164,141.8307 174.1597,201.2744 80.3008,158.5166 85.5152,375.4341 13.5573,518.3076 -62.5723,125.1447 -154.3451,192.9314 -259.6752,192.9314 -47.9722,0 -60.4867,-4.1715 -91.7728,-33.3719 -45.8864,-42.7578 -59.4438,-102.2015 -31.2862,-133.4877 35.4577,-39.6291 77.1726,-16.6859 114.716,65.701 9.3858,20.8575 21.9003,38.5863 26.0718,38.5863 4.1715,0 22.9432,-16.686 40.672,-36.5006 68.8296,-78.2154 26.0718,-181.4598 -88.6442,-212.7459 -60.4866,-15.6431 -114.7159,2.0857 -165.8167,55.2722 -93.8585,96.9871 -87.6013,226.3033 15.6431,323.2905 134.5306,126.1875 336.8478,89.687 482.85,-86.5584 83.4295,-101.1587 122.0157,-221.089 122.0157,-376.477 0,-115.7589 -19.8145,-209.6174 -62.5723,-297.2187 l -31.2862,-62.5723 41.7149,45.8864 c 204.403,224.2176 149.1308,593.3944 -127.2301,852.0268 -111.5874,104.2872 -290.9614,180.4169 -471.3784,199.1886 -39.6291,5.2144 -74.0439,13.5574 -76.1297,19.8146 -3.1286,9.3859 38.5863,32.3291 90.7299,50.0579 35.4577,11.4716 198.1458,5.2144 255.5038,-9.3859 z M 3074.1987,2414.9258 c 31.2862,-31.2862 -11.4716,-88.6441 -45.8863,-59.4437 -14.6003,12.5145 -19.8146,53.1865 -7.3002,64.6581 10.4288,11.4716 39.6292,8.343 53.1865,-5.2144 z m 4187.1331,-10.4287 c 14.6002,-21.9003 -7.3001,-50.0579 -39.6292,-50.0579 -29.2004,0 -40.672,25.0289 -25.0289,53.1865 12.5145,25.0289 49.015,22.9432 64.6581,-3.1286 z M 3219.158,2305.4242 c -3.1286,-44.8435 -8.343,-89.687 -12.5145,-100.1158 -7.3001,-16.6859 -10.4287,-15.643 -26.0718,11.4716 -10.4287,16.686 -32.329,34.4148 -47.9721,37.5434 l -29.2004,7.3002 32.329,26.0718 c 18.7717,13.5573 42.7578,41.7149 55.2723,61.5294 12.5144,19.8146 25.0289,36.5006 28.1575,36.5006 3.1286,0 3.1286,-36.5006 0,-80.3012 z m 3926.415,-17.7288 c 19.8145,-14.6002 21.9003,-18.7717 8.3429,-27.1147 -8.3429,-5.2144 -20.8574,-10.4287 -28.1575,-10.4287 -6.2573,0 -20.8575,-12.5145 -32.3291,-28.1576 l -19.8145,-28.1576 -12.5145,68.8296 c -20.8575,122.0161 -13.5574,142.8736 31.2862,82.387 15.643,-22.9432 39.6291,-47.9722 53.1865,-57.358 z m -3133.8319,28.1575 c 33.3719,-27.1147 62.5724,-50.0579 64.6581,-52.1436 4.1715,-3.1286 -68.8296,-101.1586 -103.2444,-136.6163 l -22.9432,-25.0289 -18.7717,27.1147 c -41.7149,65.7009 -105.3301,75.0868 -225.2604,33.3719 -370.2198,-126.1876 -611.1233,-416.1062 -556.8939,-672.6528 36.5005,-172.0739 168.9453,-261.761 503.7074,-338.9335 l 144.9593,-34.4148 37.5434,-68.8296 c 20.8574,-37.5434 34.4148,-71.95823 31.2861,-75.08684 -10.4287,-10.42873 -158.5166,13.55734 -284.7042,46.92924 -349.3622,89.6871 -504.7502,209.6174 -563.1511,432.7921 -31.2862,122.0161 -12.5145,254.4609 58.4009,400.463 101.1586,208.5745 393.1629,422.3634 661.1811,483.8929 110.5445,25.0289 111.5874,26.0718 163.731,27.1147 42.7578,1.0428 55.2722,-4.1715 109.5016,-47.9722 z m 2563.3806,12.5145 c 315.9904,-90.7299 558.9797,-296.1758 658.0525,-553.7653 40.6721,-105.3301 46.9293,-256.5466 14.6003,-354.5766 -27.1147,-85.5156 -79.2583,-166.8596 -141.8307,-222.1319 -111.5874,-98.03 -349.3623,-186.6742 -575.6656,-213.78885 l -55.2723,-7.3001 47.9722,58.40085 c 26.0718,32.3291 54.2293,69.8725 63.6152,83.4298 10.4287,16.686 30.2433,27.1147 59.4437,31.2862 73.0011,12.5144 224.2176,65.7009 301.3902,106.373 143.9164,75.0868 215.8746,223.1747 185.6313,377.5198 -42.7578,207.5316 -203.3602,373.3484 -477.6356,491.193 -162.6881,69.8724 -233.6035,73.001 -296.1758,13.5573 -15.6431,-15.6431 -31.2862,-26.0718 -33.3719,-22.9432 -26.0718,28.1576 -120.9732,149.1308 -119.9304,154.3451 0,3.1287 25.029,27.1147 54.2294,51.1008 l 54.2294,45.8864 83.4298,-5.2144 c 45.8864,-3.1286 126.1875,-18.7717 177.2883,-33.3719 z M 6179.873,2154.2077 c 144.9593,-154.3451 248.2037,-349.3623 290.9615,-553.7653 25.0289,-115.7589 21.9003,-131.4019 -34.4148,-195.0172 l -50.0579,-56.3151 -12.5145,89.6871 c -33.3719,238.8178 -134.5305,448.4351 -298.2615,621.552 -39.6292,41.7149 -69.8725,77.1725 -67.7867,79.2583 29.2004,23.986 99.0729,68.8296 108.4587,68.8296 7.3001,0 35.4577,-25.029 63.6152,-54.2294 z m -1351.5627,-16.686 v -60.4866 l -82.387,-38.5863 c -45.8863,-20.8574 -87.6012,-38.5862 -93.8585,-38.5862 -14.6002,0 -84.4726,42.7577 -84.4726,51.1007 0,19.8146 214.8317,147.045 248.2036,147.045 8.343,0 12.5145,-18.7717 12.5145,-60.4866 z m 745.6538,7.3001 c 45.8864,-22.9432 99.0729,-55.2722 118.8875,-70.9153 l 35.4576,-29.2004 -44.8435,-27.1147 c -43.8006,-26.0718 -46.9292,-26.0718 -82.3869,-10.4287 -20.8575,8.3429 -59.4437,25.0289 -86.5584,36.5005 l -50.0579,21.9003 v 60.4866 c 0,41.7149 4.1715,61.5295 12.5145,61.5295 7.3001,0 50.0578,-18.7717 96.9871,-42.7578 z m -1292.119,-27.1146 c 103.2444,-53.1865 330.5906,-185.6314 471.3784,-274.2755 l 54.2293,-34.4148 v -70.9153 c 0,-47.9722 -4.1715,-71.9582 -12.5144,-71.9582 -20.8575,0 -258.6324,129.3162 -449.4781,244.0321 -101.1586,61.5295 -189.8028,113.6731 -198.1458,115.7589 -9.3858,4.1715 -21.9003,-18.7717 -41.7149,-80.3012 -46.9292,-144.9593 -63.6152,-266.9754 -62.5723,-446.3494 1.0429,-369.1769 84.4727,-664.30974 260.7181,-933.3709 131.4019,-199.18864 358.7481,-452.60666 643.4523,-716.45345 206.4888,-192.93141 202.3173,-189.8028 223.1748,-173.11684 30.2433,21.90032 211.7031,185.63131 299.3044,269.06116 45.8863,43.800644 115.7588,109.501612 155.388,147.045021 247.1607,231.517689 473.4641,545.422369 585.0514,812.397649 15.6431,37.54341 39.6292,83.4298 53.1865,102.20146 14.6002,17.7289 21.9003,33.372 15.6431,33.372 -5.2143,0 -13.5573,-5.2144 -16.6859,-10.4288 -11.4716,-18.7717 -163.731,-89.68699 -229.432,-107.41582 -34.4148,-9.38586 -118.8875,-26.07182 -187.717,-38.58618 -167.9025,-29.20043 -264.8897,-56.31515 -339.9765,-94.90143 l -63.6152,-31.28618 6.2572,29.20043 c 3.1287,15.64309 11.4716,60.48664 17.7289,99.07292 l 11.4716,69.87236 47.9721,16.68596 c 27.1147,9.38585 127.2304,28.15754 223.1747,41.71494 336.8478,47.9721 424.4491,80.3011 629.895,230.4748 271.1468,197.1029 422.3634,332.6763 540.208,481.8071 l 60.4866,77.1725 30.2433,-29.2004 c 16.6859,-15.6431 30.2433,-38.5863 30.2433,-51.1007 0,-66.7439 -242.9893,-320.1619 -470.3355,-490.1501 l -149.1308,-111.5874 -18.7717,-71.9582 C 6390.5333,1010.1766 6363.4186,930.91826 6340.4754,873.56037 6220.5451,571.12732 6045.3425,319.79499 5744.9952,18.404844 5545.8066,-182.8696 5186.0155,-503.03145 5159.9437,-503.03145 c -30.2433,0 -271.1468,207.53162 -495.3644,428.620642 C 4225.53,358.38128 4012.784,708.78649 3936.6543,1124.8925 c -27.1147,144.9593 -33.3719,485.9786 -11.4716,610.0804 36.5005,211.7032 91.7728,329.5478 188.7599,402.5488 29.2004,21.9004 53.1865,39.6292 53.1865,39.6292 1.0429,0 53.1865,-27.1147 114.716,-59.4437 z m -1424.5638,-89.6871 c 10.4287,-33.3719 23.986,-66.7438 31.2861,-75.0868 8.343,-10.4287 10.4288,-33.3719 6.2573,-71.9582 -7.3001,-55.2722 -8.343,-56.3151 -36.5006,-47.9721 -80.3011,22.9432 -136.6163,78.2154 -136.6163,134.5305 0,49.015 74.044,132.4448 108.4588,123.059 5.2143,-2.0858 16.6859,-30.2433 27.1147,-62.5724 z m 3135.9176,6.2573 57.3579,-49.0151 -25.0289,-18.7717 c -75.0868,-59.4437 -512.0504,-310.776 -538.1222,-310.776 -8.343,0 -12.5145,21.9004 -12.5145,61.5295 0,76.1297 14.6002,96.9872 122.0161,163.731 80.3012,51.1007 328.5048,199.1886 334.7621,201.2744 2.0857,1.0429 30.2433,-20.8575 61.5295,-47.9721 z m -1190.9604,-76.1297 c 0,-13.5574 -6.2573,-26.0719 -12.5145,-28.1576 -9.3859,-3.1286 -13.5573,6.2572 -13.5573,28.1576 0,21.9003 4.1714,31.2861 13.5573,29.2004 6.2572,-3.1286 12.5145,-15.6431 12.5145,-29.2004 z m 704.9818,-23.9861 c -16.686,-16.686 -27.1147,20.8574 -10.4288,41.7149 13.5574,15.6431 14.6003,14.6002 17.7289,-7.3001 2.0857,-12.5145 -1.0429,-28.1576 -7.3001,-34.4148 z m 1117.9593,-19.8146 c 25.0289,-18.7717 47.9721,-23.9861 92.8156,-23.9861 h 59.4438 l -45.8864,-46.9292 c -26.0718,-26.0718 -46.9293,-54.2294 -46.9293,-62.5724 0,-9.3858 9.3859,-33.3719 20.8575,-54.2293 11.4716,-21.9004 15.6431,-41.7149 10.4287,-44.8435 -18.7717,-11.4716 -177.2883,86.5584 -177.2883,109.5016 0,6.2572 8.3429,14.6002 18.7717,17.7288 28.1575,10.4287 33.3719,26.0718 27.1147,79.2583 -4.1715,27.1147 -3.1287,49.015 1.0428,49.015 4.1715,0 21.9003,-10.4287 39.6292,-22.9432 z M 3725.994,1805.8883 c 18.7718,-9.3859 35.4577,-18.7717 37.5435,-20.8575 9.3858,-8.343 -60.4866,-60.4866 -118.8875,-87.6013 -50.0579,-23.986 -63.6152,-26.0718 -65.701,-14.6002 -2.0857,8.343 3.1286,27.1147 12.5145,40.6721 29.2004,44.8435 18.7717,68.8295 -53.1865,116.8017 -27.1147,18.7717 -32.329,39.6291 -7.3001,30.2433 21.9003,-8.343 96.9871,12.5144 129.3162,35.4576 l 26.0718,19.8146 3.1286,-52.1436 c 3.1286,-45.8864 6.2572,-53.1865 36.5005,-67.7867 z M 3448.59,1636.9429 c 85.5155,-94.9014 168.9453,-164.7738 305.5616,-257.5895 49.015,-33.3719 90.7299,-61.5294 92.8157,-63.6152 2.0857,-2.0857 7.3001,-34.4148 10.4287,-71.9582 5.2143,-46.9293 4.1715,-67.7867 -4.1715,-67.7867 -22.9432,0 -221.089,125.1447 -303.4759,191.8885 -46.9293,37.5434 -118.8875,104.2873 -160.6024,149.1308 -71.9582,76.1297 -156.4308,192.9314 -156.4308,214.8317 0,5.2144 14.6002,22.9432 33.3719,40.6721 l 33.3719,31.2861 35.4577,-39.6291 c 19.8145,-22.9432 70.9153,-79.2583 113.6731,-127.2305 z m 922.9421,84.4727 c 33.3719,-91.7728 133.4877,-160.6024 371.2626,-253.418 l 85.5156,-34.4148 v -70.9153 c 0,-39.6292 -2.0858,-71.9582 -4.1715,-71.9582 -2.0858,0 -86.5584,39.6291 -186.6742,87.6013 -201.2744,96.9871 -285.7471,149.1307 -343.105,212.7459 -33.372,36.5006 -81.3441,114.716 -81.3441,131.402 0,11.4716 100.1158,57.358 118.8875,55.2722 12.5144,-1.0429 26.0718,-19.8146 39.6291,-56.3151 z m 1663.3817,33.3719 c 31.2861,-13.5573 33.3719,-16.6859 23.986,-41.7149 -31.2862,-82.3869 -125.1447,-179.374 -230.4748,-237.7749 -57.358,-32.3291 -338.9336,-163.731 -349.3623,-163.731 -2.0857,0 -4.1715,30.2433 -4.1715,66.7439 v 65.7009 l 96.9872,39.6292 c 234.6463,95.9442 319.1189,157.4737 342.0621,251.3322 l 12.5145,47.9722 37.5434,-7.3001 c 20.8575,-4.1715 53.1865,-13.5574 70.9154,-20.8575 z M 2831.2095,1629.6428 c 25.0289,-15.6431 99.0728,-131.4019 99.0728,-155.388 0,-18.7717 -31.2861,-37.5434 -64.6581,-37.5434 -36.5005,0 -70.9153,28.1576 -92.8156,77.1726 -18.7717,41.7149 -26.0718,120.9732 -12.5145,134.5305 8.343,9.3859 41.7149,0 70.9154,-18.7717 z m 4691.8833,-8.343 c 7.3001,-37.5434 -4.1715,-85.5155 -31.2862,-131.4019 -31.2862,-53.1865 -100.1157,-69.8724 -133.4877,-33.3719 -22.9432,26.0718 -16.6859,47.9721 36.5006,117.8446 64.6581,86.5584 116.8017,106.373 128.2733,46.9292 z m -1301.5049,-23.986 c 37.5434,-56.3151 13.5574,-120.9732 -43.8006,-120.9732 -63.6152,0 -82.3869,71.9582 -33.3719,125.1447 29.2004,30.2433 56.3151,29.2004 77.1725,-4.1715 z m -1872.999,-184.5885 c 0,-30.2433 62.5724,-138.702 89.6871,-154.3451 25.0289,-15.6431 32.329,-15.6431 77.1725,-1.0429 30.2433,9.3859 60.4866,12.5145 79.2583,7.3002 29.2005,-7.3002 29.2005,-7.3002 -23.986,-28.1576 -30.2433,-11.4716 -55.2723,-23.9861 -55.2723,-29.2004 0,-5.2144 47.9722,-23.9861 107.4159,-42.7578 111.5874,-34.4148 184.5884,-66.7438 184.5884,-81.3441 0,-29.2004 -197.1029,-16.6859 -319.119,20.8575 -130.359,39.6291 -204.403,99.0729 -259.6752,207.5316 l -27.1147,53.1865 65.701,30.2433 c 76.1297,35.4577 81.344,36.5006 81.344,17.7288 z m 1659.2102,-8.3429 c 34.4148,-12.5145 61.5294,-27.1147 61.5294,-32.3291 0,-20.8574 -33.3719,-86.5584 -66.7438,-132.4448 -19.8146,-26.0718 -60.4866,-62.5723 -91.7728,-81.344 -92.8156,-55.2723 -290.9614,-99.0729 -378.5627,-82.387 -75.0868,14.6002 -32.329,45.8864 124.1018,91.7728 60.4866,17.7288 110.5445,36.5005 110.5445,41.7149 0,5.2144 -19.8146,17.7288 -43.8006,28.1576 -37.5434,16.6859 -41.7149,20.8574 -25.029,27.1147 10.4288,5.2143 42.7578,3.1286 71.9582,-4.1715 43.8007,-10.4288 56.3152,-9.3859 77.1726,4.1715 30.2433,19.8145 61.5295,69.8724 78.2154,123.0589 6.2573,20.8575 13.5574,38.5863 16.686,38.5863 3.1286,0 32.329,-10.4287 65.701,-21.9003 z M 4364.232,1046.6771 c 86.5584,-14.6002 205.4459,-33.3719 265.9325,-41.7149 60.4866,-8.34298 133.4877,-23.98606 161.6452,-34.41479 l 52.1437,-19.81458 22.9432,-108.45863 c 12.5144,-60.48664 20.8574,-110.54452 18.7717,-113.67314 -2.0858,-2.08574 -31.2862,13.55735 -63.6153,34.4148 -104.2872,64.65809 -209.6173,95.9443 -473.4641,141.83058 -141.8306,25.02894 -141.8306,23.98607 -165.8167,95.94426 -27.1147,80.3012 -27.1147,82.3869 2.0857,77.1726 12.5145,-3.1286 93.8586,-17.7289 179.3741,-31.2862 z M 3880.3392,853.7458 c 21.9003,-17.72887 22.9432,-23.9861 14.6002,-59.44377 -6.2572,-23.98607 -16.686,-40.67203 -25.0289,-40.67203 -17.7289,0 -84.4727,83.4298 -84.4727,105.33016 0,21.90032 65.7009,18.7717 94.9014,-5.21436 z m 452.6066,-109.50165 c 75.0869,-50.05788 159.5595,-129.31619 179.3741,-165.81672 41.7149,-81.34411 36.5005,-122.01614 -14.6002,-122.01614 -40.672,0 -82.3869,50.05788 -90.7299,109.50161 -7.3001,43.8007 -17.7288,61.52953 -62.5724,109.50167 -55.2722,57.35798 -87.6013,104.28725 -71.9582,104.28725 5.2144,0 32.3291,-15.64309 60.4866,-35.45767 z m 1705.0966,27.11469 c 0,-4.17149 -32.3291,-39.62916 -71.9582,-79.25831 -65.701,-65.70097 -71.9582,-75.08682 -76.1297,-123.05901 -7.3001,-65.70097 -47.9722,-112.63023 -99.0729,-112.63023 -42.7578,0 -54.2294,31.28618 -29.2004,89.68704 32.329,78.21549 81.344,125.14475 213.7888,204.40306 50.0579,30.2433 62.5724,34.41479 62.5724,20.85745 z M 4618.6929,721.30096 c 49.015,-25.02894 58.4009,-35.45767 90.7299,-102.20151 19.8146,-40.67202 40.672,-78.21549 46.9293,-84.47272 5.2143,-5.21436 39.6291,-12.51447 75.0868,-15.64309 l 64.6581,-5.21436 -37.5434,-22.9432 c -20.8575,-13.55734 -74.044,-54.22937 -118.8875,-91.77278 -44.8435,-37.54341 -85.5155,-67.78671 -90.7299,-67.78671 -4.1715,0 -5.2144,40.67203 -2.0857,91.77278 8.3429,111.58736 -8.343,152.25944 -90.7299,224.21764 -45.8864,40.67203 -53.1865,51.10075 -46.9293,74.04395 8.343,35.45766 37.5434,35.45766 109.5016,0 z m 1150.2884,1.04287 c 11.4716,-25.02894 8.3429,-31.28618 -51.1008,-86.55842 -78.2154,-73.00112 -90.7299,-110.54453 -80.3012,-234.64636 l 7.3001,-83.4298 -30.2433,21.90032 c -16.6859,11.4716 -58.4008,45.88639 -92.8156,75.08682 -34.4148,29.20043 -75.0868,61.52948 -90.7299,70.91533 -16.686,9.38585 -29.2005,20.85745 -29.2005,25.02894 0,4.17149 21.9004,10.42873 50.0579,13.55734 68.8296,9.38586 76.1297,14.60022 111.5874,86.55847 39.6291,82.38693 98.03,125.1447 185.6313,136.6163 4.1715,1.04287 13.5573,-10.42873 19.8146,-25.02894 z M 4832.4818,325.00936 c 44.8435,-17.72883 -17.7289,-118.88747 -74.044,-118.88747 -25.0289,0 -26.0718,2.08575 -19.8146,43.80065 11.4716,67.78671 43.8007,93.85852 93.8586,75.08682 z m 676.8242,-6.25724 c 15.6431,-12.51447 44.8435,-120.97321 34.4148,-130.35906 -2.0857,-3.12862 -23.9861,5.21436 -46.9293,17.72883 -45.8863,22.9432 -82.3869,79.25831 -70.9153,108.45874 8.343,19.81458 58.4009,21.90032 83.4298,4.17149 z"
         id="path1"
         style="fill:#4d4d4d;fill-opacity:0.212264;stroke-width:1.04287" /><path
         d="m 3562,5845 c 30,-52 152,-175 203,-204 36,-20 33,-15 -30,46 -38,37 -98,97 -133,133 -58,60 -61,62 -40,25 z"
         id="path2"
         style="fill:#4d4d4d;fill-opacity:0.212264" /><path
         d="m 2391,6243 c 6,-15 26,-71 45,-123 19,-52 40,-99 46,-105 14,-13 5,14 -44,142 -22,57 -44,105 -49,108 -5,4 -4,-6 2,-22 z"
         id="path3"
         style="fill:#4d4d4d;fill-opacity:0.212264" /><path
         d="m 3735,4761 c -70,-18 -70,-18 -40,-30 46,-19 156,-43 171,-37 8,3 14,15 14,26 0,14 7,20 23,21 h 22 l -21,9 c -12,5 -25,13 -29,19 -9,15 -58,12 -140,-8 z"
         id="path4"
         style="fill:#4d4d4d;fill-opacity:0.212264" /><path
         d="m 7349,3953 c -41,-61 -140,-184 -198,-245 -24,-27 -38,-48 -32,-48 19,0 164,150 203,210 34,52 72,130 63,130 -2,0 -19,-21 -36,-47 z"
         id="path5"
         style="fill:#4d4d4d;fill-opacity:0.212264" /></g></g></svg>
